<svg id="eXRlCNc4Y6H1" xmlns="http://www.w3.org/2000/svg" xmlns:xlink="http://www.w3.org/1999/xlink" viewBox="0 0 173 117" shape-rendering="geometricPrecision" text-rendering="geometricPrecision">
<style><![CDATA[
#eXRlCNc4Y6H13 {animation: eXRlCNc4Y6H13_c_o 3000ms linear infinite normal forwards}@keyframes eXRlCNc4Y6H13_c_o { 0% {opacity: 0} 50% {opacity: 0} 53.333333% {opacity: 1} 96.666667% {opacity: 1} 100% {opacity: 0}} #eXRlCNc4Y6H14 {animation: eXRlCNc4Y6H14_c_o 3000ms linear infinite normal forwards}@keyframes eXRlCNc4Y6H14_c_o { 0% {opacity: 0} 83.333333% {opacity: 0} 86.666667% {opacity: 1} 96.666667% {opacity: 1} 100% {opacity: 0}} #eXRlCNc4Y6H15 {animation: eXRlCNc4Y6H15_c_o 3000ms linear infinite normal forwards}@keyframes eXRlCNc4Y6H15_c_o { 0% {opacity: 0} 16.666667% {opacity: 0} 20% {opacity: 1} 96.666667% {opacity: 1} 100% {opacity: 0}}
]]></style>
<path d="M22.22,64.3198h6.51v-20.16l14.74,20.16h7.47l-15.81-21.63l15.38-21.43h-7.48l-14.3,20v-20h-6.51v20l-14.31-20h-7.469998L15.82,42.6898L0,64.3198h7.47l14.75-20.16v20.16Z" fill="#fff"/><path d="M119.44,51.72h15.19v12.6h6.52v-30.86h-6.52v12.1h-15.19v-12.1h-6.51v30.86h6.51v-12.6Z" fill="#fff"/><path d="M130.19,76.7999h10.8v24.7101h6.51v-24.7101h10.8v-6.15h-28.11v6.15Z" fill="#fff"/><path d="M74.06,46.02v18.3h6.52v-30.86h-1.56L58.46,51.59v-18.13h-6.51v30.86h1.35l20.76-18.3Z" fill="#fff"/><path d="M50.63,70.6499h-.01-1.68l-12.49,20.47-12.5-20.47h-1.67-.02v.07L16.64,101.51h6.41l2.84-16.0101L35.48,101.51h1.94L47,85.4999L49.84,101.51h6.41L50.63,70.7199v-.07Z" fill="#fff"/><path d="M84.34,73.5198c-2.72-2.72-6.42-3.95-10.33-3.95-9.12,0-16.51,7.39-16.51,16.51s7.39,16.5102,16.51,16.5102c3.91,0,7.56-1.19,10.33-3.9502v2.8602h6.51v-30.8602h-6.51v2.87.01ZM74.3,96.4898c-5.68,0-10.28-4.66-10.28-10.41s4.6-10.41,10.28-10.41s10.28,4.66,10.28,10.41-4.6,10.41-10.28,10.41Z" fill="#fff"/><path d="M172.29,53.4002c0-5.88-4.66-10.67-10.49-10.89v-.02h-7.84v-9.02h-6.51v9.02v6.15v9.53v6.15h14.36v-.02c5.83-.23,10.49-5.01,10.49-10.89l-.01-.01Zm-11.26,4.76h-7.07v-9.53h7.07c2.63,0,4.76,2.13,4.76,4.76s-2.13,4.76-4.76,4.76v.01Z" fill="#fff"/><path d="M113.99,69.5698c-3.91,0-7.59,1.21-10.33,3.95v-2.87h-6.51v45.8402h6.51v-17.8502c2.68,2.6802,6.42,3.9502,10.33,3.9502c9.12,0,16.51-7.3902,16.51-16.5102s-7.39-16.51-16.51-16.51Zm-.28,26.92c-5.68,0-10.28-4.66-10.28-10.41s4.6-10.41,10.28-10.41s10.28,4.66,10.28,10.41-4.6,10.41-10.28,10.41Z" fill="#fff"/><path d="M108.84,55.6301c0-3.1-1.78-5.53-4.54-7.01c2.49-1.62,3.87-4.11,3.87-6.81c0-5.39-5.01-9.44-11.75-9.44-5.93,0-10.82,3.66-11.9,7.75l5.83,1.58c.45-1.69,2.44-3.39,6.08-3.39s5.39,1.81,5.39,3.83-1.68,3.5-5.05,3.5h-3.99v5.93h3.66c3.71,0,6.07,1.35,6.07,3.71c0,2.02-1.68,4.33-6.07,4.33-4.04,0-6.16-2.62-6.84-4.86l-5.53,1.88c1.42,4.72,5.64,8.76,12.38,8.76c8.09,0,12.42-4.72,12.42-9.77l-.03.01Z" fill="#fff"/><path d="M166.08,69.8901c-2.11,0-3.85,1.74-3.85,3.85s1.74,3.83,3.85,3.83s3.83-1.7,3.83-3.83-1.72-3.85-3.83-3.85Zm0,6.95c-1.7,0-3.12-1.38-3.12-3.1s1.42-3.1,3.12-3.1s3.1,1.4,3.1,3.1-1.38,3.1-3.1,3.1Z" fill="#fff"/><path d="M167.83,72.8798c0-.65-.47-1.31-1.62-1.31h-1.64v4.22h.88v-1.59h.49l1.14,1.59h1.01l-1.23-1.68c.56-.13.99-.58.99-1.23h-.02Zm-1.76.67h-.63v-1.29h.65c.65,0,.8.34.8.65c0,.41-.24.64-.82.64Z" fill="#fff"/><path id="eXRlCNc4Y6H13" d="M96.12,25.42c0,0-.23.19-1.05.19s-1.17-.85-1.33-2.12c-.16-1.28-.48-5.3-.48-10.23s-.34-10.98001,2.88-11.30001c0,0,.3-1.95999,2.43-1.95999s1.73,3.93,1.74,13.27c0,9.44-.99,13-2.43,13s-1.76-.83-1.76-.83v-.02Z" opacity="0" fill="#0d9900"/><path id="eXRlCNc4Y6H14" d="M105.92,26.5901c-.71-1.25.4-4.18,5.11-8.89c4.72-4.71,7.3-6.68,8.45-5.24.77,1.01.05,2.1701.05,2.1701s1.41,1.0499.69,2.9399c-.73,1.89-5.29,4.75-7.4,7.35s-3.76,4.7701-5.5,3.7401c-.85-.71-.51-1.4901-.51-1.4901s-.67-.2099-.88-.5899l-.01.0099Z" transform="translate(0-.003132)" opacity="0" fill="#0d9900"/><path id="eXRlCNc4Y6H15" d="M73.82,13.54c2.54-3.14,6.2,2.32,6.2,2.32s2.47.54,5.48,4.96s2,6.15,2,6.15.03,1.05-.96,1.67-2.12.04-2.12.04-2.92-2.69-6.45-6.25c-3.52-3.56-5.83-6.83-4.15-8.9v.01Z" opacity="0" fill="#0d9900"/></svg>
