<svg width="170" height="150" viewBox="0 0 170 150" fill="none" xmlns="http://www.w3.org/2000/svg">
<g clip-path="url(#clip0_209_1529)">
<path d="M160.34 176.362C164.32 176.742 168.32 176.882 172.32 176.762C174.38 176.702 176.44 176.562 178.49 176.352C180.11 176.192 181.77 175.972 183.28 175.302C184.37 174.822 185.19 174.102 185.7 173.252C185.77 173.272 185.84 173.282 185.91 173.302C188.26 173.882 189.28 170.072 187.05 169.212L185.73 168.702C185.65 168.552 185.57 168.402 185.48 168.262C185.4 168.132 185.31 168.002 185.22 167.872C186.9 168.202 188.57 168.532 190.25 168.862C192.32 169.272 193.58 166.262 191.87 165.052C190.2 163.872 188.5 162.732 186.78 161.612C186.13 160.742 185.51 159.842 184.94 158.912C185.17 158.982 185.4 159.062 185.62 159.142C186.72 159.512 187.87 159.022 188.36 158.142L191.84 158.822C192.36 158.922 192.8 158.842 193.15 158.652C194.24 159.552 195.34 160.432 196.48 161.272C197.14 161.762 197.9 161.782 198.54 161.522C202.12 164.302 205.89 166.822 209.82 169.102C210.82 169.682 212.22 168.952 212.64 167.982C213.14 166.812 212.52 165.752 211.52 165.162C205.58 161.722 200.05 157.572 195 152.922C194.32 152.292 193.5 152.312 192.82 152.662C192.68 152.532 192.54 152.402 192.41 152.272C193.22 151.432 193.8 150.372 194.01 149.062C194.27 147.382 193.85 145.702 193.34 144.102C194.57 143.972 195.8 143.822 197.03 143.652C198.53 143.442 199.09 142.022 198.73 140.712C198.56 140.092 198.38 139.472 198.19 138.862C198.74 137.982 198.6 136.652 197.71 136.022C197.49 135.862 197.27 135.712 197.05 135.552C196.94 135.272 196.84 135.002 196.73 134.722C197.23 133.992 197.34 132.912 196.71 132.212C195.96 131.372 195.21 130.532 194.46 129.702C193.45 127.722 192.33 125.802 191.1 123.942C192.54 125.242 193.97 126.552 195.39 127.872C197.16 129.512 200.08 126.682 198.42 124.892C196.2 122.492 193.94 120.122 191.64 117.792C192.15 116.962 192.17 115.832 191.22 115.012C189.08 113.162 186.94 111.322 184.8 109.472C177.94 100.952 169.96 93.3316 161.13 86.8616C148.78 77.8116 134.81 71.0017 120.03 67.0117C104.33 62.7717 87.7799 61.7217 71.6499 63.7617C63.5899 64.7817 55.6299 66.5817 47.9199 69.1317C44.0899 70.4017 40.2699 71.8217 36.5999 73.5217C35.0999 74.2217 33.6499 75.1116 32.9299 76.6616C32.2299 78.1416 32.4099 79.8217 32.9499 81.3217C33.2599 82.1917 33.6799 83.0217 34.1699 83.8117C34.1699 83.8317 34.1899 83.8517 34.1999 83.8717C35.0899 85.8017 36.4599 87.4017 37.9899 88.8417C38.6399 89.6417 39.2899 90.4417 39.9399 91.2417C42.6199 94.5617 45.3199 97.8716 48.0399 101.162C53.5199 107.782 59.0999 114.322 64.9099 120.642C65.2999 121.072 65.6999 121.502 66.0999 121.922C66.7499 122.652 67.3999 123.372 68.0699 124.082C68.1899 124.212 68.3199 124.322 68.4599 124.422C78.9499 135.482 90.2799 145.832 102.93 154.372C107.23 157.272 111.68 159.972 116.27 162.422C116.86 162.782 117.45 163.152 118.04 163.502C118.39 163.712 118.77 163.862 119.15 163.912C128.3 168.532 137.95 172.132 147.96 174.352C149.84 174.772 151.74 175.132 153.65 175.452C155.08 175.942 156.52 176.412 157.97 176.852C158.85 177.122 159.78 177.002 160.39 176.322L160.34 176.362ZM173.98 160.492C173.98 160.492 173.93 160.522 173.91 160.532C173.79 160.212 173.58 159.912 173.25 159.662C172.71 159.242 172.17 158.812 171.62 158.392C171.91 158.422 172.21 158.452 172.5 158.472C172.97 159.162 173.46 159.832 173.97 160.482L173.98 160.492ZM153.05 124.762C152.93 124.862 152.83 124.982 152.73 125.112C151.99 124.602 151.25 124.102 150.5 123.602C151.35 123.992 152.2 124.372 153.05 124.762ZM112.89 99.1217C116.89 100.982 120.83 102.962 124.7 105.082C121.1 103.782 117.51 102.432 113.95 101.022C113.81 100.472 113.45 99.9516 112.78 99.6316C108.61 97.5816 104.4 95.6216 100.16 93.7516C101.51 94.2716 102.86 94.8017 104.21 95.3417C107.11 96.5917 110 97.8517 112.89 99.1217ZM138.72 134.802C138.36 135.632 138.57 136.392 139.07 136.982C134.13 133.622 129.2 130.252 124.26 126.892C126.57 128.092 128.87 129.292 131.17 130.502C132.88 131.682 134.58 132.892 136.26 134.122C137 134.662 137.78 134.652 138.42 134.342C138.56 134.422 138.71 134.492 138.85 134.572C138.8 134.652 138.76 134.732 138.72 134.812V134.802ZM138.6 146.552C137.12 145.582 135.65 144.612 134.17 143.642C135.66 144.552 137.15 145.462 138.63 146.382C138.62 146.442 138.61 146.492 138.6 146.552ZM71.0699 105.282C70.9699 105.372 70.8799 105.462 70.7999 105.562C70.6599 105.492 70.5199 105.412 70.3699 105.342C70.1999 105.252 70.0399 105.282 69.9099 105.382C69.2899 104.522 68.6599 103.662 68.0399 102.792C69.0499 103.622 70.0599 104.452 71.0699 105.292V105.282ZM90.2299 104.622C90.0999 104.662 89.9799 104.712 89.8599 104.782C88.3299 104.032 86.7899 103.292 85.2499 102.542C84.8899 102.312 84.5399 102.082 84.1799 101.852C86.1999 102.772 88.2099 103.702 90.2299 104.622ZM107.48 127.872C107.87 128.092 108.25 128.312 108.64 128.542C109.08 128.812 109.51 129.082 109.95 129.352C110.32 129.692 110.7 130.042 111.07 130.392C109.87 129.552 108.68 128.722 107.48 127.872ZM125.98 139.532C129.12 141.562 132.26 143.602 135.39 145.662C136.58 146.442 137.77 147.222 138.95 148.002C138.97 148.022 138.98 148.042 139 148.072C134.82 145.292 130.6 142.572 126.33 139.932C126.21 139.802 126.1 139.662 125.98 139.532ZM142.93 142.922C142.15 142.382 141.37 141.852 140.59 141.312C140.7 141.222 140.8 141.112 140.9 140.992C141.52 140.202 141.51 138.872 140.75 138.162C143.23 139.632 145.71 141.092 148.19 142.562C147.36 142.272 146.53 141.982 145.7 141.702C144.35 141.242 143.3 141.952 142.93 142.932V142.922ZM96.1499 100.662C99.2499 101.932 102.33 103.252 105.38 104.632C105.17 104.762 105.05 105.022 105.13 105.242C102.14 103.712 99.1499 102.192 96.1499 100.662ZM141.44 149.712C141.7 149.862 141.96 150.012 142.21 150.162C142.84 150.582 143.47 150.992 144.11 151.412C143.95 151.342 143.78 151.272 143.62 151.202C142.89 150.702 142.17 150.202 141.44 149.712ZM150.3 133.092C150.11 133.742 150.18 134.472 150.64 135.052C145.82 132.082 141.01 129.102 136.19 126.132C136.6 126.262 137.02 126.402 137.43 126.532L150.29 133.092H150.3ZM125.7 115.742C127.89 116.712 130.08 117.692 132.24 118.722C133.38 119.412 134.52 120.112 135.65 120.812C132.33 119.122 129.02 117.432 125.7 115.732V115.742ZM112.81 108.652C112.44 108.462 112.07 108.262 111.7 108.062C113.12 108.642 114.54 109.222 115.95 109.812C114.9 109.422 113.85 109.042 112.81 108.642V108.652ZM117.31 109.272C106.97 103.962 96.2799 99.3317 85.3199 95.4317C83.2399 94.2317 81.1699 93.0316 79.0899 91.8316C86.1599 94.1216 93.1799 96.5916 100.13 99.2416C100.53 99.3917 100.92 99.5417 101.32 99.7017C103.74 100.952 106.16 102.192 108.59 103.422C114.07 106.322 119.48 109.352 124.82 112.482C122.32 111.402 119.82 110.322 117.3 109.272H117.31ZM95.3899 80.6916C93.2899 80.3816 91.1799 80.0717 89.0799 79.7617C87.8899 79.5617 86.7099 79.3716 85.5199 79.1916C85.5199 79.1116 85.5099 79.0217 85.4899 78.9517C89.4299 79.5817 93.3699 80.2616 97.2899 80.9716C96.6599 80.8816 96.0199 80.7816 95.3899 80.6916ZM132.79 117.882C131.45 117.082 130.11 116.282 128.75 115.502C129.41 115.732 130.07 115.962 130.72 116.192C131.11 116.362 131.49 116.542 131.88 116.712C133.92 117.962 135.96 119.232 137.98 120.512C136.28 119.592 134.54 118.722 132.79 117.892V117.882ZM120.82 104.752C123.77 105.852 126.74 106.912 129.71 107.932C132.5 109.572 135.26 111.282 137.97 113.052C132.23 110.332 126.51 107.572 120.82 104.752ZM143.84 115.812C140.67 113.592 137.44 111.462 134.14 109.422C135.04 109.722 135.95 110.012 136.85 110.302C143.39 113.562 149.85 117.012 156.15 120.702C156.21 120.762 156.27 120.822 156.34 120.882L158.17 122.382C153.38 120.222 148.6 118.032 143.83 115.812H143.84ZM162.23 119.372C158.5 117.102 154.71 114.912 150.88 112.812C154.36 114.372 157.82 115.962 161.27 117.592C161.27 118.232 161.54 118.862 162.08 119.262C162.13 119.302 162.19 119.342 162.24 119.382L162.23 119.372ZM57.1899 74.6116C56.9599 74.6316 56.7299 74.6416 56.4999 74.6616C56.4699 74.6616 56.4399 74.6617 56.4199 74.6717C56.1599 74.4817 55.8499 74.3417 55.4799 74.2817C54.8299 74.1717 54.1799 74.0816 53.5199 74.0016C54.4499 73.7916 55.3899 73.6016 56.3199 73.4116C56.4599 73.9016 56.7699 74.3316 57.1899 74.6116ZM174.93 140.602C173.29 139.262 171.66 137.912 170.02 136.572C172.52 137.802 175.03 139.032 177.53 140.262C177.51 140.362 177.5 140.472 177.5 140.582C177.32 140.582 177.15 140.602 176.98 140.632C176.29 140.632 175.61 140.612 174.92 140.602H174.93ZM153.76 89.5516C153.18 89.8116 152.71 90.3216 152.5 90.9116C151.81 90.4317 151.11 89.9617 150.41 89.4917C150.2 89.1417 149.89 88.8716 149.48 88.7516C149.39 88.7216 149.3 88.7017 149.2 88.6717C146.29 86.7017 143.36 84.7516 140.42 82.8316C140.37 81.9216 139.81 81.0217 138.66 80.7717C129.44 78.8116 120.22 76.8516 110.99 74.8916C114.9 75.2916 118.81 75.5917 122.73 75.7917C124.78 76.4317 126.83 77.0717 128.88 77.7117C129.87 78.0217 130.96 77.7817 131.53 76.9017C139.3 80.3217 146.7 84.7517 153.74 89.5317L153.76 89.5516ZM45.9999 97.1517C44.6599 95.5217 43.3299 93.8817 41.9999 92.2417C43.6599 93.6217 45.1999 95.1317 45.9999 97.1517ZM120.7 163.442C121 163.642 121.3 163.842 121.6 164.032C121.26 163.872 120.93 163.702 120.59 163.532C120.63 163.502 120.67 163.472 120.7 163.432V163.442ZM181 174.952C177.36 175.752 173.41 175.772 169.7 175.782C166.73 175.792 163.77 175.652 160.81 175.382C160.95 174.752 160.85 174.042 160.44 173.552C160.91 173.722 161.38 173.892 161.85 174.062C162.86 174.422 163.71 174.102 164.23 173.502C165.5 173.862 166.77 174.212 168.04 174.552C169.05 174.822 170.14 173.922 170.38 173.002C170.41 172.892 170.43 172.782 170.44 172.672C172.18 172.912 173.93 173.112 175.68 173.272C176.94 173.382 177.87 172.412 178.07 171.372C180.28 171.922 182.49 172.462 184.69 173.012C183.84 174.132 182.32 174.672 181 174.962V174.952ZM184.09 168.072C183.34 167.782 182.59 167.492 181.83 167.202C182.44 167.322 183.06 167.442 183.67 167.562C183.81 167.722 183.95 167.892 184.09 168.072ZM189.56 149.002C189.56 149.002 189.45 149.142 189.37 149.262C188.9 148.772 188.44 148.272 187.99 147.762C188.71 147.582 189.34 147.102 189.59 146.452C189.83 147.332 189.92 148.232 189.55 149.002H189.56ZM175.99 101.902C176.04 101.632 176.03 101.362 175.96 101.092C177.27 102.432 178.55 103.792 179.8 105.192C178.53 104.092 177.26 103.002 175.98 101.902H175.99ZM110.16 65.8316C125.09 68.5816 139.44 74.1817 152.34 82.1817C160.02 86.9517 167.19 92.5316 173.68 98.8316C157.96 86.7816 141.44 74.5216 122.21 68.8916C117.45 67.4916 112.59 66.5117 107.65 66.0617H107.63C106.31 65.7617 104.97 65.4917 103.64 65.2417C103.54 65.0717 103.42 64.9117 103.27 64.7717C105.58 65.0617 107.88 65.4217 110.16 65.8417V65.8316ZM34.5099 76.0816C34.0099 76.8616 33.6699 77.7117 33.4899 78.5917C33.5399 77.6817 33.8499 76.8116 34.5099 76.0816ZM47.2899 98.7117C47.8199 98.9317 48.4499 98.9516 48.9699 98.7416C48.9899 98.7416 48.9999 98.7216 49.0199 98.7216C49.6899 99.6616 50.3699 100.612 51.0499 101.542C52.5399 104.012 54.0999 106.432 55.7399 108.802C52.8899 105.472 50.0799 102.102 47.2899 98.7117ZM70.2299 124.882C70.4999 124.822 70.7699 124.702 71.0199 124.512C71.0899 124.452 71.1599 124.392 71.2299 124.332C73.3699 126.542 75.6199 128.642 77.9799 130.622C78.0499 130.682 78.1199 130.732 78.1899 130.772C85.1199 138.382 92.6899 145.402 100.82 151.722C91.1099 144.862 82.1499 136.942 73.7699 128.512C72.5799 127.312 71.3999 126.102 70.2299 124.882ZM126.41 166.242C126.72 166.152 127.02 165.982 127.28 165.712C127.59 165.402 127.8 164.982 127.89 164.532C128.94 165.022 130 165.492 131.07 165.952C132.1 166.482 133.13 167.012 134.18 167.532C134.59 167.732 134.99 167.782 135.36 167.722C138.56 169.362 141.83 170.882 145.15 172.272C145.96 172.612 146.77 172.942 147.59 173.262C140.33 171.612 133.24 169.222 126.41 166.242Z" fill="#FFC34D"/>
<path d="M208.93 173.472C207.7 171.682 206.43 169.932 205.11 168.212C206.63 168.562 208.07 166.892 207.54 165.272C207.44 164.962 207.33 164.662 207.22 164.362C207.24 164.382 207.26 164.402 207.29 164.412C209.17 166.742 211 169.112 212.76 171.522C214.39 173.752 217.8 171.162 216.18 168.932C214.7 166.912 213.18 164.912 211.62 162.952C211.56 162.652 211.43 162.372 211.21 162.142C210.64 161.542 210.07 160.942 209.5 160.352C207.72 158.202 205.89 156.092 204.02 154.022C203.94 149.762 203.59 145.512 202.97 141.302C201.56 131.772 198.89 122.432 195.68 113.352C189.76 96.6016 181.57 80.6416 171.5 66.0116C165.87 57.8216 159.62 50.0716 152.84 42.8016C151.31 41.1616 149.01 42.2116 149.01 44.3816C149.01 46.8716 149.11 49.3516 149.28 51.8316C149.24 51.8516 149.21 51.8816 149.18 51.9016C148.19 52.6516 148.14 53.9216 148.77 54.9016C149.08 55.3916 149.4 55.8916 149.71 56.3816C151.15 69.1216 154.71 81.6116 159.27 93.5816C163.71 105.232 169.13 116.452 174.66 127.622C160.61 117.312 145.27 108.742 129.23 101.932C119.65 97.8616 109.8 94.4216 99.7799 91.6016C98.7499 91.3116 97.6799 91.4816 97.1099 92.4816C96.5999 93.3816 96.7399 94.6016 97.6099 95.2516C111.69 105.802 125.77 116.362 139.86 126.912C153.94 137.462 168.02 148.022 182.11 158.572C185.65 161.222 189.18 163.872 192.72 166.522C192.96 167.042 193.2 167.562 193.44 168.082C194.02 169.332 195.27 169.562 196.24 169.162C197.03 169.752 197.82 170.342 198.61 170.942C198.6 171.032 198.58 171.122 198.57 171.212C198.26 173.192 200.41 174.042 201.78 173.312C203.16 174.352 204.54 175.382 205.93 176.422C207.91 177.902 210.34 175.442 208.96 173.442L208.93 173.472ZM158.83 79.2116C158.96 79.5016 159.1 79.8016 159.24 80.0916C159.34 80.3016 159.46 80.4716 159.59 80.6316C159.51 80.8616 159.48 81.1116 159.5 81.3716C159.27 80.6516 159.06 79.9316 158.84 79.2116H158.83ZM191.16 115.032C191.33 114.992 191.5 114.922 191.66 114.842C192.14 116.192 192.61 117.542 193.06 118.902C192.43 117.612 191.8 116.312 191.17 115.032H191.16ZM185.04 135.802C184.63 135.452 184.22 135.112 183.8 134.772C183.6 134.262 183.4 133.752 183.2 133.232C183.37 133.162 183.54 133.072 183.7 132.962C184.15 133.912 184.59 134.852 185.04 135.802ZM143.8 124.552C146.39 126.322 148.98 128.102 151.58 129.872C151.78 130.012 152 130.112 152.22 130.192C155.15 132.642 158.09 135.082 161.06 137.492C155.31 133.182 149.55 128.872 143.8 124.552Z" fill="#0D9900"/>
</g>
<defs>
<clipPath id="clip0_209_1529">
<rect width="170" height="150" fill="white"/>
</clipPath>
</defs>
</svg>
