<svg width="170" height="150" viewBox="0 0 170 150" fill="none" xmlns="http://www.w3.org/2000/svg">
<g clip-path="url(#clip0_209_1530)">
<path d="M-39.1201 151.108C-37.8201 151.528 -36.3001 151.628 -35.0101 151.088C-33.3801 150.418 -32.4201 149.348 -31.4701 147.888C-31.4501 147.868 -31.4401 147.838 -31.4201 147.818C-31.7501 150.228 -29.9301 153.108 -27.7901 154.018C-26.7901 154.438 -25.7601 154.628 -24.7601 154.578C-23.8501 155.708 -22.5501 156.528 -21.0201 156.788C-18.3701 157.238 -15.7201 157.688 -13.0701 158.138C-12.5101 159.398 -11.5501 160.438 -10.1601 160.928C7.44991 167.148 25.7699 170.388 44.4499 170.518C47.1099 170.538 49.7699 170.488 52.4299 170.368C52.3299 171.288 52.4299 172.218 52.8099 173.098C54.1399 176.288 57.5999 178.048 60.9399 176.868C74.0499 172.248 86.5299 165.618 97.6899 157.358C108.85 149.098 118.92 139.208 127.17 128.058C129.42 125.018 131.54 121.868 133.56 118.668C136.18 114.508 138.1 110.168 138.23 105.188C138.34 100.988 136.36 96.5879 133.2 93.8079C129.14 90.2479 123.7 90.2079 118.82 91.8679C111.56 94.3479 104.52 97.8179 97.6699 101.248C90.4799 104.858 83.4199 108.718 76.4999 112.808C84.0599 102.948 90.6499 92.2479 95.1299 80.6679C96.5399 77.0179 98.1799 72.9179 97.4599 68.9079C96.9699 66.2179 95.8199 63.7279 93.6799 61.9379C91.4399 60.0579 88.7099 59.3479 85.8399 59.3579C81.5499 59.3679 77.6099 61.6979 74.0799 63.8579C70.9799 65.7579 67.9199 67.7279 64.9099 69.7679C55.0199 76.4679 45.6399 83.9179 36.8099 91.9679C36.9599 91.5879 37.1199 91.2079 37.2699 90.8279C41.0299 81.3779 44.2399 71.6879 46.8999 61.8679C48.1999 57.0779 49.3499 52.2479 50.3699 47.3979C51.2599 43.0979 52.0499 38.8979 52.0699 34.4879C52.0899 30.3179 51.1599 26.1179 48.9899 22.5179C46.3399 18.1279 41.3499 15.8479 36.3099 16.0079C31.0999 16.1779 25.9599 19.2079 21.8999 22.2379C18.1299 25.0479 14.7399 28.4079 11.6999 31.9779C5.3699 39.4179 -0.0700989 47.7179 -5.3101 55.9379C-10.5901 64.2179 -15.4701 72.7679 -19.9101 81.5279C-28.9201 99.2779 -36.1101 117.918 -41.5401 137.058C-42.1901 139.368 -42.8201 141.678 -43.4201 143.998C-44.2001 147.038 -41.9001 150.178 -39.1101 151.078L-39.1201 151.108Z" fill="#F3CED4"/>
</g>
<defs>
<clipPath id="clip0_209_1530">
<rect width="170" height="150" fill="white"/>
</clipPath>
</defs>
</svg>
