<svg width="375" height="164" viewBox="0 0 375 164" fill="none" xmlns="http://www.w3.org/2000/svg">
<g clip-path="url(#clip0_210_1531)">
<path d="M278.188 147.997C275.254 147.158 272.25 147.414 269.246 147.776C266.626 148.09 264.018 148.522 261.445 149.07C258.29 149.734 255.17 150.55 252.096 151.506C254.04 148.498 255.81 145.386 257.382 142.146C258.476 139.896 259.466 137.588 260.351 135.234C261.434 132.343 262.493 129.348 262.179 126.224C261.795 122.331 258.791 119.347 254.914 118.904C251.793 118.543 248.51 119.522 245.564 120.419C235.167 123.601 226.377 131.073 219.962 139.733C219.834 137.623 219.648 135.525 219.415 133.427C218.716 127.017 217.622 120.652 216.399 114.312C215.805 111.246 215.316 108.111 214.501 105.103C213.407 101.07 210.822 97.4921 206.375 97.0491C199.377 96.3498 194.627 103.262 191.6 108.542C188.724 113.554 186.407 118.822 184.847 124.394C179.27 144.256 181.878 166.297 192.741 183.816C192.997 185.063 193.638 186.054 194.639 186.718C195.5 187.965 196.408 189.189 197.363 190.378C198.935 192.348 201.776 192.476 203.72 191.019C204.489 190.436 204.978 189.621 205.199 188.723C214.338 189.516 223.606 188.77 232.606 187.091C243.387 185.075 253.912 181.776 264.274 178.186C273.076 175.132 285.534 171.414 285.988 160.073C286.198 154.769 283.59 149.524 278.199 147.997H278.188Z" fill="#F2CED4"/>
<path d="M205.972 198.946C203.894 198.667 202.516 197.831 200.882 196.519C200.368 196.101 199.843 195.695 199.329 195.288C198.547 194.708 197.765 194.127 196.971 193.558C195.407 196.055 192.663 197.785 189.546 197.692C183.907 197.518 178.269 197.344 172.618 197.169C172.572 197.169 172.525 197.169 172.49 197.169C170.844 197.158 169.198 197.1 167.552 197.007C154.383 196.6 141.215 196.194 128.046 195.776C107.733 195.149 87.3966 194.731 67.0951 193.849C55.666 193.349 -2.46503 202.406 -13.4155 198.946C-17.0111 197.808 -20.1048 194.394 -19.9297 190.435C-19.9063 189.819 -19.8129 189.204 -19.6728 188.6C-21.4357 187.242 -22.6731 185.233 -23 182.841C-23.5837 178.533 -20.9453 174.423 -16.7076 173.18C-16.7193 173.088 -16.7426 172.995 -16.7543 172.89C-17.0111 171.009 -16.766 168.908 -15.7036 167.27C-14.9214 166.051 -13.9875 165.145 -12.8784 164.426C-12.9368 164.205 -12.9718 163.996 -13.0185 163.764C-16.5675 163.218 -19.4744 160.884 -20.4317 157.447C-24.074 156.727 19.581 143.537 19.079 139.844C18.612 136.384 20.2464 132.971 23.1533 131.159C22.6163 130.811 22.1376 130.428 21.7641 130.021C20.4215 128.558 19.5927 126.921 19.3242 124.959C18.7871 120.953 20.9819 117.272 24.6126 115.681C24.5542 115.438 24.5075 115.182 24.4725 114.927C24.2157 113.046 24.4608 110.944 25.5232 109.307C26.2353 108.204 27.251 107.031 28.4417 106.218L27.788 105.94C26.749 105.382 25.9201 104.627 25.3014 103.664C24.1456 102.177 23.3051 100.25 23.3985 98.3225C23.5619 94.6185 26.0018 90.601 29.9127 89.8115C30.368 89.7186 30.8116 89.6373 31.2669 89.5444C30.6832 89.3702 30.1111 89.1264 29.5508 88.7897C27.7063 87.7214 25.9551 85.6198 25.4765 83.5181C24.9628 81.2655 25.0679 78.7227 26.3754 76.7255C27.5545 74.9026 29.434 73.0564 31.6755 72.6732C47.0154 70.049 62.5889 69.2711 78.0923 70.7225C93.5022 72.1739 108.725 75.367 123.283 80.6269C137.864 85.8985 151.838 92.8536 164.54 101.713C178.327 111.327 191.005 122.718 200.228 136.849C209.474 151.026 214.727 167.654 215.813 184.478C215.942 186.406 216 188.322 216 190.249C216 193.779 213.77 196.96 210.548 198.307C209.042 198.946 207.571 199.132 205.948 198.911L205.972 198.946Z" fill="#F2EEE6"/>
<path d="M210.558 13.0952C208.679 10.5896 206.251 8.69883 203.17 7.87523C200.427 7.14444 197.649 7.31844 194.906 7.84044C190.085 8.76843 185.755 11.3552 181.751 14.0696C177.035 17.2712 172.355 20.5423 167.721 23.8599C156.282 32.0726 145.088 40.6334 134.186 49.5421C135.108 48.0457 136.007 46.5377 136.883 45.0182C139.999 39.601 142.719 33.9982 145.1 28.2215C147.761 21.7603 149.687 14.9048 146.699 8.20003C143.793 1.69248 136.206 -1.83389 129.506 0.97329C123.681 3.40927 121.02 9.33682 118.545 14.6844C115.966 20.2523 113.468 25.8551 111.052 31.5042C110.958 29.8339 110.783 28.1519 110.491 26.4699C109.663 21.7139 107.445 16.7492 103.581 13.6868C98.7606 9.85881 92.621 8.61763 86.6681 10.4504C81.1004 12.1672 76.3964 15.8908 73.2916 20.7627C70.2451 25.5303 68.8094 31.1679 68.004 36.701C67.0936 42.965 66.4749 49.2753 65.7629 55.5625L64.2689 68.682C63.9771 64.4132 63.3701 60.1792 62.2846 56.0265C59.5533 45.5285 52.9701 33.6618 41.7062 30.5531C35.9751 28.9639 29.3336 30.5531 25.47 35.2046C22.085 39.2762 20.8244 44.3338 20.731 49.5421C20.6377 54.6113 21.7582 59.634 22.8788 64.5408C24.1861 70.3176 25.6918 76.0479 27.396 81.7203C29.0184 87.149 30.8276 92.5198 32.8002 97.8326C31.1544 97.1134 29.4736 96.4521 27.7578 95.8605C22.3302 93.9698 15.4902 93.2274 10.436 96.6378C6.78259 99.1085 5.03174 103.018 5.82546 107.368C6.56082 111.393 9.75904 114.235 13.0857 116.3C18.4316 119.606 24.5712 121.636 30.8276 122.355C30.3957 123.178 29.9172 123.979 29.4153 124.756C28.8667 125.591 28.3064 126.6 27.6061 127.296C27.6294 127.273 28.3181 126.403 27.8862 126.937C27.7461 127.111 27.6061 127.285 27.466 127.459C27.1858 127.807 26.9057 128.143 26.6256 128.491C21.9333 134.175 17.171 139.813 12.4203 145.45C6.00055 149.777 -0.104085 154.591 -5.82353 159.799C-5.91691 159.88 -5.98695 159.973 -6.06865 160.054C-6.79234 160.658 -7.50435 161.272 -8.21636 161.887C-10.5508 163.906 -10.4691 167.687 -8.69493 169.949C-7.85452 171.028 -6.79234 171.736 -5.48504 172.153C-4.16606 172.571 -1.86661 172.397 -0.72272 171.538C-0.349205 171.26 0.0243101 170.982 0.386153 170.703C1.06315 170.784 1.74014 170.761 2.3938 170.61C2.54554 170.819 2.70895 171.028 2.89571 171.225C5.10178 173.615 9.42055 173.568 11.6383 171.225C13.3775 169.392 15.1867 167.629 17.0893 165.97C18.0114 165.158 18.9569 164.381 19.914 163.616C20.0074 163.546 20.1007 163.476 20.2058 163.407C19.984 163.627 19.914 163.801 20.556 163.128C21.0229 162.78 21.4897 162.444 21.9566 162.108C25.9019 159.3 30.1039 156.841 34.4927 154.788C35.088 154.51 35.6716 154.243 36.2669 153.976C36.4654 153.883 36.6638 153.802 36.8622 153.721C37.8427 153.292 36.8155 153.721 36.6054 153.825C37.4342 153.338 38.5197 153.071 39.4185 152.735C41.5195 151.958 43.6672 151.273 45.8266 150.682C47.9159 150.113 50.0403 149.626 52.1763 149.22C52.8183 149.104 53.4603 148.988 54.1023 148.884C54.3357 148.849 54.5575 148.814 54.7909 148.779C54.861 148.779 55.0361 148.745 55.2111 148.71C54.5575 148.814 55.3746 148.687 55.4796 148.675C55.8298 148.64 56.1683 148.594 56.5184 148.559C57.1254 148.489 57.7324 148.431 58.3393 148.373C68.8911 147.422 79.4779 148.234 90.0297 148.721C108.729 149.568 129.296 148.942 145.065 137.585C146.687 136.414 147.738 135.115 148.018 133.096C148.275 131.24 147.749 129.257 146.314 127.934C141.68 123.666 135.949 120.951 129.856 119.432C124.545 118.098 119.024 117.564 113.585 117.123C107.713 116.659 101.819 116.439 95.9243 116.485C91.6872 116.52 87.4618 116.694 83.2364 116.984C85.6176 116.218 88.0454 115.604 90.4966 115.105C92.0724 114.78 93.6598 114.513 95.2473 114.281C95.3056 114.281 95.9476 114.188 96.1227 114.165C96.2394 114.154 96.3328 114.142 96.3561 114.142C97.1265 114.049 97.8852 113.968 98.6556 113.887C101.749 113.574 104.854 113.376 107.958 113.226C114.191 112.924 120.436 112.831 126.681 112.46C147.329 111.254 172.471 104.955 181.879 84.3999C182.603 82.8223 182.895 81.3723 182.498 79.6671C182.195 78.3331 180.934 76.5931 179.662 76.0015C173.966 73.3335 167.826 72.6027 161.581 73.1827C159.27 73.4031 156.959 73.7279 154.659 74.0991C158.43 72.6955 162.153 71.1876 165.83 69.5288C175.086 65.3644 183.782 60.1444 191.626 53.7065C195.279 50.7137 198.688 47.4077 201.722 43.7886C205.002 39.8678 208.212 35.599 210.407 30.9591C213.01 25.4375 214.562 18.408 210.558 13.0836V13.0952Z" fill="#004D3A"/>
<path d="M51.1069 73.4594C49.0982 70.2324 45.8007 68.4499 42.0853 68.1004C38.8807 67.7976 35.6994 68.7878 32.6806 70.2091C38.4859 56.7069 41.9111 39.0223 31.7749 26.6617C26.225 19.8815 17.3195 18.0059 9.04103 19.4621C1.01799 20.8717 -6.42451 25.322 -13.0659 29.8655C-15.597 31.6013 -16.5027 34.5953 -15.0281 37.3913C-14.97 37.5078 -14.9004 37.6127 -14.8307 37.7292C-15.1674 38.6961 -15.2255 39.7912 -14.97 40.9329C-14.912 41.1659 -14.8423 41.3872 -14.761 41.5969C-16.4678 42.925 -17.1993 45.3948 -16.7233 47.4918C-16.3749 49.0412 -15.3764 50.1363 -14.1108 50.777C-16.1543 52.0585 -17.1877 54.3186 -16.6072 56.8932C-16.2821 58.3378 -15.3416 59.4329 -14.1457 60.1086C-16.4446 61.4017 -17.1761 64.5705 -16.2008 66.8656C-15.7712 67.8908 -15.0861 68.6946 -14.2502 69.2538C-14.6449 69.4169 -15.0281 69.58 -15.4229 69.7547C-17.9308 70.8382 -18.6158 74.3565 -17.6637 76.6165C-17.2922 77.4903 -16.7349 78.2126 -16.0615 78.7485C-17.8031 79.6339 -19.5563 80.5193 -21.3095 81.3814C-24.0613 82.7327 -24.5721 86.4258 -23.2717 88.9072C-22.668 90.0489 -21.3792 91.0042 -20.1484 91.3886C-20.5548 91.6333 -20.9612 91.8779 -21.3676 92.1226C-23.8987 93.6604 -24.6766 96.7476 -23.4691 99.3571C-25.3965 101.897 -24.2587 105.66 -21.7159 107.279C-22.7376 108.654 -23.0279 110.681 -22.6796 112.23C-22.1571 114.549 -19.7072 116.296 -17.3967 116.273C-17.118 116.273 -16.8394 116.261 -16.5607 116.25C-17.7566 116.692 -18.9525 117.135 -20.1484 117.578C-23.0279 118.649 -24.6883 121.224 -23.98 124.346C-23.4807 126.525 -21.2747 128.226 -19.0454 128.4C-21.4837 129.647 -23.9103 130.905 -26.337 132.187C-28.7636 133.468 -29.588 136.637 -28.5779 139.048C-27.9741 140.481 -26.6853 141.658 -25.1875 142.182C-25.3268 143.359 -25.1062 144.594 -24.5373 145.677C-23.295 148.042 -20.3807 148.834 -17.9772 148.054C-18.3023 148.287 -18.6158 148.52 -18.9293 148.753C-21.414 150.558 -22.4009 153.424 -20.8915 156.279C-20.5897 156.838 -20.1833 157.315 -19.7072 157.712C-19.8466 158.713 -19.7072 159.785 -19.2312 160.822C-19.5679 161.09 -19.893 161.37 -20.2297 161.638C-22.5983 163.583 -22.0758 167.404 -20.2297 169.408C-19.684 170.002 -18.9177 170.445 -18.0933 170.725C-18.0585 171.552 -17.8379 172.39 -17.3967 173.241C-16.1079 175.687 -12.2299 176.911 -9.89613 175.21C-0.259192 168.196 8.65788 160.24 16.5764 151.304C30.6835 135.402 41.7021 116.937 48.9589 96.9223C50.7237 92.0643 52.6279 87.0199 52.9646 81.8124C53.1504 78.9815 52.6163 75.8942 51.1069 73.4711V73.4594Z" fill="#65ACE4"/>
</g>
<defs>
<clipPath id="clip0_210_1531">
<rect width="375" height="164" fill="white"/>
</clipPath>
</defs>
</svg>
