<svg width="186" height="115" viewBox="0 0 186 115" fill="none" xmlns="http://www.w3.org/2000/svg">
<path d="M90.1571 100.486C90.1571 100.486 89.2625 101.252 86.0045 101.252C82.7466 101.252 81.3886 97.9082 80.7814 92.8571C79.4556 79.4228 78.8281 65.9284 78.9011 52.4286C78.9011 32.957 77.5495 9.03619 90.2549 7.76033C90.6451 5.52537 91.8307 3.50799 93.5919 2.08228C95.3532 0.656559 97.5706 -0.0807477 99.833 0.00702348C108.249 0.00702348 106.656 15.5529 106.682 52.4286C106.682 89.7231 102.765 103.784 97.1105 103.784C91.4564 103.784 90.1571 100.486 90.1571 100.486Z" fill="#3F9E37"/>
<path d="M128.796 105.145C125.995 100.192 130.356 88.6238 148.964 70.029C167.571 51.4341 177.743 43.6154 182.261 49.3208C183.107 50.58 183.573 52.0558 183.605 53.5729C183.638 55.09 183.235 56.5846 182.444 57.8789C184.096 59.2563 185.254 61.1368 185.742 63.2342C186.23 65.3317 186.021 67.5315 185.147 69.499C182.275 76.9645 164.255 88.2836 155.969 98.5559C147.684 108.828 141.155 117.399 134.26 113.349C133.333 112.719 132.635 111.805 132.271 110.743C131.907 109.681 131.897 108.529 132.243 107.461C130.891 107.046 129.692 106.24 128.796 105.145V105.145Z" fill="#3F9E37"/>
<path d="M2.20507 53.554C12.2271 41.1552 26.6432 62.7141 26.6432 62.7141C26.6432 62.7141 36.3714 64.834 48.2542 82.3427C60.137 99.8515 56.1542 106.669 56.1542 106.669C56.1187 107.999 55.7533 109.298 55.091 110.451C54.4288 111.604 53.4905 112.573 52.3609 113.271C51.0781 113.96 49.6505 114.334 48.1954 114.362C46.7404 114.391 45.2993 114.073 43.9907 113.435C43.9907 113.435 32.4735 102.802 18.5732 88.7482C4.67296 74.6941 -4.40881 61.7326 2.20507 53.554Z" fill="#3F9E37"/>
</svg>
