<svg width="173" height="117" viewBox="0 0 173 117" fill="none" xmlns="http://www.w3.org/2000/svg">
<path d="M22.22 64.3198H28.73V44.1598L43.47 64.3198H50.94L35.13 42.6898L50.51 21.2598H43.03L28.73 41.2598V21.2598H22.22V41.2598L7.91 21.2598H0.440002L15.82 42.6898L0 64.3198H7.47L22.22 44.1598V64.3198Z" fill="white"/>
<path d="M119.44 51.72H134.63V64.32H141.15V33.46H134.63V45.56H119.44V33.46H112.93V64.32H119.44V51.72Z" fill="white"/>
<path d="M130.19 76.7999H140.99V101.51H147.5V76.7999H158.3V70.6499H130.19V76.7999Z" fill="white"/>
<path d="M74.06 46.02V64.32H80.58V33.46H79.02L58.46 51.59V33.46H51.95V64.32H53.3L74.06 46.02Z" fill="white"/>
<path d="M50.63 70.6499H50.62H48.94L36.45 91.1199L23.95 70.6499H22.28H22.26V70.7199L16.64 101.51H23.05L25.89 85.4999L35.48 101.51H37.42L47 85.4999L49.84 101.51H56.25L50.63 70.7199V70.6499Z" fill="white"/>
<path d="M84.34 73.5198C81.62 70.7998 77.92 69.5698 74.01 69.5698C64.89 69.5698 57.5 76.9598 57.5 86.0798C57.5 95.1998 64.89 102.59 74.01 102.59C77.92 102.59 81.57 101.4 84.34 98.6398V101.5H90.85V70.6398H84.34V73.5098V73.5198ZM74.3 96.4898C68.62 96.4898 64.02 91.8298 64.02 86.0798C64.02 80.3298 68.62 75.6698 74.3 75.6698C79.98 75.6698 84.58 80.3298 84.58 86.0798C84.58 91.8298 79.98 96.4898 74.3 96.4898Z" fill="white"/>
<path d="M172.29 53.4002C172.29 47.5202 167.63 42.7302 161.8 42.5102V42.4902H153.96V33.4702H147.45V42.4902V48.6402V58.1702V64.3202H161.81V64.3002C167.64 64.0702 172.3 59.2902 172.3 53.4102L172.29 53.4002ZM161.03 58.1602H153.96V48.6302H161.03C163.66 48.6302 165.79 50.7602 165.79 53.3902C165.79 56.0202 163.66 58.1502 161.03 58.1502V58.1602Z" fill="white"/>
<path d="M113.99 69.5698C110.08 69.5698 106.4 70.7798 103.66 73.5198V70.6498H97.15V116.49H103.66V98.6398C106.34 101.32 110.08 102.59 113.99 102.59C123.11 102.59 130.5 95.1998 130.5 86.0798C130.5 76.9598 123.11 69.5698 113.99 69.5698ZM113.71 96.4898C108.03 96.4898 103.43 91.8298 103.43 86.0798C103.43 80.3298 108.03 75.6698 113.71 75.6698C119.39 75.6698 123.99 80.3298 123.99 86.0798C123.99 91.8298 119.39 96.4898 113.71 96.4898Z" fill="white"/>
<path d="M108.84 55.6301C108.84 52.5301 107.06 50.1001 104.3 48.6201C106.79 47.0001 108.17 44.5101 108.17 41.8101C108.17 36.4201 103.16 32.3701 96.42 32.3701C90.49 32.3701 85.6 36.0301 84.52 40.1201L90.35 41.7001C90.8 40.0101 92.79 38.3101 96.43 38.3101C100.07 38.3101 101.82 40.1201 101.82 42.1401C101.82 44.1601 100.14 45.6401 96.77 45.6401H92.78V51.5701H96.44C100.15 51.5701 102.51 52.9201 102.51 55.2801C102.51 57.3001 100.83 59.6101 96.44 59.6101C92.4 59.6101 90.28 56.9901 89.6 54.7501L84.07 56.6301C85.49 61.3501 89.71 65.3901 96.45 65.3901C104.54 65.3901 108.87 60.6701 108.87 55.6201L108.84 55.6301Z" fill="white"/>
<path d="M166.08 69.8901C163.97 69.8901 162.23 71.6301 162.23 73.7401C162.23 75.8501 163.97 77.5701 166.08 77.5701C168.19 77.5701 169.91 75.8701 169.91 73.7401C169.91 71.6101 168.19 69.8901 166.08 69.8901ZM166.08 76.8401C164.38 76.8401 162.96 75.4601 162.96 73.7401C162.96 72.0201 164.38 70.6401 166.08 70.6401C167.78 70.6401 169.18 72.0401 169.18 73.7401C169.18 75.4401 167.8 76.8401 166.08 76.8401Z" fill="white"/>
<path d="M167.83 72.8798C167.83 72.2298 167.36 71.5698 166.21 71.5698H164.57V75.7898H165.45V74.1998H165.94L167.08 75.7898H168.09L166.86 74.1098C167.42 73.9798 167.85 73.5298 167.85 72.8798H167.83ZM166.07 73.5498H165.44V72.2598H166.09C166.74 72.2598 166.89 72.5998 166.89 72.9098C166.89 73.3198 166.65 73.5498 166.07 73.5498Z" fill="white"/>
<path d="M96.12 25.42C96.12 25.42 95.89 25.61 95.07 25.61C94.25 25.61 93.9 24.76 93.74 23.49C93.58 22.21 93.26 18.19 93.26 13.26C93.26 8.32999 92.92 2.27999 96.14 1.95999C96.14 1.95999 96.44 0 98.57 0C100.7 0 100.3 3.93 100.31 13.27C100.31 22.71 99.32 26.27 97.88 26.27C96.44 26.27 96.12 25.44 96.12 25.44V25.42Z" fill="#0D9900"/>
<path d="M105.92 26.5901C105.21 25.3401 106.32 22.4101 111.03 17.7001C115.75 12.9901 118.33 11.0201 119.48 12.4601C120.25 13.4701 119.53 14.6302 119.53 14.6302C119.53 14.6302 120.94 15.6801 120.22 17.5701C119.49 19.4601 114.93 22.3201 112.82 24.9201C110.71 27.5201 109.06 29.6902 107.32 28.6602C106.47 27.9502 106.81 27.1701 106.81 27.1701C106.81 27.1701 106.14 26.9602 105.93 26.5802L105.92 26.5901Z" fill="#0D9900"/>
<path d="M73.82 13.54C76.36 10.4 80.02 15.86 80.02 15.86C80.02 15.86 82.49 16.4 85.5 20.82C88.51 25.24 87.5 26.97 87.5 26.97C87.5 26.97 87.53 28.02 86.54 28.64C85.55 29.26 84.42 28.68 84.42 28.68C84.42 28.68 81.5 25.99 77.97 22.43C74.45 18.87 72.14 15.6 73.82 13.53V13.54Z" fill="#0D9900"/>
</svg>
