<svg width="153" height="192" viewBox="0 0 153 192" fill="none" xmlns="http://www.w3.org/2000/svg">
<g clip-path="url(#clip0_127_1586)">
<path d="M123.18 54.2806C125.16 55.3906 127.19 54.1406 129.05 53.3706C129.12 53.3406 129.18 53.2906 129.21 53.2406C131.01 52.4606 132.68 51.4406 134.5 50.6606C136.65 49.7406 138.72 48.1806 140.32 46.4906C141.41 45.3406 141.63 43.4906 141.02 42.0906C139.95 39.6606 138.98 37.3406 137.56 35.0806C134.68 30.4906 131.75 25.9506 128.88 21.3506C127.57 19.2506 126.42 16.4606 124.41 14.9206C123.14 13.9506 122.26 13.3706 121.01 13.3906C118.01 13.4506 114.24 15.4606 111.64 16.8606C109.33 18.1006 105.77 20.3106 106.52 23.4506C107.13 26.0406 108.72 28.6006 109.86 31.0006C112.6 36.7606 115.25 42.4606 118.37 48.0306C119.66 50.3406 120.76 52.9206 123.18 54.2806ZM122.2 52.3106C120.4 50.3406 119.21 47.8406 117.99 45.4806C115.69 41.0406 113.27 36.6206 111.27 32.0406C110.33 29.8806 109.29 27.7606 108.29 25.6306C107.63 24.2206 106.33 22.2006 107.76 20.7906C110.4 18.2206 114.8 16.7606 118.06 15.0806C120.16 14.0006 122.04 13.6906 123.9 15.4506C124.88 16.3706 125.85 17.6506 126.53 18.8306C127.6 20.7106 128.66 22.6006 129.79 24.4406C131.99 28.0206 134.37 31.4706 136.59 35.0306C137.9 37.1206 139.1 39.2406 139.95 41.5706C140.35 42.6606 140.8 43.5806 140.37 44.7706C139.93 45.9806 138.96 46.7206 138.01 47.5306C136.27 49.0106 134.1 49.9006 132.09 50.9206C130.9 51.5206 129.42 52.0106 128.43 52.9306C127.68 53.2106 126.91 53.5406 126.14 53.6906C124.47 54.0306 123.33 53.5606 122.2 52.3306V52.3106Z" fill="#083028"/>
<path d="M112.88 19.6208C112.97 19.5708 113.06 19.5208 113.14 19.4808C113.21 19.4408 113.29 19.4308 113.37 19.4308C114 19.1808 114.61 18.8108 115.24 18.5808C116.14 18.2608 117.19 17.5008 118.16 17.6008C118.34 17.6208 118.49 17.7608 118.44 17.9508C118.38 18.2108 118.32 18.4008 118.05 18.5008C117.41 18.7408 116.85 19.1808 116.21 19.4408C115.57 19.7108 114.86 19.9008 114.27 20.2608C113.91 20.4808 113.59 20.6908 113.16 20.6608C112.62 20.6308 112.34 19.8908 112.87 19.6008L112.88 19.6208Z" fill="#083028"/>
<path d="M132.94 48.7506C133.68 48.3606 135.96 46.5806 134.31 45.7206C133.65 45.3806 132.97 45.3406 132.28 45.6406C131.62 45.9306 130.8 46.2706 130.2 46.7406C129.04 47.1706 127.7 47.9906 128.31 49.2206C128.97 50.5506 132.17 49.1506 132.94 48.7506ZM128.94 48.2806C129.18 47.8706 129.59 47.6606 130.02 47.4706C130.12 47.5206 130.25 47.5106 130.35 47.4106C130.44 47.3306 130.54 47.2606 130.65 47.1906C130.8 47.1206 130.94 47.0406 131.07 46.9506C131.39 46.7806 131.73 46.6406 132.01 46.5006C132.18 46.4206 134.54 45.5306 134.11 46.7706C133.72 47.8706 132.28 48.3306 131.29 48.6806C130.91 48.8106 128.27 49.4306 128.95 48.2706L128.94 48.2806Z" fill="#083028"/>
<path d="M121.57 49.9409C121.79 50.2009 122.11 49.9609 122.12 49.6909C123.25 49.4009 124.56 48.9209 125.44 48.2209C126.88 47.0709 128.57 46.4209 130.11 45.4309C132.76 43.7309 135.72 42.4909 138.18 40.4809C138.18 40.4809 138.19 40.4609 138.2 40.4609C138.26 40.4409 138.33 40.4109 138.37 40.3409L138.4 40.2809C138.47 40.1609 138.43 40.0509 138.35 39.9709C138.15 39.0809 137.45 38.2809 136.99 37.5009C136.43 36.5509 135.73 35.7109 135.18 34.7509C134.54 33.6409 133.89 32.5409 133.21 31.4509C132.71 30.6509 132.53 29.7509 132.04 28.9709C130.75 26.9209 129.28 24.9409 128.07 22.8309C127.79 22.3309 124.41 17.3909 124.51 17.2709C124.58 17.1809 124.53 17.1009 124.46 17.0709C124.6 16.9209 124.41 16.6709 124.24 16.7909C123.12 17.5409 121.65 17.9909 120.45 18.6109C119.06 19.3309 117.65 19.9309 116.22 20.5409C114.86 21.1209 113.62 21.9109 112.26 22.5109C111.07 23.0309 109.86 23.5909 108.72 24.2209C108.52 24.3509 108.56 24.7509 108.85 24.7509C108.83 24.8009 108.82 24.8509 108.85 24.9109C111.1 29.2509 113.19 33.6409 115.26 38.0409C116.32 40.2909 117.26 42.4209 118.56 44.5409C119.61 46.2509 120.25 48.4109 121.56 49.9409H121.57ZM121.73 49.0109C121.73 49.0109 121.72 49.0209 121.71 49.0309C121.07 48.1209 120.45 46.8109 120.1 45.9109C119.7 44.9009 119.04 44.0909 118.5 43.1709C117.28 41.0609 116.58 38.7009 115.33 36.6109C114.75 35.6409 114.12 34.2409 113.84 33.1509C113.61 32.2809 112.74 31.4609 112.33 30.6309C111.35 28.6409 110.31 26.6109 109.16 24.7109C109.15 24.6909 109.13 24.6909 109.12 24.6809C110.53 24.3309 111.81 23.4909 113.13 22.9009C114.49 22.2909 115.73 21.4709 117.11 20.8909C118.54 20.2809 119.89 19.5609 121.25 18.8209C122.17 18.3209 123.4 17.9709 124.22 17.2709C124.61 18.3009 125.29 19.1509 125.87 20.0809C126.48 21.0709 126.96 22.1109 127.54 23.1209C128.67 25.0909 130 26.9609 131.19 28.8909C131.76 29.8209 132 30.8609 132.62 31.7809C133.23 32.6909 133.77 33.6409 134.32 34.5909C134.88 35.5609 135.58 36.4309 136.16 37.3909C136.68 38.2609 137.45 39.1809 137.8 40.1409C135.24 41.8409 132.24 43.0109 129.74 44.7909C128.49 45.6709 126.83 46.0409 125.69 47.0709C124.68 47.9909 123.34 48.5909 122.03 49.0309C121.96 48.9309 121.82 48.8809 121.72 49.0009L121.73 49.0109Z" fill="#083028"/>
<path d="M125.71 43.6604C126.08 43.4604 126.48 43.5804 126.86 43.6804C127.34 43.8004 127.94 43.7904 128.36 44.0604C128.48 44.1404 128.44 44.3204 128.29 44.3304C127.86 44.3504 127.4 44.2804 126.98 44.2204C126.59 44.1604 126.12 44.1304 125.75 43.9904C125.61 43.9404 125.55 43.7404 125.7 43.6604H125.71Z" fill="#083028"/>
<path d="M121.11 44.3008C121.03 44.1708 121.13 43.9508 121.3 43.9608C122.26 44.0508 123.22 44.1008 124.15 44.3308C124.84 44.5008 126.01 44.6508 126.5 45.1908C126.64 45.3508 126.47 45.5908 126.28 45.4908C125.85 45.2808 125.35 45.2508 124.89 45.1408C124.39 45.0208 123.91 44.9008 123.4 44.8208C122.71 44.7108 121.53 44.9508 121.11 44.2908V44.3008Z" fill="#083028"/>
<path d="M121.4 45.8807C121.4 45.8807 121.37 45.8607 121.36 45.8507C121.23 45.7407 121.3 45.5207 121.46 45.4607C121.89 45.3107 122.5 45.4907 122.94 45.5707C123.49 45.6707 124.01 45.7407 124.52 46.0107C124.83 46.1707 124.57 46.6307 124.26 46.4907C123.8 46.2707 123.3 46.2307 122.8 46.1707C122.36 46.1207 121.79 46.1707 121.42 45.8907L121.4 45.8807Z" fill="#083028"/>
<path d="M122.57 47.7607C122.57 47.7607 122.65 47.7807 122.62 47.8107C122.59 47.8407 122.54 47.7907 122.57 47.7607Z" fill="#083028"/>
<g style="mix-blend-mode:multiply">
<path d="M72.0099 192.001C108.914 192.001 138.83 186.973 138.83 180.771C138.83 174.568 108.914 169.541 72.0099 169.541C35.1063 169.541 5.18994 174.568 5.18994 180.771C5.18994 186.973 35.1063 192.001 72.0099 192.001Z" fill="#DADADA"/>
</g>
<path d="M20.0199 80.0408C19.4499 78.3208 19.2999 76.6008 19.5999 74.8908C21.1299 65.9408 34.1599 60.9008 34.7099 60.6908C35.5499 60.3708 36.4799 60.7908 36.7999 61.6308C37.1099 62.4708 36.6999 63.4008 35.8599 63.7208C35.7399 63.7608 24.0099 68.3108 22.7999 75.4308C22.2299 78.8008 24.1799 82.3908 28.5899 86.1108C29.2699 86.6908 29.3599 87.7108 28.7899 88.4008C28.2099 89.0908 27.1899 89.1708 26.4999 88.6008C23.1499 85.7708 20.9799 82.9108 20.0199 80.0408Z" fill="#432918"/>
<path d="M34.6097 62.6408C34.5097 62.3508 34.4997 62.0308 34.5797 61.7208C34.8097 60.8508 35.6897 60.3308 36.5597 60.5608L39.5397 61.3408C40.4097 61.5708 40.9297 62.4508 40.6997 63.3208C40.4697 64.1908 39.5897 64.7108 38.7197 64.4808L35.7397 63.7008C35.1897 63.5608 34.7797 63.1508 34.6097 62.6408Z" fill="#432918"/>
<path d="M34.6096 62.6406C34.3796 61.9606 34.6296 61.1906 35.2496 60.7706L37.8196 59.0606C38.5696 58.5606 39.5696 58.7706 40.0696 59.5106C40.5696 60.2606 40.3596 61.2606 39.6196 61.7606L37.0496 63.4706C36.2996 63.9706 35.2996 63.7606 34.7996 63.0206C34.7196 62.9006 34.6596 62.7706 34.6096 62.6406Z" fill="#432918"/>
<path d="M34.6096 62.6406C34.5296 62.4106 34.5096 62.1606 34.5396 61.9006L34.9796 58.8506C35.1096 57.9606 35.9296 57.3506 36.8196 57.4706C37.7096 57.6006 38.3196 58.4206 38.1996 59.3106L37.7596 62.3606C37.6296 63.2506 36.8096 63.8606 35.9196 63.7406C35.2896 63.6506 34.7996 63.2106 34.6096 62.6506V62.6406Z" fill="#432918"/>
<path d="M98.57 182.14C98.08 182.14 97.59 181.99 97.17 181.67L92.71 178.32C91.89 177.71 91.57 176.64 91.91 175.67C98.89 155.77 89.13 142.99 88.71 142.45C87.91 141.44 88.09 139.97 89.1 139.17C90.11 138.37 91.58 138.54 92.38 139.55C92.85 140.15 103.64 154.08 96.87 175.59L99.98 177.93C101.01 178.71 101.22 180.17 100.44 181.21C99.98 181.82 99.28 182.14 98.57 182.14Z" fill="#432918"/>
<path d="M46.5101 183.281C45.8001 183.281 45.1001 182.961 44.6401 182.351C43.8601 181.321 44.0701 179.851 45.1101 179.071L48.2201 176.731C41.4401 155.221 52.2301 141.291 52.7101 140.691C53.5101 139.681 54.9901 139.511 56.0001 140.311C57.0101 141.111 57.1801 142.581 56.3801 143.591C55.9601 144.121 46.2001 156.901 53.1801 176.811C53.5201 177.771 53.1901 178.841 52.3801 179.461L47.9201 182.811C47.5001 183.131 47.0101 183.281 46.5201 183.281H46.5101Z" fill="#432918"/>
<path d="M30.2601 141.44C26.7401 141.44 23.6101 141.12 20.7101 140.47L17.4301 140H17.3901C13.6501 139.15 11.1301 137.38 9.90006 134.71C7.82006 130.21 9.93006 124.38 12.0801 120.27C12.7601 118.73 13.4901 117.15 14.3201 115.45C16.2501 111.49 18.3401 107.57 20.3701 103.78C24.0101 96.9603 27.7801 89.9203 30.5501 82.6303C31.2301 81.0603 31.8901 79.5303 32.5701 78.0003C37.1801 67.5803 43.3401 54.1403 50.0901 42.5403C50.4901 41.6403 51.9801 38.2003 51.9801 38.2003C56.3801 28.1403 60.8601 18.3203 67.2101 8.84025C67.9501 7.36025 68.3501 6.56025 68.3501 6.56025C70.6301 1.95025 73.7101 1.26025 75.3401 1.26025C76.9701 1.26025 80.0601 1.95025 82.3301 6.56025L83.3301 8.58025C83.9301 9.79025 84.7801 11.5203 85.8501 13.6703C94.3401 28.0803 101.3 42.1703 107.12 56.7403L113.66 69.9803C114.26 71.1903 114.86 72.4103 115.46 73.6103C126.28 88.3603 133.27 102.51 138.81 120.89L140.14 123.59L141.3 125.94C142.94 129.25 142.96 132.49 141.36 135.07C139.76 137.64 136.84 139.06 133.15 139.06H130.94C121.86 139.3 112.71 139.42 103.75 139.42C94.7901 139.42 85.6401 139.3 76.5401 139.06H58.2101C53.7301 139.22 49.2601 139.75 44.9401 140.26C39.8401 140.86 35.0301 141.43 30.2401 141.43L30.2601 141.44Z" fill="#FFD651"/>
<path d="M75.3498 2.32043C76.7398 2.32043 79.3698 2.93043 81.3898 7.03043C81.3898 7.03043 81.7198 7.69043 82.3198 8.91043C82.9198 10.1304 83.8098 11.9204 84.9298 14.1704C93.0798 28.0004 100.21 42.2504 106.16 57.1704C106.71 58.2804 107.25 59.3804 107.79 60.4704C109.43 63.7904 111.08 67.1304 112.72 70.4504C113.34 71.6904 113.95 72.9304 114.57 74.1704C125.16 88.5904 132.29 102.84 137.84 121.29C138.37 122.38 138.83 123.31 139.21 124.07C139.96 125.59 140.37 126.42 140.37 126.42C141.84 129.39 141.88 132.27 140.48 134.52C139.08 136.77 136.49 138.01 133.17 138.01H130.96C121.82 138.25 112.8 138.37 103.77 138.37C94.7398 138.37 85.7198 138.25 76.5798 138.01H58.2298C48.4598 138.36 39.1298 140.38 30.2498 140.38C27.0698 140.38 23.9498 140.12 20.8998 139.43C18.7898 139.12 17.6198 138.96 17.6198 138.96C7.54982 136.7 9.32982 127.79 13.0298 120.74C13.7498 119.12 14.4998 117.51 15.2698 115.93C20.6798 104.81 27.2098 94.4104 31.5298 83.0204C32.1898 81.4904 32.8498 79.9704 33.5298 78.4404C38.9398 66.2404 44.7498 53.8204 51.0298 43.0304C51.6798 41.5604 52.3098 40.0904 52.9498 38.6404C57.4098 28.4504 61.8998 18.6804 68.1298 9.39043C68.8898 7.87043 69.2998 7.04043 69.2998 7.04043C71.3298 2.94043 73.9598 2.33043 75.3498 2.33043M75.3498 0.21043C73.4698 0.21043 69.9398 0.98043 67.4098 6.10043C67.4098 6.10043 67.0198 6.88043 66.2998 8.32043C59.9198 17.8604 55.4298 27.7004 51.0098 37.7904L50.2898 39.4304C49.9098 40.3104 49.5298 41.1904 49.1398 42.0704C42.3798 53.7104 36.2098 67.1604 31.5998 77.5904C30.9498 79.0604 30.2698 80.6104 29.5898 82.1904L29.5698 82.2304L29.5498 82.2704C26.8098 89.4904 23.2298 96.2004 19.4298 103.3C17.3998 107.1 15.2998 111.03 13.3598 115C12.5298 116.7 11.7998 118.28 11.1198 119.82C8.85982 124.14 6.66982 130.28 8.92982 135.16C10.3098 138.14 13.0798 140.12 17.1498 141.03L17.2298 141.05H17.3098L20.5098 141.52C23.4698 142.18 26.6598 142.5 30.2498 142.5C35.0998 142.5 39.9498 141.93 45.0798 141.32C49.3698 140.81 53.8098 140.29 58.2698 140.13H76.5598C85.6598 140.37 94.8198 140.49 103.77 140.49C112.72 140.49 121.88 140.37 130.98 140.13H133.16C137.23 140.13 140.47 138.54 142.27 135.64C144.07 132.74 144.06 129.14 142.26 125.48L141.1 123.13C140.74 122.41 140.31 121.53 139.81 120.51C134.32 102.32 127.08 87.6704 116.38 73.0604C115.79 71.8804 115.2 70.7004 114.62 69.5104L113.71 67.6604C112.37 64.9504 111.03 62.2304 109.7 59.5304L108.77 57.6504L108.11 56.3004C102.28 41.7004 95.3098 27.5904 86.8098 13.1504C85.7498 11.0204 84.8998 9.31043 84.3098 8.10043L84.2398 7.96043L83.3098 6.08043C80.7798 0.95043 77.2498 0.19043 75.3698 0.19043L75.3498 0.21043Z" fill="#432918"/>
<g style="mix-blend-mode:multiply">
<path d="M140.37 126.421C140.37 126.421 139.96 125.591 139.21 124.071C138.84 123.311 138.38 122.381 137.84 121.291C132.29 102.841 125.16 88.5906 114.57 74.1706C113.95 72.9306 113.34 71.6906 112.72 70.4506C111.08 67.1306 109.43 63.7806 107.79 60.4706C107.25 59.3806 106.71 58.2806 106.16 57.1706C100.21 42.2506 93.0799 28.0006 84.9299 14.1706C83.8099 11.9206 82.9299 10.1306 82.3199 8.91057C81.7199 7.69057 81.3899 7.03057 81.3899 7.03057C79.9699 4.16057 78.2599 3.01057 76.8899 2.58057C75.3899 46.4906 106.75 101.801 80.9399 138.101C97.6999 138.471 114.14 138.451 130.96 138.011H133.17C136.48 138.011 139.08 136.771 140.48 134.521C141.88 132.271 141.84 129.401 140.37 126.421Z" fill="#FFD651"/>
</g>
<path d="M129.64 131.321C127.09 131.321 123.86 130.711 121.02 130.171C118.97 129.781 117.03 129.411 115.98 129.411C115.74 129.411 115.62 129.431 115.57 129.441L115.45 129.471H52.7998C49.7998 129.161 46.4798 129.001 43.1998 129.001C39.9198 129.001 36.9898 129.151 34.4398 129.441H34.3798L31.4498 129.461L31.3298 129.431C30.5198 129.241 28.5598 129.151 26.4898 129.051C19.3598 128.711 16.3698 128.371 16.2498 126.491C15.2798 121.381 19.2398 116.641 22.7398 112.461C24.5598 110.281 26.2798 108.221 27.1898 106.311C27.8498 104.931 28.6098 103.511 29.4598 102.071C29.9698 99.7207 30.2598 97.7207 30.5498 95.7807C31.3198 90.5607 31.9898 86.0607 36.2198 77.3407C36.4898 76.7807 37.7398 74.8007 40.1098 71.0607C44.2598 64.5107 50.5398 54.6207 53.1698 49.4607C54.0098 47.8207 54.8698 46.2507 55.7398 44.8007C56.5398 43.4607 57.3398 42.0107 58.0098 40.7607C59.6398 37.3907 59.5598 32.7807 59.4798 28.3207C59.3798 22.7607 59.2698 17.0207 62.3798 12.8807L62.4198 12.8207L62.4698 12.7707C64.6298 10.6107 67.6298 9.43066 70.9398 9.43066C76.2098 9.43066 81.0698 12.3407 83.3198 16.8407C84.6698 19.5307 86.5898 22.0907 88.4598 24.5707C91.6498 28.8107 94.9498 33.1907 95.6798 38.5507C96.7398 46.3107 98.4398 54.5107 103.73 61.9207C108.3 68.3207 111.23 75.6607 114.07 82.7507C114.58 84.0307 115.09 85.3007 115.61 86.5807C117.35 90.8407 119.52 95.8207 122.37 100.401L122.4 100.451L122.43 100.511C123.21 102.171 123.87 103.741 124.44 105.321C125.2 107.431 126.79 110.011 128.48 112.741C131.76 118.051 135.48 124.071 134.47 129.131L134.44 129.271L134.38 129.401C133.41 131.341 130.57 131.341 129.63 131.341L129.64 131.321Z" fill="#FFF599"/>
<path d="M70.9598 10.4906C75.4998 10.4906 80.2098 12.9406 82.3998 17.3106C86.0798 24.6606 93.5398 30.5106 94.6498 38.6906C95.8798 47.7006 97.8198 55.4406 102.89 62.5306C108.19 69.9606 111.23 78.5906 114.65 86.9706C116.62 91.7806 118.74 96.5306 121.49 100.951C122.22 102.501 122.88 104.071 123.46 105.661C125.74 112.041 134.87 121.781 133.45 128.911C132.95 129.911 131.52 130.261 129.65 130.261C125.3 130.261 118.61 128.351 115.98 128.351C115.72 128.351 115.51 128.371 115.34 128.411H52.8998C49.7898 128.101 46.4398 127.941 43.1898 127.941C39.9398 127.941 36.9398 128.091 34.3098 128.381C32.5498 128.381 31.5598 128.381 31.5598 128.381C28.9198 127.771 17.2998 128.141 17.2998 126.351C15.8698 119.221 25.3598 112.591 28.1398 106.751C28.8398 105.291 29.6098 103.861 30.4598 102.451C32.3698 93.7306 31.3798 89.7306 37.1698 77.7906C37.9398 76.1906 50.1398 57.7306 54.1198 49.9306C54.9198 48.3706 55.7598 46.8306 56.6598 45.3306C57.4298 44.0506 58.1798 42.6906 58.9598 41.2606C62.7998 33.3406 57.8998 20.6406 63.2398 13.5206C65.2998 11.4606 68.0998 10.4906 70.9598 10.4906ZM70.9598 8.37061C67.3698 8.37061 64.0998 9.67061 61.7398 12.0206L61.6298 12.1306L61.5398 12.2506C58.2198 16.6806 58.3298 22.6106 58.4298 28.3406C58.5098 32.8506 58.5898 37.1106 57.0698 40.3006C56.4098 41.5306 55.6198 42.9506 54.8398 44.2506C53.9598 45.7306 53.0798 47.3206 52.2398 48.9806C49.6298 54.1006 43.3698 63.9706 39.2198 70.5006C36.6898 74.4806 35.5598 76.2706 35.2698 76.8806C30.9698 85.7506 30.2598 90.5506 29.5098 95.6306C29.2298 97.5106 28.9498 99.4406 28.4698 101.691C27.6398 103.101 26.8898 104.511 26.2398 105.861C25.3898 107.651 23.7098 109.661 21.9298 111.791C18.2998 116.141 14.1798 121.061 15.1998 126.641C15.4198 129.051 18.6698 129.471 20.0798 129.651C21.9498 129.891 24.3398 130.011 26.4498 130.111C28.2898 130.201 30.3898 130.301 31.0998 130.461L31.3398 130.511H31.5798H34.3298H34.4498L34.5698 130.501C37.0798 130.221 40.0698 130.071 43.2098 130.071C46.3498 130.071 49.7398 130.231 52.6998 130.531H52.8098L52.9198 130.541H115.58L115.81 130.491C115.81 130.491 115.88 130.491 115.98 130.491C116.93 130.491 118.82 130.851 120.82 131.231C123.71 131.781 126.99 132.401 129.64 132.401C130.74 132.401 134.07 132.401 135.33 129.881L135.46 129.631L135.52 129.351C136.61 123.881 132.78 117.671 129.39 112.191C127.73 109.511 126.17 106.981 125.45 104.971C124.87 103.361 124.2 101.761 123.4 100.071L123.35 99.9606L123.29 99.8606C120.48 95.3406 118.34 90.4206 116.61 86.2006C116.09 84.9306 115.58 83.6606 115.07 82.3806C112.21 75.2306 109.26 67.8306 104.61 61.3306C99.4498 54.1106 97.7898 46.0606 96.7498 38.4306C95.9798 32.7906 92.5998 28.3006 89.3298 23.9506C87.4098 21.4006 85.5998 18.9906 84.2898 16.3806C81.8598 11.5306 76.6298 8.3906 70.9598 8.3906V8.37061Z" fill="#432918"/>
<g style="mix-blend-mode:multiply">
<path d="M123.45 105.661C122.88 104.071 122.22 102.501 121.48 100.951C118.73 96.5305 116.61 91.7805 114.64 86.9705C111.22 78.5905 108.18 69.9605 102.88 62.5305C97.8202 55.4405 95.8702 47.7005 94.6402 38.6905C93.6702 31.5405 87.8402 26.1705 83.9302 20.0205C85.0002 48.3905 102.6 75.7605 98.4202 106.411C96.7902 114.581 93.8102 121.741 90.1302 128.421H115.32C118.02 127.801 131.65 132.481 133.43 128.921C134.86 121.791 125.73 112.051 123.44 105.671L123.45 105.661Z" fill="#FFF599"/>
</g>
<path d="M90.3196 43.2404C86.9996 43.2404 83.5596 41.3603 81.1196 38.2104C79.3196 35.8904 78.3096 33.1804 78.2596 30.5604C78.2096 27.8304 79.2096 25.5304 81.0796 24.0804C82.3196 23.1204 83.8696 22.6104 85.5596 22.6104C88.8796 22.6104 92.3196 24.4904 94.7596 27.6304C98.5396 32.5004 98.5496 38.8404 94.7896 41.7604C93.5496 42.7204 91.9996 43.2304 90.3096 43.2304L90.3196 43.2404Z" fill="#E84242"/>
<path d="M85.5698 23.6705C88.4298 23.6705 91.6398 25.3205 93.9298 28.2805C97.3498 32.7005 97.4597 38.3605 94.1497 40.9205C93.0597 41.7705 91.7298 42.1705 90.3198 42.1705C87.4598 42.1705 84.2598 40.5205 81.9598 37.5605C78.5298 33.1405 78.4298 27.4805 81.7398 24.9205C82.8298 24.0705 84.1598 23.6705 85.5698 23.6705ZM85.5698 21.5505C83.6398 21.5505 81.8698 22.1405 80.4397 23.2405C78.2997 24.9005 77.1498 27.5005 77.2098 30.5805C77.2598 33.4205 78.3498 36.3605 80.2898 38.8605C82.9298 42.2605 86.6798 44.2905 90.3198 44.2905C92.2498 44.2905 94.0198 43.7005 95.4498 42.6005C99.6698 39.3205 99.7398 32.3205 95.6098 26.9805C92.9698 23.5805 89.2198 21.5405 85.5698 21.5405V21.5505Z" fill="#432918"/>
<g style="mix-blend-mode:multiply">
<path d="M93.9296 28.2904C91.0896 24.6304 86.8696 23.0004 83.6196 24.0004C85.1396 24.7804 86.5996 25.9504 87.8096 27.5104C91.2296 31.9304 91.3396 37.5904 88.0296 40.1504C87.4596 40.5904 86.8196 40.8604 86.1496 41.0704C88.9596 42.5204 92.0096 42.5904 94.1496 40.9304C97.4496 38.3604 97.3496 32.7104 93.9296 28.2904Z" fill="#E84242"/>
</g>
<path d="M31.9804 120.14C31.0904 120.14 30.2304 119.98 29.4204 119.65C25.0004 117.89 23.2604 111.79 25.5504 106.06C27.3804 101.47 31.2404 98.3804 35.1504 98.3804C36.0404 98.3804 36.9004 98.5404 37.7104 98.8704C39.9104 99.7404 41.5104 101.68 42.2204 104.32C42.9004 106.85 42.6704 109.74 41.5904 112.46C39.7604 117.06 35.9004 120.14 31.9904 120.14H31.9804Z" fill="#E84242"/>
<path d="M35.1502 99.4505C35.8902 99.4505 36.6202 99.5805 37.3202 99.8605C41.2102 101.411 42.6702 106.881 40.6002 112.071C38.9002 116.331 35.3502 119.081 31.9802 119.081C31.2402 119.081 30.5102 118.951 29.8102 118.671C25.9302 117.121 24.4602 111.651 26.5302 106.461C28.2302 102.201 31.7802 99.4505 35.1402 99.4405M35.1402 97.3205C30.8002 97.3205 26.5502 100.681 24.5602 105.671C22.0602 111.941 24.0602 118.651 29.0202 120.631C29.9602 121.001 30.9502 121.191 31.9702 121.191C36.3102 121.191 40.5602 117.841 42.5602 112.841C43.7302 109.901 43.9702 106.771 43.2302 104.031C42.4302 101.061 40.6102 98.8805 38.0902 97.8705C37.1602 97.5005 36.1602 97.3105 35.1402 97.3105V97.3205Z" fill="#432918"/>
<g style="mix-blend-mode:multiply">
<path d="M38.29 100.411C39.2 102.771 39.2 105.801 38.02 108.761C35.95 113.951 31.12 116.911 27.24 115.371C26.89 115.231 26.58 115.021 26.27 114.821C26.96 116.601 28.15 118.021 29.82 118.681C33.7 120.231 38.53 117.271 40.6 112.081C42.48 107.361 41.42 102.441 38.3 100.421L38.29 100.411Z" fill="#E84242"/>
</g>
<path d="M61.6896 48.0301C61.2796 48.0301 60.8896 47.9601 60.5196 47.8101C58.5496 47.0301 57.7796 44.5001 58.7496 42.0501C59.5096 40.1401 61.1496 38.8701 62.8296 38.8701C63.2396 38.8701 63.6296 38.9401 63.9996 39.0901C65.9696 39.8701 66.7396 42.4001 65.7696 44.8501C65.0096 46.7601 63.3696 48.0301 61.6896 48.0301Z" fill="#64B553"/>
<path d="M62.8299 39.9203C63.0899 39.9203 63.3599 39.9703 63.6099 40.0703C64.9999 40.6303 65.5299 42.5903 64.7899 44.4503C64.1799 45.9803 62.9099 46.9703 61.6999 46.9703C61.4299 46.9703 61.1699 46.9203 60.9199 46.8203C59.5299 46.2603 58.9999 44.3003 59.7399 42.4403C60.3499 40.9103 61.6199 39.9203 62.8299 39.9203ZM62.8299 37.8003C60.7199 37.8003 58.6899 39.3503 57.7699 41.6503C56.5799 44.6503 57.6099 47.7803 60.1299 48.7903C60.6299 48.9903 61.1499 49.0903 61.6899 49.0903C63.7999 49.0903 65.8299 47.5403 66.7499 45.2403C67.9399 42.2403 66.9099 39.1103 64.3899 38.1003C63.8899 37.9003 63.3699 37.8003 62.8299 37.8003Z" fill="#432918"/>
<g style="mix-blend-mode:multiply">
<path d="M63.76 40.1602C62.99 42.4902 61.7 44.5402 60.02 46.1402C60.26 46.4402 60.56 46.6802 60.91 46.8202C62.3 47.3802 64.04 46.3102 64.78 44.4502C65.49 42.6602 65.03 40.8002 63.76 40.1602Z" fill="#64B553"/>
</g>
<path d="M103.27 88.5706C102.86 88.5706 102.47 88.5006 102.1 88.3506C100.13 87.5606 99.3597 85.0306 100.33 82.5906C101.09 80.6906 102.73 79.4106 104.4 79.4106C104.81 79.4106 105.2 79.4806 105.57 79.6306C107.54 80.4106 108.31 82.9506 107.34 85.3906C106.58 87.2906 104.94 88.5706 103.26 88.5706H103.27Z" fill="#64B553"/>
<path d="M104.41 80.4606C104.68 80.4606 104.94 80.5106 105.19 80.6106C106.58 81.1706 107.11 83.1306 106.37 84.9906C105.76 86.5206 104.49 87.5106 103.28 87.5106C103.02 87.5106 102.75 87.4606 102.5 87.3606C101.11 86.8006 100.58 84.8406 101.32 82.9806C101.93 81.4506 103.2 80.4606 104.41 80.4606ZM104.41 78.3406C102.3 78.3406 100.27 79.8906 99.3499 82.1906C98.1599 85.1806 99.1899 88.3206 101.71 89.3206C102.21 89.5206 102.73 89.6206 103.27 89.6206C105.38 89.6206 107.41 88.0706 108.33 85.7706C109.52 82.7706 108.49 79.6406 105.97 78.6306C105.47 78.4306 104.95 78.3306 104.41 78.3306V78.3406Z" fill="#432918"/>
<g style="mix-blend-mode:multiply">
<path d="M105.18 80.6105C104.99 80.5405 104.8 80.5005 104.61 80.4805C103.9 82.6805 102.78 84.6305 101.25 86.0705C101.5 86.6705 101.92 87.1405 102.49 87.3605C103.88 87.9205 105.62 86.8505 106.36 84.9905C107.1 83.1205 106.58 81.1605 105.18 80.6105Z" fill="#64B553"/>
</g>
<path d="M71.9396 24.7303C71.5296 24.7303 71.1396 24.6503 70.7696 24.5103C68.7996 23.7303 68.0296 21.2003 68.9996 18.7503C69.7596 16.8403 71.3996 15.5703 73.0796 15.5703C73.4796 15.5703 73.8796 15.6403 74.2496 15.7903C76.2196 16.5703 76.9896 19.1103 76.0196 21.5503C75.2596 23.4603 73.6196 24.7303 71.9396 24.7303Z" fill="#64B553"/>
<path d="M73.0799 16.6303C73.3399 16.6303 73.6099 16.6803 73.8599 16.7803C75.2499 17.3403 75.7799 19.3003 75.0399 21.1603C74.4299 22.6903 73.1599 23.6803 71.9499 23.6803C71.6799 23.6803 71.4199 23.6303 71.1699 23.5303C69.7799 22.9703 69.2499 21.0103 69.9899 19.1503C70.5999 17.6203 71.8799 16.6303 73.0799 16.6303ZM73.0799 14.5103C70.9699 14.5103 68.9399 16.0603 68.0199 18.3603C66.8299 21.3603 67.8599 24.4903 70.3799 25.5003C70.8799 25.7003 71.3999 25.8003 71.9399 25.8003C74.0499 25.8003 76.0799 24.2503 76.9999 21.9503C78.1899 18.9503 77.1599 15.8203 74.6399 14.8103C74.1399 14.6103 73.6199 14.5103 73.0799 14.5103Z" fill="#432918"/>
<g style="mix-blend-mode:multiply">
<path d="M73.8597 16.7704C73.2697 16.5404 72.6297 16.6004 72.0297 16.8804C71.8997 18.9504 70.9697 20.3904 69.7197 21.4804C69.8797 22.4304 70.3797 23.2104 71.1697 23.5304C72.5597 24.0904 74.2997 23.0204 75.0397 21.1604C75.7797 19.2904 75.2597 17.3304 73.8597 16.7804V16.7704Z" fill="#64B553"/>
</g>
<path d="M35.8598 93.2401C35.4498 93.2401 35.0598 93.1701 34.6898 93.0201C33.7098 92.6301 32.9798 91.7501 32.6698 90.6101C32.3898 89.5601 32.4798 88.3701 32.9198 87.2601C33.6798 85.3601 35.3198 84.0801 36.9998 84.0801C37.3998 84.0801 37.7998 84.1501 38.1698 84.3001C40.1398 85.0901 40.9098 87.6201 39.9398 90.0601C39.1798 91.9601 37.5398 93.2401 35.8598 93.2401Z" fill="#64B553"/>
<path d="M36.9998 85.1303C37.2598 85.1303 37.5298 85.1803 37.7798 85.2803C39.1698 85.8403 39.6998 87.8003 38.9598 89.6603C38.3498 91.1903 37.0798 92.1803 35.8698 92.1803C35.6098 92.1803 35.3398 92.1303 35.0898 92.0303C33.6998 91.4703 33.1698 89.5103 33.9098 87.6503C34.5198 86.1203 35.7898 85.1303 36.9998 85.1303ZM36.9998 83.0103C34.8898 83.0103 32.8598 84.5603 31.9398 86.8603C31.4098 88.1803 31.3098 89.6103 31.6498 90.8803C32.0398 92.3503 33.0098 93.4803 34.2998 94.0003C34.7998 94.2003 35.3198 94.3003 35.8598 94.3003C37.9698 94.3003 39.9998 92.7503 40.9198 90.4503C42.1098 87.4503 41.0798 84.3203 38.5598 83.3103C38.0598 83.1103 37.5398 83.0103 36.9998 83.0103Z" fill="#432918"/>
<g style="mix-blend-mode:multiply">
<path d="M37.9295 85.3604C37.4295 87.6504 35.9695 89.5704 34.2695 91.4304C34.4895 91.6904 34.7595 91.9003 35.0795 92.0303C36.4695 92.5903 38.2095 91.5203 38.9495 89.6603C39.6595 87.8703 39.1995 86.0004 37.9295 85.3604Z" fill="#64B553"/>
</g>
<path d="M97.55 121.6C97.14 121.6 96.75 121.53 96.38 121.38C94.41 120.6 93.64 118.07 94.61 115.62C95.37 113.72 97.01 112.44 98.69 112.44C99.09 112.44 99.49 112.51 99.86 112.66C101.83 113.44 102.61 115.97 101.63 118.42C100.87 120.33 99.23 121.6 97.55 121.6Z" fill="#64B553"/>
<path d="M98.6902 113.491C98.9502 113.491 99.2202 113.541 99.4702 113.641C100.86 114.201 101.39 116.161 100.65 118.021C100.04 119.551 98.7602 120.541 97.5602 120.541C97.3002 120.541 97.0302 120.491 96.7802 120.391C95.3902 119.831 94.8602 117.871 95.6002 116.011C96.2102 114.481 97.4802 113.491 98.6902 113.491ZM98.6902 111.371C96.5802 111.371 94.5502 112.921 93.6302 115.221C92.4402 118.221 93.4702 121.351 95.9902 122.361C96.4902 122.561 97.0102 122.661 97.5502 122.661C99.6602 122.661 101.69 121.111 102.61 118.811C103.8 115.811 102.77 112.681 100.25 111.671C99.7502 111.471 99.2302 111.371 98.6902 111.371Z" fill="#432918"/>
<g style="mix-blend-mode:multiply">
<path d="M99.4603 113.641C99.2203 113.541 98.9703 113.511 98.7203 113.511C98.4603 115.811 97.2203 117.491 95.3403 118.441C95.5103 119.351 96.0103 120.091 96.7803 120.401C98.1703 120.961 99.9103 119.891 100.65 118.031C101.39 116.161 100.87 114.201 99.4703 113.651L99.4603 113.641Z" fill="#64B553"/>
</g>
<path d="M50.7297 119.42C50.3197 119.42 49.9297 119.35 49.5597 119.2C47.5897 118.41 46.8197 115.89 47.7897 113.44C48.5497 111.53 50.1897 110.25 51.8697 110.25C52.2797 110.25 52.6697 110.32 53.0397 110.47C55.0097 111.25 55.7797 113.78 54.8097 116.23C54.0497 118.14 52.4097 119.41 50.7297 119.41V119.42Z" fill="#64B553"/>
<path d="M51.8699 111.31C52.1399 111.31 52.3999 111.36 52.6499 111.46C54.0399 112.02 54.5699 113.98 53.8299 115.84C53.2199 117.37 51.9399 118.36 50.7399 118.36C50.4799 118.36 50.2099 118.31 49.9599 118.21C48.5699 117.65 48.0399 115.69 48.7799 113.83C49.3899 112.3 50.6599 111.31 51.8699 111.31ZM51.8699 109.19C49.7599 109.19 47.7299 110.74 46.8099 113.04C45.6199 116.04 46.6499 119.17 49.1699 120.18C49.6699 120.38 50.1899 120.48 50.7299 120.48C52.8399 120.48 54.8699 118.93 55.7899 116.63C56.9799 113.63 55.9499 110.5 53.4299 109.49C52.9299 109.29 52.4099 109.19 51.8699 109.19Z" fill="#432918"/>
<g style="mix-blend-mode:multiply">
<path d="M53.3498 111.94C52.5798 114.19 51.0298 116.16 49.0498 117.5C49.2898 117.81 49.5898 118.06 49.9498 118.2C51.3398 118.76 53.0798 117.69 53.8198 115.83C54.4198 114.33 54.1798 112.78 53.3498 111.94Z" fill="#64B553"/>
</g>
<path d="M71.9396 70.9002C71.5296 70.9002 71.1396 70.8202 70.7696 70.6802C68.7996 69.9002 68.0296 67.3702 68.9996 64.9202C69.7596 63.0202 71.3996 61.7402 73.0796 61.7402C73.4896 61.7402 73.8796 61.8102 74.2496 61.9602C76.2196 62.7402 76.9896 65.2702 76.0196 67.7202C75.2596 69.6202 73.6196 70.9002 71.9396 70.9002Z" fill="#64B553"/>
<path d="M73.0799 62.7904C73.3399 62.7904 73.6099 62.8404 73.8599 62.9404C75.2499 63.5004 75.7799 65.4604 75.0399 67.3204C74.4299 68.8504 73.1599 69.8404 71.9499 69.8404C71.6899 69.8404 71.4199 69.7904 71.1699 69.6904C69.7799 69.1304 69.2499 67.1704 69.9899 65.3104C70.5999 63.7804 71.8699 62.7904 73.0799 62.7904ZM73.0799 60.6704C70.9699 60.6704 68.9399 62.2204 68.0199 64.5204C66.8299 67.5204 67.8599 70.6504 70.3799 71.6604C70.8799 71.8604 71.3999 71.9604 71.9399 71.9604C74.0499 71.9604 76.0799 70.4104 76.9999 68.1104C78.1899 65.1104 77.1599 61.9804 74.6399 60.9704C74.1399 60.7704 73.6199 60.6704 73.0799 60.6704Z" fill="#432918"/>
<g style="mix-blend-mode:multiply">
<path d="M74.5598 63.4302C73.7898 65.6802 72.2298 67.6502 70.2598 68.9902C70.4998 69.3002 70.7998 69.5402 71.1598 69.6902C72.5498 70.2502 74.2898 69.1802 75.0298 67.3202C75.6298 65.8202 75.3898 64.2702 74.5598 63.4302Z" fill="#64B553"/>
</g>
<path d="M93.6804 76.6205C90.3604 76.6205 86.9204 74.7405 84.4804 71.6005C80.7004 66.7305 80.6804 60.3905 84.4404 57.4705C85.6804 56.5105 87.2304 56.0005 88.9204 56.0005C92.2404 56.0005 95.6804 57.8805 98.1204 61.0205C101.9 65.8905 101.91 72.2305 98.1504 75.1505C96.9104 76.1105 95.3604 76.6205 93.6704 76.6205H93.6804Z" fill="#E84242"/>
<path d="M88.9201 57.0607C91.7801 57.0607 94.9901 58.7107 97.2801 61.6707C100.7 66.0907 100.81 71.7507 97.5001 74.3107C96.4101 75.1607 95.0801 75.5607 93.6701 75.5607C90.8101 75.5607 87.6101 73.9107 85.3101 70.9507C81.8801 66.5307 81.7801 60.8707 85.0901 58.3107C86.1801 57.4607 87.5101 57.0607 88.9201 57.0607ZM88.9201 54.9407C86.9901 54.9407 85.2201 55.5307 83.7901 56.6307C79.5701 59.9007 79.5001 66.9107 83.6401 72.2407C86.2801 75.6407 90.0301 77.6707 93.6801 77.6707C95.6001 77.6707 97.3801 77.0907 98.8101 75.9807C103.03 72.7007 103.1 65.7007 98.9701 60.3607C96.3301 56.9607 92.5801 54.9307 88.9301 54.9307L88.9201 54.9407Z" fill="#432918"/>
<g style="mix-blend-mode:multiply">
<path d="M97.29 61.6704C95.62 59.5204 93.48 58.0804 91.34 57.4404C92.03 58.0204 92.69 58.6604 93.28 59.4204C96.71 63.8404 96.81 69.5004 93.5 72.0604C91.8 73.3804 89.53 73.6004 87.27 72.9304C90.58 75.7304 94.78 76.4304 97.51 74.3104C100.81 71.7504 100.71 66.0904 97.29 61.6704Z" fill="#E84242"/>
</g>
<path d="M62.7701 136.51C61.1301 136.51 59.6101 136.02 58.3801 135.1C54.5801 132.23 54.5201 125.89 58.2301 120.97C60.6201 117.8 64.1601 115.83 67.4701 115.83C69.1201 115.83 70.6301 116.32 71.8601 117.24C73.7501 118.66 74.7801 120.95 74.7701 123.68C74.7601 126.3 73.7801 129.02 72.0101 131.37C69.6101 134.54 66.0701 136.51 62.7701 136.51Z" fill="#E84242"/>
<path d="M67.4699 116.89C68.8499 116.89 70.1399 117.28 71.2199 118.09C74.5599 120.61 74.5299 126.27 71.1599 130.73C68.8799 133.75 65.6499 135.45 62.7599 135.45C61.3899 135.45 60.0899 135.06 59.0099 134.25C55.6699 131.73 55.6999 126.07 59.0699 121.6C61.3499 118.58 64.5799 116.88 67.4599 116.88M67.4599 114.76C63.7699 114.76 59.9999 116.84 57.3799 120.32C53.3099 125.71 53.4699 132.71 57.7299 135.93C59.1399 136.99 60.8799 137.56 62.7599 137.56C66.4499 137.56 70.2199 135.48 72.8499 132C74.7499 129.48 75.8099 126.52 75.8199 123.68C75.8299 120.61 74.6499 118.02 72.4899 116.39C71.0799 115.33 69.3399 114.76 67.4699 114.76H67.4599Z" fill="#432918"/>
<path d="M48.9697 81.5303C48.1497 81.5303 47.3497 81.3903 46.5997 81.1103C44.1497 80.2103 42.3797 77.9903 41.6197 74.8503C40.8997 71.8703 41.1797 68.3803 42.4097 65.0203C44.5697 59.1403 49.1797 55.0303 53.6297 55.0303C54.4497 55.0303 55.2497 55.1703 55.9997 55.4503C58.4497 56.3503 60.2197 58.5703 60.9797 61.7103C61.6997 64.6903 61.4197 68.1803 60.1897 71.5403C58.0297 77.4203 53.4197 81.5203 48.9697 81.5203V81.5303Z" fill="#E84242"/>
<path d="M53.6299 56.1002C54.3099 56.1002 54.9899 56.2102 55.6399 56.4502C59.9999 58.0502 61.5999 64.6402 59.1999 71.1802C57.1599 76.7402 52.8899 80.4702 48.9699 80.4702C48.2899 80.4702 47.6099 80.3602 46.9599 80.1202C42.5999 78.5202 40.9999 71.9302 43.3999 65.3902C45.4399 59.8302 49.7099 56.1002 53.6299 56.1002ZM53.6299 53.9802C48.7399 53.9802 43.7199 58.3702 41.4099 64.6602C40.1099 68.2102 39.8199 71.9202 40.5899 75.1002C41.4299 78.5902 43.4399 81.0802 46.2299 82.1002C47.0999 82.4202 48.0199 82.5802 48.9599 82.5802C53.8499 82.5802 58.8699 78.1902 61.1799 71.9002C62.4799 68.3502 62.7699 64.6402 61.9999 61.4502C61.1599 57.9602 59.1499 55.4702 56.3499 54.4502C55.4799 54.1302 54.5599 53.9702 53.6099 53.9702L53.6299 53.9802Z" fill="#432918"/>
<g style="mix-blend-mode:multiply">
<path d="M58.2799 58.4102C58.9699 61.1002 58.7899 64.4402 57.5699 67.7802C55.1699 74.3102 49.6999 78.3102 45.3299 76.7202C44.2799 76.3402 43.3999 75.6602 42.6899 74.7702C43.3499 77.3602 44.8199 79.3502 46.9599 80.1402C51.3199 81.7402 56.7999 77.7402 59.1999 71.2002C61.0199 66.2302 60.5299 61.2402 58.2799 58.4202V58.4102Z" fill="#E84242"/>
</g>
<path d="M118.9 118.83C113.95 118.83 108.8 114.27 106.37 107.74C103.43 99.8603 105.47 91.7903 110.91 89.7603C111.76 89.4403 112.65 89.2803 113.58 89.2803C118.52 89.2803 123.68 93.8403 126.12 100.38C129.06 108.26 127.02 116.33 121.57 118.36C120.72 118.68 119.83 118.84 118.9 118.84V118.83Z" fill="#E84242"/>
<path d="M113.58 90.3502C117.98 90.3502 122.8 94.5202 125.12 100.76C127.86 108.11 126.1 115.54 121.2 117.37C120.46 117.65 119.69 117.78 118.9 117.78C114.5 117.78 109.68 113.61 107.36 107.38C104.62 100.03 106.37 92.5902 111.28 90.7602C112.02 90.4802 112.79 90.3502 113.58 90.3502ZM113.58 88.2302C112.53 88.2302 111.51 88.4102 110.54 88.7702C104.45 91.0402 102.18 99.5402 105.38 108.11C107.96 115.05 113.53 119.89 118.9 119.89C119.95 119.89 120.97 119.71 121.94 119.35C128.03 117.08 130.3 108.58 127.11 100.01C124.52 93.0702 118.96 88.2202 113.58 88.2202V88.2302Z" fill="#432918"/>
<g style="mix-blend-mode:multiply">
<path d="M125.12 100.75C122.79 94.5104 117.98 90.3604 113.58 90.3604C115.03 92.0204 116.28 94.0903 117.17 96.4703C119.91 103.82 118.15 111.25 113.25 113.08C112.51 113.36 111.73 113.47 110.95 113.47C113.98 116.94 117.89 118.6 121.2 117.36C126.11 115.53 127.86 108.09 125.12 100.75Z" fill="#E84242"/>
</g>
<path d="M74.2002 154.89C71.0702 154.89 68.1902 154.86 65.3802 154.8C62.5002 154.74 59.6102 154.68 56.7302 154.61C49.5802 154.45 42.1802 154.28 34.9302 154.22H33.5302C30.1202 154.19 26.6002 154.17 23.1302 153.91C16.0602 153.37 7.27016 152.7 3.34016 147.22C1.25016 144.32 0.830155 140.36 2.07016 135.45C4.36016 126.43 13.0902 126.17 20.7902 125.94L22.2102 125.9C22.6202 125.89 23.0402 125.88 23.4502 125.88C25.9302 125.88 28.3802 126.12 30.7602 126.35C31.9402 126.46 33.1202 126.58 34.3002 126.67C39.8702 127.08 45.9002 127.27 53.2802 127.27C53.9402 127.27 54.6002 127.27 55.2602 127.27C57.3002 127.27 59.3302 127.26 61.3702 127.26C64.5902 127.26 67.8202 127.26 71.0402 127.29C87.0002 127.38 104.17 127.7 125.06 128.29C125.64 128.31 126.22 128.32 126.8 128.34C130.22 128.42 133.76 128.51 137.22 129.06C138.6 129.28 139.9 129.33 141.15 129.37C145.75 129.54 149.72 129.69 150.95 138.9C151.01 139.35 151.09 139.84 151.18 140.36C151.68 143.31 152.29 146.98 150.11 149.16C145.57 153.69 131.76 154.31 117.51 154.31H115.57C113.82 154.31 112.17 154.31 111.22 154.37C108.22 154.55 105.25 154.57 102.22 154.57H100.47C99.0102 154.57 97.3102 154.57 95.6302 154.61H95.0702C88.2402 154.76 81.1702 154.9 74.2202 154.9L74.2002 154.89Z" fill="#FFD651"/>
<path d="M23.45 126.94C27.08 126.94 30.62 127.46 34.23 127.72C40.56 128.19 46.93 128.33 53.28 128.33C53.94 128.33 54.6 128.33 55.26 128.33C57.29 128.33 59.33 128.32 61.36 128.32C64.58 128.32 67.8 128.32 71.02 128.35C89.03 128.45 107.02 128.84 125.02 129.35C129.04 129.46 133.08 129.48 137.04 130.1C143.74 131.15 148.47 128.42 149.88 139.04C150.25 141.82 151.49 146.27 149.35 148.41C144.64 153.1 127.52 153.25 117.5 153.25C116.82 153.25 116.17 153.25 115.56 153.25C113.63 153.25 112.1 153.25 111.14 153.31C108.17 153.49 105.19 153.5 102.21 153.5C101.63 153.5 101.04 153.5 100.46 153.5C98.84 153.5 97.22 153.5 95.6 153.54C88.43 153.69 81.34 153.83 74.21 153.83C71.29 153.83 68.36 153.8 65.41 153.74C55.27 153.53 45.08 153.24 34.94 153.16C31.03 153.13 27.11 153.15 23.21 152.85C12.77 152.05 -0.750013 150.87 3.09999 135.71C5.32999 126.94 14.36 127.23 22.25 126.96C22.65 126.95 23.05 126.94 23.45 126.94ZM23.45 124.82C23.02 124.82 22.59 124.82 22.18 124.84C21.71 124.86 21.24 124.87 20.76 124.88C13.08 125.11 3.52999 125.39 1.03999 135.18C-0.290013 140.4 0.199987 144.66 2.46999 147.83C6.68999 153.71 15.76 154.4 23.04 154.96C26.55 155.23 30.09 155.25 33.52 155.27H34.92C42.17 155.33 49.56 155.5 56.71 155.67C59.6 155.74 62.48 155.8 65.37 155.86C68.19 155.92 71.08 155.95 74.21 155.95C81.17 155.95 88.24 155.81 95.08 155.67H95.64C97.31 155.62 99.01 155.62 100.46 155.62H102.21C105.26 155.62 108.24 155.61 111.27 155.42C112.2 155.36 113.83 155.36 115.56 155.36H116.48H117.51C121.54 155.36 129.05 155.36 135.64 154.69C143.55 153.88 148.38 152.36 150.85 149.9C153.42 147.34 152.72 143.2 152.21 140.18C152.12 139.67 152.04 139.18 151.99 138.76C150.65 128.66 145.84 128.48 141.18 128.31C139.96 128.26 138.7 128.22 137.38 128.01C133.85 127.46 130.28 127.37 126.82 127.28C126.24 127.27 125.67 127.25 125.09 127.24C104.18 126.65 87.01 126.33 71.04 126.24C67.63 126.22 64.47 126.21 61.37 126.21C59.33 126.21 57.3 126.21 55.26 126.22C54.6 126.22 53.94 126.22 53.29 126.22C45.94 126.22 39.94 126.03 34.39 125.62C33.22 125.53 32.03 125.42 30.87 125.31C28.47 125.08 25.98 124.83 23.46 124.83L23.45 124.82Z" fill="#432918"/>
<g style="mix-blend-mode:multiply">
<path d="M149.88 139.031C148.47 128.411 143.74 131.151 137.04 130.091C133.08 129.471 129.04 129.461 125.02 129.341C113.11 129.001 101.19 128.731 89.2701 128.541C82.9701 137.551 76.7401 147.451 68.0801 153.771C77.2801 153.891 86.3701 153.721 95.5801 153.531C100.76 153.421 105.96 153.611 111.13 153.301C116.82 152.961 143.3 154.421 149.34 148.391C151.49 146.251 150.24 141.801 149.87 139.021L149.88 139.031Z" fill="#FFD651"/>
</g>
<path d="M68.69 106.28C66.82 104.78 65.75 102.54 65.75 100.14C65.75 100.05 65.77 99.9504 65.8 99.8704C66 99.4104 67.13 97.9204 73.62 97.9204C78.67 97.9204 81.08 99.5004 81.19 99.5704C81.21 99.5804 81.22 99.5904 81.24 99.6104C81.4 99.7404 81.5 99.9404 81.5 100.15C81.5 102.25 80.68 104.23 79.2 105.72C77.71 107.21 75.74 108.03 73.63 108.03C71.84 108.03 70.09 107.41 68.7 106.29L68.69 106.28Z" fill="#432918"/>
<path d="M80.7998 100.15C80.7998 104.11 77.5898 107.33 73.6198 107.33C71.9198 107.33 70.3498 106.74 69.1198 105.75C67.4798 104.43 66.4398 102.42 66.4398 100.15C66.4398 100.15 67.0898 98.6202 73.6198 98.6202C78.5098 98.6202 80.7998 100.15 80.7998 100.15ZM81.6698 99.0702C81.6698 99.0702 81.6098 99.0202 81.5698 99.0002C81.2998 98.8202 78.7898 97.2402 73.6198 97.2402C67.1398 97.2402 65.5398 98.7302 65.1598 99.6202C65.0898 99.7902 65.0498 99.9702 65.0498 100.16C65.0498 102.77 66.2198 105.2 68.2498 106.84C69.7698 108.06 71.6698 108.73 73.6198 108.73C75.9098 108.73 78.0598 107.84 79.6798 106.22C81.2998 104.6 82.1898 102.45 82.1898 100.16C82.1898 99.7402 81.9998 99.3402 81.6698 99.0802V99.0702Z" fill="#432918"/>
<path d="M132.37 79.1507C129.95 80.9607 126.54 82.0807 122.17 82.4907C121.28 82.5707 120.49 81.9207 120.4 81.0307C120.31 80.1407 120.97 79.3507 121.86 79.2607C127.61 78.7207 131.26 76.8807 132.7 73.7907C135.76 67.2407 128.71 56.8307 128.64 56.7207C128.13 55.9807 128.32 54.9707 129.06 54.4607C129.8 53.9507 130.81 54.1407 131.32 54.8807C131.66 55.3707 139.5 66.9307 135.65 75.1607C134.91 76.7407 133.82 78.0707 132.37 79.1507Z" fill="#432918"/>
<path d="M130.28 56.5507C129.86 56.8707 129.28 56.9707 128.75 56.7807L125.85 55.7207C125.01 55.4107 124.57 54.4807 124.88 53.6407C125.19 52.8007 126.12 52.3607 126.96 52.6707L129.86 53.7307C130.7 54.0407 131.14 54.9707 130.83 55.8107C130.72 56.1207 130.52 56.3707 130.28 56.5507Z" fill="#432918"/>
<path d="M130.28 56.5506C130.17 56.6306 130.04 56.7006 129.91 56.7606C129.08 57.0906 128.13 56.6806 127.8 55.8506L126.66 52.9806C126.33 52.1506 126.74 51.2006 127.57 50.8706C128.4 50.5406 129.35 50.9506 129.68 51.7806L130.82 54.6506C131.1 55.3506 130.86 56.1206 130.29 56.5506H130.28Z" fill="#432918"/>
<path d="M130.28 56.5504C129.8 56.9104 129.15 56.9904 128.58 56.7004C127.78 56.3004 127.45 55.3204 127.86 54.5204L129.24 51.7604C129.64 50.9604 130.62 50.6304 131.42 51.0404C132.22 51.4504 132.55 52.4204 132.14 53.2204L130.76 55.9804C130.64 56.2104 130.48 56.4104 130.28 56.5504Z" fill="#432918"/>
<path d="M65.2998 90.2405C65.4398 90.3105 65.5698 90.4205 65.6598 90.5705C65.9298 91.0205 65.7898 91.6605 65.3498 92.0005C65.1098 92.1905 59.4498 96.4705 53.9098 92.5005C53.4998 92.2005 53.4198 91.5705 53.7298 91.0905C54.0498 90.6105 54.6398 90.4605 55.0498 90.7505C59.5698 94.0005 64.3298 90.4005 64.3698 90.3605C64.6598 90.1305 65.0198 90.0905 65.2998 90.2305V90.2405Z" fill="#432918"/>
<path d="M92.7099 89.3606C92.8499 89.4306 92.9799 89.5406 93.0699 89.6906C93.3399 90.1406 93.1999 90.7806 92.7599 91.1206C92.5199 91.3106 86.8599 95.5906 81.3199 91.6206C80.9099 91.3206 80.8299 90.6906 81.1399 90.2106C81.4599 89.7306 82.0499 89.5806 82.4599 89.8706C86.9799 93.1206 91.7399 89.5206 91.7799 89.4806C92.0699 89.2506 92.4299 89.2106 92.7099 89.3506V89.3606Z" fill="#432918"/>
</g>
<defs>
<clipPath id="clip0_127_1586">
<rect width="152.38" height="191.8" fill="white" transform="translate(0.310059 0.200195)"/>
</clipPath>
</defs>
</svg>
