<svg width="56" height="71" viewBox="0 0 56 71" fill="none" xmlns="http://www.w3.org/2000/svg">
<mask id="mask0_313_2256" style="mask-type:alpha" maskUnits="userSpaceOnUse" x="0" y="0" width="56" height="71">
<path fill-rule="evenodd" clip-rule="evenodd" d="M56 0H0V42H0.0175243C0.00587391 42.3319 0 42.6653 0 43C0 58.464 12.536 71 28 71C43.464 71 56 58.464 56 43C56 42.6653 55.9941 42.3319 55.9825 42H56V0Z" fill="#D9D9D9"/>
</mask>
<g mask="url(#mask0_313_2256)">
<path d="M26.2116 70.8002C27.5596 72.5031 31.8901 78.8572 29.9973 88.3184C30.5296 88.2281 31.4761 88.0475 32.7058 88.1098C35.0532 88.2312 35.6883 89.5138 34.3434 89.959C33.1074 90.3669 29.3591 90.2922 28.8236 90.1365C28.2227 89.9621 28.2539 89.3986 28.2788 89.0624C28.3037 88.7293 28.5278 87.4062 28.5901 86.6185C29.3622 80.5539 27.3884 75.9557 25.9252 73.4931C25.6076 73.0075 25.4021 72.7491 25.4021 72.7491L25.4706 72.7677C25.1188 72.2354 24.8418 71.8805 24.6768 71.675C25.178 71.3606 25.7041 71.0804 26.2116 70.7939V70.8002Z" fill="#EFCD00"/>
<path d="M25.4707 72.7706L25.4022 72.7519C25.4022 72.7519 25.6077 73.0072 25.9253 73.496C27.3885 75.9586 29.3592 80.5568 28.5902 86.6214C28.5279 87.4091 28.3038 88.7322 28.2789 89.0653C28.254 89.4015 28.2228 89.9619 28.8237 90.1394C29.2564 90.2639 31.8031 90.3386 33.4095 90.1425C33.7831 90.0958 34.11 90.0366 34.3435 89.9588C35.6915 89.5136 35.0533 88.231 32.7059 88.1095C32.0148 88.0722 31.4139 88.1158 30.9251 88.1749C30.5422 88.2216 30.2309 88.2777 29.9974 88.3181C31.8902 78.8601 27.5597 72.5029 26.2117 70.7999C26.3113 70.7439 26.414 70.691 26.5106 70.6318C27.8959 72.3939 32.0988 78.6484 30.399 87.9352C30.5547 87.9103 30.729 87.8854 30.9189 87.8636C31.5509 87.7858 32.1517 87.764 32.7588 87.7982C34.524 87.8916 35.3428 88.5765 35.3708 89.2116C35.3895 89.6662 35.0346 90.0584 34.4213 90.2608C34.1785 90.3417 33.8391 90.4071 33.4188 90.46C31.8186 90.6531 29.2004 90.5908 28.7023 90.4445C27.8679 90.2016 27.9302 89.386 27.952 89.0778C27.9613 88.9314 28.0049 88.6357 28.0578 88.2621C28.1326 87.7391 28.2259 87.0915 28.2633 86.6308C29.0416 80.5101 26.9526 75.887 25.6357 73.6766C25.3369 73.2189 25.1376 72.9668 25.1345 72.9636C25.094 72.9138 25.0754 72.8516 25.0754 72.7893C24.7391 72.2912 24.5243 72.0235 24.3936 71.8709C24.487 71.8055 24.5804 71.7433 24.6769 71.681C24.8419 71.8834 25.1189 72.2383 25.4707 72.7737V72.7706Z" fill="#083028"/>
<path d="M17.4789 70.5884C16.1776 72.4034 11.9996 79.1093 13.7088 88.3525C13.2013 88.3089 12.3016 88.2124 11.1341 88.3868C8.8988 88.7168 8.28238 90.0492 9.55881 90.373C10.7294 90.6688 14.3003 90.2609 14.8077 90.0617C15.3806 89.8344 15.3588 89.2771 15.337 88.9471C15.3152 88.6171 15.1159 87.322 15.063 86.5437C14.3874 80.5788 16.3083 75.828 17.7248 73.2502C18.0299 72.7365 18.2292 72.4657 18.2292 72.4657L18.1638 72.4875C18.5031 71.9271 18.7709 71.5473 18.9297 71.3324C18.4564 71.0647 17.9583 70.8343 17.4789 70.5915V70.5884Z" fill="#EFCD00"/>
<path d="M18.1644 72.485L18.2298 72.4632C18.2298 72.4632 18.0306 72.7371 17.7255 73.2477C16.3089 75.8255 14.3881 80.5763 15.0636 86.5412C15.1166 87.3196 15.3158 88.6147 15.3376 88.9447C15.3594 89.2747 15.3812 89.8319 14.8084 90.0592C14.3943 90.2211 11.9722 90.52 10.4436 90.4701C10.0887 90.4577 9.78047 90.4266 9.55632 90.3705C8.27989 90.0467 8.89632 88.7143 11.1316 88.3843C11.7885 88.2878 12.3613 88.2753 12.8252 88.2909C13.1864 88.3033 13.4852 88.3314 13.7063 88.35C11.9971 79.1068 16.1782 72.4009 17.4764 70.5859C17.383 70.5392 17.2834 70.4956 17.1931 70.4458C15.8606 72.32 11.7979 78.9169 13.3265 88.0045C13.1801 87.992 13.0151 87.9827 12.8346 87.9796C12.2337 87.9609 11.6609 87.992 11.0849 88.0761C9.40377 88.3251 8.61924 89.0785 8.58499 89.7167C8.5632 90.1713 8.89631 90.5293 9.47849 90.6756C9.70887 90.7348 10.0295 90.7721 10.4311 90.7846C11.9504 90.8344 14.4441 90.5386 14.9204 90.3518C15.7174 90.0374 15.6645 89.2311 15.6458 88.926C15.6365 88.7828 15.5991 88.4901 15.5524 88.1228C15.487 87.6091 15.403 86.9709 15.3718 86.5194C14.69 80.4984 16.723 75.7134 17.9963 73.3971C18.2827 72.9146 18.4789 72.6469 18.4789 72.6437C18.5162 72.5908 18.538 72.5286 18.538 72.4663C18.8649 71.9433 19.0704 71.6569 19.1949 71.4918C19.1077 71.4358 19.0175 71.3798 18.9272 71.3268C18.7684 71.5448 18.5007 71.9215 18.1613 72.4819L18.1644 72.485Z" fill="#083028"/>
<path d="M9.35736 52.3607C9.68736 51.7754 13.087 46.5608 15.9169 43.9145C17.2992 42.6225 18.7624 41.4239 20.2132 40.3125L21.2966 42.3828C18.2674 44.9637 13.8498 49.3533 11.4028 53.3601C11.1661 53.7492 10.4781 55.0817 10.145 55.0786C9.67491 55.0755 10.089 54.2256 10.089 54.2256C10.089 54.2256 9.67491 54.8762 9.37604 54.7766C9.11141 54.6894 9.2733 54.0792 9.35425 53.8956C9.26085 54.0045 8.89349 54.6209 8.67556 54.4279C8.28641 54.0823 9.01802 52.9585 9.35736 52.3607V52.3607Z" fill="#EFCD00"/>
<path d="M9.12964 52.5228C9.17634 52.4449 9.21993 52.3702 9.25728 52.3017C9.53125 51.8223 12.9309 46.5484 15.8387 43.8275C17.084 42.6631 18.488 41.4832 20.1443 40.2192L20.2844 40.406C18.6375 41.6669 17.2365 42.8406 15.9974 44.0018C13.1084 46.7041 9.7305 51.9406 9.46276 52.42C9.42229 52.4885 9.3787 52.5632 9.332 52.6411C9.05492 53.1174 8.55058 53.9829 8.73115 54.2942C8.7436 54.316 8.75917 54.3347 8.77785 54.3502C8.89926 54.3378 9.11408 54.0358 9.19502 53.9206C9.22615 53.877 9.25106 53.8428 9.26662 53.8241C9.30398 53.7774 9.36936 53.768 9.41917 53.7992C9.4721 53.8334 9.48766 53.8957 9.46276 53.9455C9.39738 54.0918 9.30398 54.4654 9.37247 54.6211C9.39115 54.6584 9.40361 54.6647 9.41295 54.6678C9.55304 54.7114 9.83946 54.4031 9.99201 54.1634C10.0231 54.1105 10.0916 54.0949 10.1477 54.1261C10.2006 54.1572 10.2224 54.2226 10.1975 54.2786C10.101 54.4748 9.99512 54.811 10.0605 54.9262C10.0574 54.9262 10.073 54.9604 10.1508 54.9604C10.3563 54.9604 10.9478 53.9268 11.1408 53.5844C11.2062 53.4661 11.2653 53.3664 11.3058 53.2979C13.6936 49.3846 17.993 45.0479 21.2215 42.2927L21.3709 42.4701C18.158 45.2129 13.8773 49.5278 11.505 53.4194C11.4615 53.4879 11.4085 53.5844 11.3432 53.6996C10.7921 54.6709 10.4372 55.1939 10.1477 55.1939C9.98578 55.1939 9.90484 55.113 9.86125 55.0476C9.86125 55.0476 9.85814 55.0414 9.85503 55.0382C9.80521 54.9542 9.79587 54.8452 9.80833 54.7331C9.66512 54.8546 9.497 54.9386 9.33512 54.8857C9.25417 54.8577 9.18257 54.7861 9.15455 54.7145C9.11408 54.6211 9.10474 54.5059 9.11408 54.3876C9.01445 54.4934 8.9086 54.565 8.79964 54.5775C8.72492 54.5868 8.65332 54.565 8.59416 54.5121C8.55992 54.481 8.5319 54.4467 8.51011 54.4094C8.26727 53.9891 8.75917 53.1485 9.12342 52.5196L9.12964 52.5228Z" fill="#083028"/>
<path d="M21.4237 42.5323C18.214 45.272 13.9426 49.5776 11.5734 53.4629C11.5454 53.5096 11.5081 53.5719 11.4676 53.6435L11.4115 53.74C10.8325 54.758 10.4776 55.2779 10.1476 55.2748C9.95144 55.2748 9.8487 55.1752 9.78955 55.0818C9.75842 55.0289 9.73974 54.9666 9.7304 54.8919C9.58408 54.9822 9.44398 55.004 9.31634 54.9635C9.21672 54.9324 9.12332 54.8452 9.08596 54.7487C9.06106 54.6957 9.04549 54.6366 9.03926 54.565C8.96143 54.621 8.88671 54.6522 8.812 54.6615C8.71549 54.6708 8.62209 54.6428 8.54737 54.5774C8.5069 54.5432 8.47577 54.5027 8.44463 54.4529C8.18001 53.9922 8.66567 53.1547 9.05794 52.4822C9.10464 52.4013 9.14823 52.3297 9.18559 52.2612C9.45955 51.7786 12.881 46.483 15.7825 43.7683C17.0372 42.5946 18.4475 41.4116 20.0944 40.1538L20.1597 40.104L20.3964 40.4184L20.3341 40.4683C18.681 41.7322 17.2831 42.9059 16.0534 44.0578C13.1487 46.7757 9.79889 51.981 9.53115 52.4573L9.39729 52.6846C9.15134 53.1049 8.64077 53.9797 8.79954 54.2537C8.84624 54.2256 8.93964 54.1354 9.12955 53.8738C9.16068 53.8272 9.1887 53.7898 9.20426 53.7711C9.26653 53.6933 9.37549 53.6746 9.46266 53.7275C9.54983 53.7805 9.57785 53.8894 9.53738 53.9766C9.46578 54.1354 9.39728 54.4716 9.43776 54.5899C9.49691 54.6086 9.73351 54.4124 9.91408 54.1354C9.9172 54.1291 9.92031 54.126 9.92654 54.1167C9.98257 54.0326 10.0978 54.0046 10.1849 54.0544C10.2752 54.1042 10.3095 54.2163 10.2659 54.3128C10.16 54.5276 10.0915 54.8016 10.1227 54.8794C10.1289 54.8794 10.1351 54.8794 10.1445 54.8794C10.1974 54.8701 10.3935 54.7207 11.066 53.5438C11.1314 53.4255 11.1905 53.3259 11.2341 53.2543C13.6282 49.3254 17.9369 44.9856 21.1684 42.2303L21.2307 42.1774L21.486 42.4763L21.4237 42.5292V42.5323ZM11.7914 52.6784C11.645 52.8994 11.5081 53.1204 11.3742 53.3384C11.3337 53.4069 11.2746 53.5065 11.2092 53.6248C10.6021 54.6895 10.353 54.9697 10.213 55.0289C10.188 55.0382 10.1694 55.0413 10.1507 55.0413C10.0386 55.0413 9.99814 54.9822 9.9888 54.9635L9.96701 54.9168V54.9106C9.92342 54.7207 10.0604 54.372 10.1258 54.2412C10.1351 54.2225 10.1258 54.2039 10.1102 54.1914C10.0947 54.1821 10.076 54.1883 10.0635 54.2039C9.95767 54.3689 9.61521 54.8109 9.39106 54.7424C9.3537 54.73 9.32568 54.702 9.30077 54.6522C9.2136 54.456 9.32879 54.0482 9.39106 53.9081C9.39729 53.8956 9.39729 53.8739 9.37549 53.8645C9.35993 53.8552 9.34125 53.8583 9.32568 53.8738C9.31011 53.8925 9.28832 53.9237 9.2603 53.9641C9.03304 54.2786 8.89605 54.4124 8.78709 54.428H8.75285L8.72794 54.4124C8.70303 54.3938 8.67813 54.3657 8.65945 54.3346C8.47265 54.0077 8.85247 53.301 9.2603 52.6005L9.39106 52.3795C9.6588 51.9032 13.0242 46.6698 15.9413 43.9426C17.1586 42.8032 18.544 41.6388 20.1722 40.3904L20.1286 40.3313C18.516 41.5672 17.1275 42.7316 15.8946 43.8866C13.0055 46.5889 9.59965 51.8596 9.32879 52.3421C9.29143 52.4106 9.24785 52.4853 9.20115 52.5663C8.84936 53.1703 8.3668 53.9953 8.58784 54.3751C8.60652 54.4093 8.62832 54.4373 8.65633 54.4591C8.69681 54.4934 8.74662 54.5089 8.79954 54.5058C8.87737 54.4965 8.96455 54.4436 9.06417 54.3377L9.21983 54.1789L9.20426 54.4C9.19492 54.5152 9.20738 54.6148 9.24162 54.6895C9.2603 54.7362 9.31323 54.7954 9.37549 54.814C9.48446 54.8514 9.61833 54.8047 9.77087 54.6771L9.92342 54.5494L9.90163 54.7487C9.88918 54.8576 9.90163 54.9448 9.93899 55.0133C9.98257 55.0849 10.0573 55.1191 10.1569 55.1223C10.4309 55.1223 10.8636 54.4062 11.2808 53.6684L11.3368 53.5719C11.3804 53.4971 11.4178 53.4318 11.4458 53.3851C13.8025 49.5153 18.0552 45.2159 21.2681 42.4669L21.2214 42.4109C18.186 45.0073 14.229 48.9798 11.8007 52.6815L11.7914 52.6784Z" fill="#083028"/>
<path d="M0.577813 78.6643C2.45198 76.0803 4.08332 73.3282 5.80494 70.6415C10.4997 63.3004 14.8053 55.4177 18.0026 47.177L18.4135 46.1029C19.7118 42.6379 20.8201 39.1075 21.6669 35.5335C23.0896 29.528 23.7123 23.2269 22.6382 17.1062C22.1494 14.323 21.4023 11.6051 20.5306 8.91842C19.7304 6.46207 18.5132 3.23987 19.3662 0.637207C19.9515 1.3408 20.901 1.68014 21.7945 1.7891C22.1837 1.83269 23.2079 1.99458 23.6874 1.74241C22.8904 6.33754 28.4288 7.98756 30.8852 10.9638C34.6148 15.4936 36.6104 21.6267 37.8464 27.299C39.7548 36.0129 39.2162 45.3153 36.5886 53.8891L36.5015 54.1724C35.7792 56.4825 34.9106 58.7427 33.8863 60.9157C28.7464 71.8525 19.6588 80.7284 8.21147 84.9312C6.08202 85.7158 3.86539 86.4256 1.58339 86.5844C0.864231 86.6311 0.113941 86.6746 -0.611443 86.5968C-0.910314 85.7002 -1.31503 84.8129 -1.85051 84.0377C-2.15872 83.5832 -2.63193 82.9201 -3.22656 82.8049C-2.06221 81.3323 -0.527386 80.1929 0.577813 78.6674V78.6643Z" fill="#EFCD00"/>
<path d="M23.3608 1.44062C22.2214 0.740142 21.0166 0.304288 19.6592 0.45061C20.2476 1.1293 21.1816 1.3659 22.0564 1.49354C22.4455 1.54958 22.9343 1.44685 23.3608 1.44373V1.44062Z" fill="#9A6231"/>
<path d="M3.04981 82.0079C4.36982 81.2919 5.58087 80.3299 6.71409 79.3492C9.62497 76.8275 12.3895 74.0318 14.9237 71.1334C19.8831 65.4517 24.4097 58.6898 26.1843 51.2678C26.2061 51.1869 26.0691 51.1495 26.0442 51.2273C23.8276 58.7614 19.5406 65.7039 14.2575 71.4789C11.496 74.4957 8.6443 77.6089 5.39097 80.0995C3.27397 81.7122 0.668186 82.5403 -1.399 84.1654C-1.52665 84.2619 -1.38032 84.458 -1.25268 84.3615C0.0144063 83.3684 1.63018 82.7738 3.0467 82.0079H3.04981Z" fill="#EFCD00"/>
<path d="M29.606 19.7553C31.2623 25.1412 31.6016 30.826 30.2442 36.3084C30.2287 36.3769 30.3407 36.4049 30.3594 36.3426C31.8164 31.4019 31.639 25.9226 30.2411 20.9819C28.5537 15.0169 24.6902 10.2163 22.1747 4.62496C22.1249 4.51288 21.9537 4.58137 21.9973 4.69656C24.0115 9.98284 27.928 14.3071 29.606 19.7584V19.7553Z" fill="#EFCD00"/>
<path d="M17.6541 46.766C17.6323 46.8158 17.6167 46.8718 17.5918 46.9248C15.9231 51.0872 14.1735 55.2682 12.1623 59.275C10.0951 63.3938 7.58898 67.248 5.11707 71.1271C3.19309 74.1594 1.45901 77.5808 -1.11875 80.115C-1.61064 80.5944 -2.18036 81.077 -2.69093 81.6C-2.74074 81.6467 -2.71584 81.6218 -2.77188 81.6654C-2.77499 81.6716 -2.82792 81.7183 -2.83103 81.7245C-2.88707 81.793 -2.83726 81.7245 -2.88707 81.8024C-2.89641 81.8117 -2.88707 81.8024 -2.92131 81.8397C-3.63736 82.6305 -4.1417 83.5115 -3.96425 84.6198C-3.74009 86.0582 -2.47612 86.6621 -1.03158 86.8676C-0.950633 86.88 -0.866576 86.8925 -0.785632 86.8987C-0.717141 86.9081 -0.698461 86.9112 -0.564592 86.9267C0.702496 87.0326 2.04119 86.8769 2.8911 86.7368L6.11019 85.9928C9.7807 84.9218 13.2924 83.1442 16.4742 81.1174C23.5692 76.6095 29.1762 70.5729 33.0366 63.3097C33.0366 63.316 33.0366 63.3253 33.0366 63.3315C33.1175 63.1603 33.2109 62.9984 33.3199 62.8459C33.3137 62.8396 33.3043 62.8365 33.2981 62.8303C34.2819 60.9281 35.1567 58.9419 35.8945 56.8747C36.1996 56.0341 36.4767 55.1811 36.7444 54.3218L36.8347 54.0198C39.5152 45.2187 40.2717 35.6113 38.0427 26.6576C36.8721 21.941 35.4182 16.882 32.6786 12.8099C31.3118 10.777 29.7241 9.11761 27.7223 7.70731C25.5399 6.17872 23.4634 4.62832 23.9584 1.66452C24.0393 1.59603 24.0673 1.47773 23.9584 1.40612C22.6072 0.49083 21.1534 -0.0975715 19.5189 0.117242C19.4753 -0.00728767 19.273 -0.0602127 19.2014 0.0985624C18.1086 2.66698 19.1671 5.83003 19.989 8.34864C21.225 12.1312 22.3519 15.9885 22.6695 19.9797C23.4042 29.142 21.1284 38.0053 17.7755 46.464M23.3606 1.44037C22.9341 1.44659 22.4453 1.54622 22.0562 1.49018C21.1814 1.36565 20.2474 1.12593 19.659 0.447245C21.0164 0.304036 22.2212 0.739889 23.3606 1.43725V1.44037ZM18.2829 46.4547C19.6403 42.8776 20.7891 39.2288 21.667 35.5334C23.0898 29.528 23.7124 23.2268 22.6384 17.1062C22.1496 14.3229 21.4024 11.6051 20.5307 8.91836C19.7306 6.46202 18.5133 3.23982 19.3664 0.637152C19.9516 1.34074 20.9012 1.68009 21.7947 1.78905C22.1838 1.83264 23.2081 1.99452 23.6875 1.74235C22.8905 6.33749 28.429 7.98751 30.8853 10.9638C34.615 15.4935 36.6106 21.6266 37.8465 27.2989C39.7549 36.0129 39.2164 45.3152 36.5888 53.8891L36.4643 54.2813C35.7482 56.554 34.8952 58.7737 33.8865 60.9157C28.7465 71.8525 19.659 80.7283 8.21162 84.9312C6.08217 85.7157 3.86554 86.4255 1.58354 86.5843C0.864384 86.631 0.114094 86.6746 -0.61129 86.5967C-0.910161 85.7001 -1.31488 84.8129 -1.85036 84.0377C-2.15857 83.5831 -2.63178 82.92 -3.22641 82.8048C-2.06206 81.3323 -0.527233 80.1928 0.577966 78.6673C2.45214 76.0833 4.08347 73.3312 5.80509 70.6445C10.5839 63.1728 14.9611 55.1375 18.1771 46.738M-3.44434 83.085C-2.13055 83.4897 -1.39271 85.2767 -0.916388 86.5563C-1.08139 86.5314 -1.23705 86.5002 -1.39894 86.4598C-2.73452 86.1111 -4.59623 84.6883 -3.44434 83.085V83.085Z" fill="#083028"/>
<path d="M-1.39607 84.1625C-1.52372 84.259 -1.37739 84.4551 -1.24975 84.3586C0.0173361 83.3655 1.63311 82.7708 3.04963 82.005C4.36964 81.2889 5.58069 80.3269 6.71391 79.3463C9.62479 76.8246 12.3893 74.0289 14.9235 71.1304C19.8829 65.4488 24.4096 58.6868 26.1841 51.2649C26.2059 51.1839 26.0689 51.1466 26.044 51.2244C23.8274 58.7584 19.5404 65.701 14.2573 71.476C11.4958 74.4927 8.64412 77.606 5.39078 80.0966C3.27378 81.7092 0.668002 82.5373 -1.39919 84.1625H-1.39607Z" fill="#083028"/>
<path d="M22.1718 4.62496C22.122 4.51288 21.9508 4.58137 21.9943 4.69656C24.0086 9.98284 27.9251 14.3071 29.6031 19.7584C31.2593 25.1443 31.5987 30.8291 30.2413 36.3115C30.2257 36.38 30.3378 36.408 30.3565 36.3457C31.8135 31.405 31.636 25.9257 30.2382 20.985C28.5508 15.0201 24.6873 10.2194 22.1718 4.62807V4.62496Z" fill="#083028"/>
<path d="M44.1681 58.2196C42.5647 53.8081 39.1028 48.6308 36.6465 45.502L38.119 43.687C39.3208 45.0631 40.5162 46.5263 41.6152 48.0673C43.8661 51.2242 46.1605 57.0086 46.3722 57.6468C46.587 58.3005 47.0821 59.549 46.6306 59.8105C46.3785 59.9568 46.1387 59.2781 46.0703 59.1536C46.1138 59.3497 46.1512 59.9786 45.8741 60.0128C45.5597 60.0502 45.2857 59.331 45.2857 59.331C45.2857 59.331 45.5223 60.2432 45.0616 60.156C44.7347 60.0907 44.3237 58.6492 44.1712 58.2196H44.1681Z" fill="#EFCD00"/>
<path d="M44.1665 58.5742C44.1229 58.4435 44.0887 58.3345 44.0575 58.2567C42.5009 53.9666 39.1604 48.889 36.5546 45.5702C36.5142 45.5173 36.5235 45.4457 36.5733 45.4052C36.6262 45.3648 36.7009 45.3772 36.7383 45.4239C39.3565 48.7582 42.7095 53.8608 44.2755 58.1757C44.3035 58.2536 44.3408 58.3656 44.3844 58.4995C44.5058 58.87 44.8856 60.0094 45.0818 60.0343C45.1472 60.0468 45.1658 60.0281 45.1721 60.0188C45.2623 59.9223 45.225 59.5674 45.1721 59.3557C45.1565 59.2934 45.1907 59.2342 45.2499 59.2124C45.3059 59.1969 45.3713 59.2249 45.3931 59.2809C45.4927 59.5456 45.7169 59.9005 45.8601 59.888C45.8725 59.888 45.8881 59.8818 45.9099 59.8569C46.0064 59.7199 45.9908 59.3339 45.9535 59.172C45.941 59.1159 45.9722 59.0599 46.0251 59.0381C46.0811 59.0194 46.1403 59.0381 46.1683 59.091C46.1808 59.1128 46.1994 59.1533 46.2212 59.2C46.2773 59.3276 46.4205 59.6639 46.5699 59.7012C46.8875 59.5175 46.5325 58.4746 46.3395 57.9142C46.3115 57.8302 46.2835 57.7461 46.2617 57.6745C46.0905 57.1515 43.8209 51.3515 41.5202 48.1293C40.524 46.7346 39.3846 45.3056 38.0303 43.7552C37.9898 43.7085 37.9929 43.6338 38.0428 43.5902C38.0801 43.5591 38.1268 43.5529 38.1673 43.5715C38.1828 43.5778 38.1953 43.5871 38.2078 43.6027C39.5651 45.1593 40.7139 46.5914 41.7101 47.9923C44.0233 51.2394 46.3084 57.0768 46.4796 57.6029L46.5606 57.8395C46.819 58.5929 47.1676 59.6234 46.6851 59.9036C46.6166 59.9409 46.545 59.9503 46.4734 59.9254C46.3613 59.888 46.2804 59.7977 46.2025 59.6763C46.187 59.7946 46.1558 59.9067 46.0967 59.9908C46.0438 60.0655 45.9691 60.1122 45.885 60.1215C45.7169 60.1402 45.5674 60.0281 45.4523 59.8787C45.4398 59.997 45.4087 60.1059 45.3402 60.1775C45.2873 60.2336 45.1907 60.2927 45.032 60.2616C44.7642 60.1993 44.5089 59.6234 44.1603 58.568L44.1665 58.5742Z" fill="#083028"/>
<path d="M46.7284 59.979C46.6413 60.0288 46.5447 60.0412 46.4513 60.0101C46.3673 59.9821 46.3019 59.9323 46.249 59.8731C46.2272 59.9385 46.2023 59.9976 46.168 60.0443C46.0996 60.1409 46.0062 60.1969 45.9003 60.2062C45.7633 60.2218 45.6295 60.1689 45.508 60.0568C45.4831 60.1315 45.4489 60.1907 45.4053 60.2374C45.3088 60.337 45.1749 60.3743 45.0193 60.3463C44.736 60.2809 44.4931 59.8233 44.0884 58.5998L44.1662 58.5749L44.0853 58.5873C44.0448 58.4659 44.0106 58.3601 43.9826 58.2854C42.429 54.0078 39.0948 48.9394 36.4921 45.6207C36.461 45.5802 36.4423 45.5304 36.4516 45.4744C36.4579 45.4215 36.4828 45.3748 36.5263 45.3436C36.6104 45.2783 36.7381 45.2938 36.8034 45.3779C39.4248 48.7153 42.784 53.8272 44.353 58.1515C44.3748 58.2106 44.3997 58.2916 44.4309 58.3819L44.462 58.4753C44.9041 59.8202 45.066 59.9447 45.0971 59.9572C45.1064 59.9572 45.1158 59.9603 45.1158 59.9603C45.1562 59.9011 45.1531 59.6303 45.0909 59.3781C45.0628 59.2754 45.122 59.1726 45.2216 59.1384C45.3181 59.1104 45.424 59.1602 45.4645 59.2567C45.5828 59.5649 45.7851 59.8171 45.8412 59.814C45.9128 59.7112 45.9128 59.3657 45.8723 59.1913C45.8505 59.0979 45.9034 59.0014 45.9999 58.964C46.0964 58.9329 46.1961 58.9703 46.2365 59.0543C46.249 59.073 46.2646 59.1073 46.2801 59.1477L46.3019 59.1944C46.4047 59.4248 46.4887 59.5649 46.5541 59.6116C46.7533 59.3937 46.3984 58.3476 46.2583 57.9429L46.1774 57.7032C46.0062 57.1802 43.7304 51.3802 41.4484 48.1767C40.4521 46.782 39.3127 45.3561 37.9647 43.8088C37.9304 43.7683 37.9117 43.7216 37.9149 43.6656C37.918 43.6127 37.9429 43.566 37.9833 43.5317C38.0425 43.4788 38.1234 43.4664 38.195 43.5006C38.2231 43.5131 38.2449 43.5317 38.2604 43.5504C39.6271 45.1164 40.7759 46.5516 41.769 47.9463C44.0884 51.1996 46.3797 57.0525 46.551 57.5787L46.6319 57.8153C46.7907 58.2791 46.9837 58.8457 46.9993 59.2941C47.0086 59.5992 46.9401 59.8482 46.7191 59.9727L46.7284 59.979ZM38.0923 43.7092C39.4466 45.2596 40.5891 46.6917 41.5885 48.0895C43.8829 51.3086 46.168 57.1335 46.3393 57.6596L46.4171 57.8993C46.7066 58.743 46.9588 59.5805 46.6101 59.7828L46.5821 59.7984L46.551 59.7922C46.3953 59.7517 46.2708 59.5182 46.1618 59.2691L46.14 59.2224C46.1245 59.1882 46.112 59.1602 46.0996 59.1415C46.0902 59.1228 46.0684 59.1228 46.056 59.1259C46.0373 59.1322 46.0311 59.1508 46.0311 59.1695C46.0653 59.319 46.0964 59.7455 45.9719 59.9198C45.9439 59.9603 45.9065 59.9821 45.8661 59.9852C45.6295 60.007 45.3835 59.5058 45.3181 59.3314C45.3119 59.3127 45.2901 59.3034 45.2714 59.3065C45.2528 59.3127 45.2403 59.3283 45.2465 59.3532C45.287 59.5089 45.3617 59.9509 45.231 60.0879C45.1936 60.1315 45.1376 60.144 45.0691 60.1284C44.9881 60.1191 44.8169 60.0942 44.3063 58.5375L44.2752 58.4441C44.2441 58.3539 44.2192 58.276 44.1974 58.2169C42.6314 53.9082 39.2847 48.818 36.6727 45.4868C36.6633 45.4744 36.6384 45.4682 36.6197 45.4837C36.6104 45.49 36.6073 45.5024 36.6073 45.5055C36.6073 45.5118 36.6073 45.5211 36.6166 45.5335C39.2255 48.8585 42.5691 53.9424 44.1289 58.2418C44.1569 58.3165 44.1911 58.4223 44.2347 58.5469L44.1631 58.5842L44.241 58.5593C44.4962 59.3345 44.792 60.1377 45.0504 60.2C45.15 60.2187 45.2278 60.2 45.2839 60.1377C45.3337 60.0848 45.3648 60.0008 45.3742 59.8856L45.3928 59.6832L45.5174 59.8451C45.5983 59.9509 45.726 60.0724 45.8754 60.0568C45.9346 60.0506 45.9875 60.0163 46.0279 59.9603C46.0715 59.898 46.1027 59.8046 46.1182 59.6832L46.1463 59.4622L46.2646 59.649C46.3455 59.7766 46.4109 59.8389 46.4918 59.8669C46.5416 59.8825 46.5914 59.8793 46.6381 59.8513C47.0647 59.6054 46.7129 58.5687 46.4794 57.8838L46.3984 57.644C46.2272 57.121 43.9483 51.2961 41.6383 48.0553C40.6483 46.6668 39.5026 45.2316 38.1266 43.6625C38.1141 43.6563 38.0985 43.6594 38.0861 43.6687C38.0736 43.6781 38.0736 43.6874 38.0736 43.6967C38.0736 43.703 38.0736 43.7123 38.083 43.7185L38.0923 43.7092Z" fill="#083028"/>
<path d="M23.6115 38.8334C23.6115 38.8334 23.6115 38.849 23.6083 38.8614C23.5959 38.9424 23.6457 39.0171 23.7235 39.0326C23.7235 39.0326 23.7235 39.0326 23.7267 39.0326C23.8076 39.0451 23.8823 38.9922 23.8948 38.9112C23.8948 38.905 23.8948 38.8988 23.8948 38.8894C24.0006 38.354 24.5112 38.0022 25.0342 38.108C25.5572 38.2139 25.8966 38.7369 25.7907 39.2755C25.7907 39.2817 25.7907 39.2879 25.7876 39.2942C25.7689 39.3751 25.8187 39.4529 25.8966 39.4716C25.9744 39.4872 26.0522 39.4374 26.0709 39.3564C26.0709 39.3471 26.074 39.3409 26.0771 39.3315C26.2141 38.6342 25.772 37.9555 25.0903 37.8154C24.4085 37.6784 23.7453 38.1329 23.6083 38.8334H23.6115Z" fill="#083028"/>
<path d="M31.8081 39.9013C31.8081 39.9013 31.8081 39.9169 31.8081 39.9294C31.8019 40.0072 31.8517 40.0757 31.9233 40.0881C31.9264 40.0881 31.9327 40.0881 31.9389 40.0881C32.0198 40.0975 32.0914 40.0352 32.0977 39.9543C32.0977 39.948 32.0977 39.9418 32.0977 39.9325C32.1288 39.6679 32.2565 39.4344 32.4619 39.2694C32.6643 39.1044 32.9196 39.0328 33.1749 39.0608C33.4301 39.0919 33.6605 39.2227 33.8193 39.4312C33.9781 39.6398 34.0497 39.8982 34.0185 40.1629C34.0185 40.1691 34.0185 40.1753 34.0185 40.1815C34.0061 40.2625 34.0621 40.3372 34.1431 40.3465C34.224 40.359 34.2956 40.2998 34.3081 40.2158C34.3081 40.2064 34.3081 40.2002 34.3112 40.1909C34.3952 39.4842 33.9002 38.8428 33.2122 38.7619C32.5242 38.681 31.8953 39.1884 31.8113 39.8951L31.8081 39.9013Z" fill="#083028"/>
<path d="M22.6545 41.8253C22.2716 44.6023 25.8207 46.1185 28.414 46.6197C31.0074 47.1209 33.3828 46.2243 34.4724 45.3308C35.8702 44.182 36.0165 41.5047 32.922 42.0339C29.8243 42.56 26.378 41.7848 24.8307 41.1809C23.2834 40.5769 22.7542 41.1124 22.6576 41.8253H22.6545Z" fill="#5B1A24"/>
<path d="M25.0674 42.0148C25.634 42.1082 25.7896 41.498 25.7896 41.498L24.7062 41.1338C24.7062 41.1338 24.5008 41.9214 25.0674 42.0148V42.0148Z" fill="white"/>
<path d="M28.1936 42.9123C28.8878 43.015 28.9594 42.1122 28.9594 42.1122L27.6768 41.9316C27.6768 41.9316 27.6768 42.8345 28.1967 42.9123H28.1936Z" fill="white"/>
<path d="M31.6426 43.033C32.3026 42.9894 32.2341 42.1333 32.2341 42.1333L30.9297 42.2111C30.9297 42.2111 30.9826 43.0797 31.6426 43.0361V43.033Z" fill="white"/>
<path d="M32.2341 42.1333C32.2341 42.1333 32.2995 42.9894 31.6426 43.033C31.5804 43.0361 31.5243 43.033 31.4714 43.0237C30.9733 42.9241 30.9297 42.2111 30.9297 42.2111L32.2341 42.1333V42.1333Z" fill="white"/>
<path d="M25.584 45.7542C25.584 45.7542 26.8947 46.6166 28.9618 46.8905C30.9637 47.1552 32.4456 46.3893 32.4456 46.3893C32.4456 46.3893 31.6766 44.9074 28.9369 44.5494C26.2004 44.1914 25.584 45.7542 25.584 45.7542Z" fill="#F39992"/>
<path d="M25.4756 45.707C25.4756 45.707 26.6929 46.5102 28.8223 46.9025C30.8241 47.2729 32.552 46.3296 32.552 46.3296C32.524 46.2767 31.8297 44.9878 29.4979 44.5177C29.3235 44.4835 29.1399 44.4523 28.9562 44.4274C26.1605 44.0601 25.5036 45.6385 25.4787 45.707H25.4756ZM28.9219 44.6703C29.0994 44.6952 29.2768 44.7232 29.4481 44.7574C31.2693 45.1248 32.0476 46.0214 32.2687 46.3358C31.8795 46.5071 30.6 46.9834 28.978 46.7686C28.7663 46.7406 28.5546 46.7063 28.346 46.6627C26.9762 46.3857 26.0297 45.8751 25.7402 45.707C25.9208 45.3863 26.6742 44.3776 28.9219 44.6703V44.6703Z" fill="#D6807B"/>
<path d="M26.8799 46.2305C26.8799 46.2305 27.2441 46.3923 27.378 46.4204C27.8076 46.5138 27.982 46.5605 27.982 46.5605C27.982 46.5605 28.231 45.7417 27.6706 45.5891C27.185 45.4584 26.8799 46.2305 26.8799 46.2305V46.2305Z" fill="white"/>
<path d="M29.1799 46.7284C29.1799 46.7284 29.6469 46.7595 29.8056 46.7626C29.9675 46.7626 30.4407 46.7502 30.4407 46.7502C30.4407 46.7502 30.3816 45.9221 29.8056 45.9407C29.2297 45.9594 29.1768 46.7284 29.1768 46.7284H29.1799Z" fill="white"/>
<path d="M22.365 41.7814C22.1813 43.117 22.8164 44.328 24.2049 45.29C25.6027 46.2551 27.3368 46.7065 28.249 46.8902C28.2864 46.8965 28.3237 46.9058 28.358 46.912C30.9451 47.4133 33.4357 46.5633 34.6529 45.5609C35.4406 44.9133 35.864 43.8268 35.6647 42.9769C35.5091 42.3169 35.0141 41.8717 34.2762 41.7223C33.8777 41.6413 33.4076 41.6475 32.8753 41.7378C30.6618 42.1145 28.3922 41.7814 27.2372 41.5479C26.3686 41.3736 25.5529 41.1432 24.9334 40.9035C24.6657 40.7976 24.4135 40.7229 24.1862 40.6762C23.6321 40.5641 23.19 40.6264 22.8693 40.8599C22.5954 41.0591 22.4241 41.3798 22.3681 41.7876L22.365 41.7814ZM24.1271 40.9657C24.3325 41.0062 24.566 41.0778 24.8276 41.1774C25.3942 41.3985 26.2129 41.6413 27.178 41.8374C28.8499 42.1737 30.9544 42.3667 32.9189 42.0305C33.4388 41.9402 33.8684 41.9433 34.214 42.0149C35.9294 42.3605 35.6305 44.3747 34.4692 45.3305C33.3827 46.224 31.0042 47.1206 28.4109 46.6194C28.3766 46.6132 28.3393 46.6069 28.305 46.5976C25.7242 46.0777 22.2747 44.5615 22.6514 41.825C22.7323 41.2335 23.1122 40.7634 24.1271 40.9657V40.9657Z" fill="#083028"/>
</g>
</svg>
