<svg width="56" height="71" viewBox="0 0 56 71" fill="none" xmlns="http://www.w3.org/2000/svg">
<mask id="mask0_313_2065" style="mask-type:alpha" maskUnits="userSpaceOnUse" x="0" y="0" width="56" height="71">
<path fill-rule="evenodd" clip-rule="evenodd" d="M56 0H0V42H0.0175243C0.00587391 42.3319 0 42.6653 0 43C0 58.464 12.536 71 28 71C43.464 71 56 58.464 56 43C56 42.6653 55.9941 42.3319 55.9825 42H56V0Z" fill="#D9D9D9"/>
</mask>
<g mask="url(#mask0_313_2065)">
<path d="M42.683 21.3385C42.9939 21.7146 43.298 22.098 43.6227 22.4595C44.2493 23.1558 44.8842 23.8387 45.4867 24.5548C46.0006 25.1662 46.4499 25.8585 47.0347 26.4051C47.5125 26.854 48.2694 26.5215 48.79 26.3425C49.1387 26.2218 49.5082 26.1052 49.8369 25.9456C50.1398 25.7976 50.5553 25.7344 50.8269 25.5614C51.3703 25.2155 50.8464 23.4041 50.7214 22.8914C50.4847 21.9266 50.1408 20.9913 49.8057 20.057C49.5219 19.2645 49.2157 18.422 48.8018 17.6844C49.2356 17.909 49.4296 17.3342 49.4063 16.9984C49.3978 16.8702 49.3889 16.6121 49.1997 16.6309C49.122 16.6395 49.0606 16.6964 48.9956 16.7368C48.8699 16.811 48.7544 16.9059 48.6292 16.9828C48.5492 17.0323 48.6125 17.1512 48.6977 17.1121C48.8347 17.05 48.967 16.9541 49.0937 16.8712C49.1388 16.8438 49.2065 16.7768 49.2158 16.8701C49.2213 16.9209 49.2248 16.975 49.2249 17.027C49.2235 17.1487 49.2167 17.2976 49.1489 17.4022C49.0678 17.5242 48.971 17.511 48.8393 17.52C48.7974 17.5235 48.7623 17.5573 48.7539 17.5967C48.7533 17.594 48.7527 17.5912 48.7488 17.5863C48.5885 17.3126 48.4379 17.005 48.108 16.9799C47.723 16.9496 47.1275 17.3042 46.7834 17.4585C46.3773 17.641 45.986 17.852 45.596 18.0685C44.7988 18.5141 44.0243 18.9979 43.2543 19.4894C42.8533 19.7459 42.1081 20.0412 42.1673 20.6292C42.1912 20.8782 42.5435 21.1584 42.6839 21.3296L42.683 21.3385ZM43.3762 19.7311C43.6521 19.5515 43.9274 19.3691 44.2033 19.1894C44.8577 18.7669 45.52 18.3542 46.2016 17.9776C46.7262 17.6879 47.3177 17.5337 47.8315 17.2464C47.975 17.2521 48.1664 17.2559 48.1546 17.2412C48.4312 17.5267 48.6167 17.8757 48.7796 18.2384C49.1385 19.0489 49.4688 19.8716 49.7494 20.714C50.231 22.1678 50.8155 23.752 50.7256 25.3094C50.6036 25.3364 50.4961 25.4036 50.3736 25.4539C50.0529 25.5856 49.7175 25.6889 49.3935 25.8185C48.7245 26.0854 47.5829 26.6968 47.0136 26.0023C46.1047 24.8917 45.2017 23.7828 44.2309 22.7264C43.6678 22.1114 43.1487 21.4635 42.6098 20.8287C42.1785 20.3203 43.0579 19.9375 43.3783 19.7278L43.3762 19.7311Z" fill="#083028"/>
<path d="M43.8321 21.6041C43.8877 21.6495 44.5633 20.8351 44.6502 20.7522C44.9893 20.4343 45.4453 20.1945 45.9094 20.158C46.6092 20.1069 46.9931 19.5681 47.5404 19.2011C47.998 18.8916 48.3271 18.9776 48.8265 19.0489C48.9205 19.0627 48.9155 19.1939 48.8197 19.1978C48.4532 19.2126 48.1609 19.1387 47.7987 19.3143C47.4932 19.463 47.251 19.7305 46.9924 19.9497C46.8129 20.1022 46.621 20.2373 46.4091 20.3334C46.1174 20.4674 45.7449 20.417 45.4396 20.5281C44.822 20.7575 44.5777 21.3232 44.1101 21.7158C43.9925 21.8142 43.7887 21.9085 43.7149 21.7168C43.6882 21.6475 43.7599 21.5478 43.8328 21.6068L43.8321 21.6041Z" fill="#083028"/>
<path d="M46.4879 21.7055C46.69 22.0653 46.9112 22.4729 47.2113 22.7618C47.5226 23.0627 47.7678 22.8725 48.1319 22.7571C48.5062 22.6366 48.9042 22.4819 49.1895 22.1903C49.4049 21.9691 49.4712 21.8446 49.2974 21.5739C49.0352 21.161 48.6795 20.8266 48.4013 20.4316C48.3983 20.4179 48.3958 20.4069 48.3874 20.3943C48.2004 20.167 48.1522 19.9493 47.8525 20.1372C47.4427 20.3928 47.0358 20.6101 46.6892 20.9586C46.5146 21.1332 46.3512 21.4613 46.4873 21.7028L46.4879 21.7055ZM46.7224 21.7113C46.5022 21.3469 46.8453 21.0338 47.1088 20.8367C47.3777 20.6384 47.6473 20.4688 47.9343 20.3011C48.0198 20.2504 48.1183 20.3354 48.209 20.4107C48.2102 20.4162 48.2114 20.4217 48.212 20.4245C48.3584 20.6868 49.3812 21.6825 49.1257 21.9414C48.8474 22.2257 47.6403 22.9904 47.2911 22.5187C47.0923 22.2507 46.8911 21.9976 46.717 21.7125L46.7224 21.7113Z" fill="#083028"/>
<path d="M46.4812 23.6517C46.4345 23.2228 46.3674 22.7665 46.8619 22.7003C46.9309 22.6908 46.9758 22.7906 46.9056 22.8206C46.6344 22.9443 46.6657 23.4576 46.7039 23.7324C46.7202 23.8443 46.7063 23.9486 46.6997 24.0598C46.6635 24.5765 46.982 24.7689 47.4472 24.8016C47.8141 24.8272 48.1907 24.9604 48.2807 24.507C48.3622 24.1045 48.4509 23.6196 48.3991 23.2062C48.3923 23.1499 48.4645 23.0906 48.5084 23.1473C48.5241 23.167 48.5365 23.1844 48.5522 23.2041C48.5764 23.2363 48.5525 23.2821 48.5102 23.2712C48.6798 23.3174 48.4959 24.6818 48.4367 24.877C48.406 24.982 48.2952 25.0471 48.1907 25.05C47.8528 25.0527 47.4501 25.0841 47.1225 24.992C46.3714 24.7858 46.5523 24.2804 46.4806 23.6489L46.4812 23.6517Z" fill="#083028"/>
<path d="M47.6122 25.8661C48.0229 25.6912 48.4565 25.6587 48.8821 25.5383C49.3396 25.408 50.0506 24.9585 50.2939 24.5548C50.3311 24.4917 50.444 24.5389 50.4113 24.6097C50.1984 25.0991 49.6591 25.4123 49.2171 25.6635C48.9751 25.8038 48.6474 25.8909 48.375 25.9195C48.1107 25.9463 47.8865 26.0769 47.6268 26.0218C47.5551 26.0059 47.5469 25.8921 47.6122 25.8661V25.8661Z" fill="#083028"/>
<path d="M44.1508 19.4756C44.3131 19.6044 44.4558 19.7606 44.5931 19.918C44.6811 20.0199 44.846 20.122 44.8765 20.2598C44.8863 20.3038 44.8406 20.3544 44.7938 20.3359C44.7878 20.3343 44.7811 20.33 44.7751 20.3285C44.7591 20.3205 44.7479 20.3085 44.7497 20.2908C44.7497 20.2908 44.4756 20.0683 44.4572 20.0493C44.3175 19.9068 44.1613 19.7796 44.0169 19.6411C43.9304 19.5592 44.0554 19.4043 44.1487 19.479L44.1508 19.4756Z" fill="#083028"/>
<path d="M43.6583 19.7466C43.628 19.6869 43.6836 19.6167 43.7479 19.6372C43.95 19.7022 44.0929 19.9104 44.2398 20.0599C44.4012 20.2235 44.529 20.4148 44.7042 20.5638C44.7499 20.6028 44.707 20.6788 44.6545 20.6731C44.6491 20.6743 44.6403 20.6733 44.6343 20.6718C44.6114 20.6711 44.5969 20.657 44.5905 20.641C44.4223 20.5367 44.295 20.3858 44.1559 20.2461C43.9945 20.0825 43.7675 19.9565 43.659 19.7494L43.6583 19.7466Z" fill="#083028"/>
<path d="M39.4664 19.3631C39.9307 20.2514 40.6975 18.6422 40.8966 18.2831C40.9635 18.1613 41.0297 18.0368 41.1005 17.92C41.132 17.8696 41.5201 18.1188 41.5527 18.1376C41.7315 18.2512 41.8634 18.4358 42.046 18.5282C42.414 18.7125 42.8323 19.1111 43.1099 19.4137C43.1927 19.5051 43.3265 19.3772 43.2464 19.2851C42.8765 18.8614 42.3678 18.4655 41.8526 18.1434C41.8881 18.1239 41.9034 18.0772 41.9304 18.0452C41.9575 18.0132 41.989 17.9889 42.0206 17.9645C42.0568 17.9738 42.0947 17.9394 42.0768 17.8972C42.5596 18.2785 42.9922 18.7288 43.5212 19.0364C43.5764 19.0675 43.6374 18.9961 43.5927 18.9483C43.1836 18.5274 42.702 18.1256 42.2446 17.7559C41.9573 17.5248 41.5472 17.1505 41.1401 17.2263C40.3566 17.374 39.7016 18.5509 39.4567 19.2554C39.4445 19.2899 39.4527 19.3141 39.4684 19.3338C39.4702 19.342 39.4666 19.3515 39.4718 19.3619L39.4664 19.3631ZM41.5374 17.9532C41.5374 17.9532 41.5522 17.9557 41.563 17.9533C41.5901 17.9472 41.619 17.9235 41.6264 17.893C41.6407 17.8291 41.6565 17.7591 41.7061 17.7135C41.7323 17.6903 41.7283 17.6594 41.7167 17.6331C41.8131 17.6955 41.9079 17.7641 42 17.8332C41.9043 17.8632 41.7782 17.9489 41.7429 18.0463C41.7414 18.0524 41.7433 18.0607 41.7418 18.0668C41.6726 18.0243 41.6047 17.9874 41.5362 17.9477L41.5374 17.9532ZM40.9838 17.8042C40.9838 17.8042 40.9946 17.7758 40.991 17.7593C40.9763 17.6932 40.9921 17.6232 40.9916 17.5569C40.9906 17.5397 40.9855 17.5293 40.9824 17.5155C41.0968 17.4671 41.2173 17.4461 41.3449 17.4699C41.3097 17.4777 41.2769 17.4965 41.2637 17.5399C41.2318 17.6394 41.2043 17.7467 41.3025 17.8174C41.3396 17.8438 41.4062 17.8233 41.4154 17.775C41.4255 17.7179 41.4531 17.6626 41.4752 17.6086C41.4959 17.5607 41.4786 17.5211 41.4475 17.4962C41.509 17.5173 41.5724 17.5466 41.6349 17.5847C41.6443 17.5884 41.6515 17.5955 41.6582 17.5998C41.6467 17.5995 41.6353 17.5991 41.6256 17.607C41.5381 17.6611 41.4949 17.7487 41.459 17.8434C41.4497 17.8657 41.4571 17.8987 41.4755 17.9178C41.381 17.8636 41.2844 17.8127 41.1917 17.7668C41.1217 17.7332 41.0518 17.7516 40.9811 17.8048L40.9838 17.8042ZM39.6161 19.3328C39.9047 18.9538 40.2695 18.0204 40.7781 17.6331C40.7913 17.7053 40.8134 17.7669 40.8618 17.8313C40.8821 17.8586 40.9105 17.8581 40.9342 17.8499C40.5155 18.2577 40.0674 19.7905 39.614 19.3362L39.6161 19.3328Z" fill="#083028"/>
<path d="M45.9815 15.4049C46.3733 14.6447 47.2495 14.2857 48.0752 14.4437C48.8895 14.6013 49.5643 15.1944 49.8234 16.0039C50.0342 16.6595 49.9665 17.5473 49.3824 17.9918C49.2876 18.0648 49.1758 17.9451 49.2554 17.8552C50.1556 16.8609 49.6189 15.3123 48.468 14.7785C47.7455 14.4445 46.8113 14.6574 46.3212 15.2689C46.1364 15.5006 46.0263 15.7736 45.9222 16.0481C45.7238 16.5776 45.9719 16.9908 46.2754 17.3975C46.3277 17.4668 46.2345 17.5597 46.1768 17.4916C45.5798 16.8003 45.5624 16.2088 45.9809 15.4022L45.9815 15.4049Z" fill="#083028"/>
<path d="M46.2058 16.7625C46.0648 16.3834 46.3494 15.9735 46.5366 15.6633C46.6917 15.4006 46.9688 15.2264 47.2037 15.4778C47.3419 15.6263 47.4016 15.8443 47.4558 16.0375C47.5243 16.2824 47.6026 16.5453 47.6331 16.7987C47.6393 16.8522 47.5818 16.8881 47.5416 16.8479C47.3031 16.606 47.2419 15.0214 46.6961 15.7666C46.5387 15.9807 46.2272 16.4746 46.4122 16.7312C46.5317 16.8984 46.8964 16.9909 47.0842 17.0938C47.1162 17.1098 47.1007 17.1682 47.0624 17.1622C46.9086 17.1356 46.7577 17.0708 46.6041 17.0326C46.4626 16.9975 46.265 16.9141 46.2085 16.7619L46.2058 16.7625Z" fill="#083028"/>
<path d="M47.8012 16.1607C47.7801 15.9631 47.7373 15.7442 47.7937 15.5497C47.9155 15.1238 48.2527 15.208 48.591 15.3353C48.8236 15.4225 49.2397 15.7724 49.2285 16.0552C49.2229 16.2096 49.0727 16.2892 48.9735 16.3805C48.7964 16.544 48.6397 16.7869 48.4197 16.8848C48.3625 16.909 48.2924 16.8494 48.3329 16.7884C48.4538 16.6027 48.6358 16.4612 48.7945 16.3046C48.8669 16.2336 49.0845 16.0987 49.0235 15.9648C48.9556 15.8123 48.8069 15.6805 48.6812 15.5754C48.5706 15.4872 48.4104 15.4447 48.2765 15.4051C47.9471 15.3047 47.9395 15.63 47.9323 15.8282C47.9213 16.0994 47.937 16.5294 48.0302 16.7833C48.0524 16.8448 47.9588 16.8714 47.9276 16.8205C47.814 16.6289 47.828 16.3715 47.8021 16.1518L47.8012 16.1607Z" fill="#083028"/>
<path d="M46.9561 16.4291C46.9493 16.3728 47.0122 16.3358 47.053 16.3788C47.1413 16.469 47.155 16.6336 47.2517 16.7104C47.2861 16.7374 47.2785 16.8056 47.2233 16.8005C47.0632 16.784 46.9737 16.5726 46.9561 16.4291V16.4291Z" fill="#083028"/>
<path d="M46.7181 16.5339C46.7708 16.6176 46.8505 16.6692 46.9218 16.7344C46.9647 16.774 46.9164 16.8511 46.863 16.8283C46.7414 16.7801 46.6586 16.7147 46.5877 16.6003C46.5357 16.5194 46.666 16.4529 46.7175 16.5311L46.7181 16.5339Z" fill="#083028"/>
<path d="M48.3428 15.9708C48.3982 15.9383 48.4635 16.0279 48.4094 16.0659C48.3552 16.1039 48.3358 16.2729 48.3438 16.3347C48.3503 16.3767 48.294 16.418 48.2626 16.3788C48.1782 16.2674 48.2218 16.041 48.3428 15.9708V15.9708Z" fill="#083028"/>
<path d="M48.3576 16.399C48.3979 16.3496 48.4493 16.3122 48.5041 16.2769C48.5411 16.2514 48.5708 16.3084 48.5458 16.337C48.5278 16.3584 48.431 16.4348 48.4331 16.4574C48.4363 16.4972 48.385 16.497 48.3681 16.4718C48.3635 16.4642 48.3563 16.4571 48.3511 16.4467C48.3387 16.4292 48.3486 16.4097 48.3597 16.3956L48.3576 16.399Z" fill="#083028"/>
<path d="M48.8269 17.2338C48.8732 17.1859 48.9232 17.1806 48.9889 17.1689C49.0708 17.1537 49.0983 17.2776 49.0176 17.2984C48.9634 17.3104 48.9133 17.3157 48.8594 17.3161C48.8169 17.3169 48.8013 17.2596 48.829 17.2304L48.8269 17.2338Z" fill="#083028"/>
<path d="M45.3308 21.0692C45.3308 21.0692 45.3289 21.061 45.3277 21.0555C45.3271 21.0527 45.3259 21.0472 45.3253 21.0444C45.3167 21.0059 45.3323 20.9735 45.3597 20.9559C45.3624 20.9553 45.3672 20.9513 45.3726 20.9501C45.378 20.9489 45.3808 20.9483 45.3856 20.9444C45.4169 20.9316 45.4519 20.9355 45.4782 20.9643C45.4788 20.9671 45.4821 20.9692 45.486 20.9741C45.4872 20.9796 45.4933 20.9812 45.4972 20.9861C45.5484 21.0759 45.621 21.1725 45.6105 21.2789C45.6046 21.3293 45.5561 21.3545 45.5115 21.3326C45.4176 21.2812 45.3805 21.1651 45.3341 21.0714L45.3308 21.0692Z" fill="#083028"/>
<path d="M45.3616 22.7958C45.3254 22.6969 45.4449 22.6328 45.5042 22.7208C45.576 22.8263 45.6381 22.9397 45.7173 23.0406C45.7533 23.0875 45.7038 23.1592 45.6507 23.1247C45.5211 23.0408 45.4174 22.9453 45.3622 22.7986L45.3616 22.7958Z" fill="#083028"/>
<path d="M44.6327 22.0858C44.6688 22.1587 44.6901 22.2291 44.7132 22.3078C44.7333 22.3727 44.6391 22.4225 44.5958 22.3685C44.5447 22.3047 44.5002 22.2452 44.4594 22.1762C44.3978 22.0656 44.576 21.9712 44.6327 22.0858V22.0858Z" fill="#083028"/>
<path d="M48.8014 23.149C48.7755 23.0709 48.8951 23.0328 48.93 23.1002C48.9887 23.2115 49.1144 23.2905 49.1349 23.4218C49.1481 23.494 49.0656 23.5326 49.0155 23.4859C48.9197 23.4002 48.8424 23.2699 48.8014 23.149Z" fill="#083028"/>
<path d="M49.6248 22.6921C49.5745 22.5934 49.722 22.5145 49.775 22.6126C49.8247 22.7085 49.8542 22.8031 49.8693 22.9096C49.881 22.9879 49.7837 23.0239 49.7428 22.9549C49.6928 22.8706 49.6694 22.7776 49.6275 22.6915L49.6248 22.6921Z" fill="#083028"/>
<path d="M49.028 24.4632C48.9951 24.3404 49.1733 24.3356 49.1997 24.4165C49.227 24.4624 49.2555 24.5139 49.3035 24.538C49.3421 24.5583 49.3395 24.6109 49.314 24.6368C49.1923 24.7678 49.0573 24.5694 49.0274 24.4604L49.028 24.4632Z" fill="#083028"/>
<path d="M48.5718 19.7869C48.5387 19.7018 48.6453 19.6435 48.6967 19.7216C48.7782 19.8452 48.8541 19.944 48.8702 20.0936C48.877 20.1498 48.8183 20.1802 48.776 20.1433C48.663 20.0441 48.6253 19.9253 48.5718 19.7869Z" fill="#083028"/>
<path d="M46.5377 20.3681C46.5794 20.2867 46.7172 20.3312 46.7064 20.4232C46.702 20.4676 46.7078 20.5067 46.717 20.548C46.7328 20.6197 46.6497 20.6554 46.5996 20.6087C46.521 20.5366 46.4861 20.4692 46.5377 20.3681V20.3681Z" fill="#083028"/>
<path d="M47.952 21.9216C47.9553 21.8342 47.8559 21.732 47.8207 21.6502C47.7946 21.5837 47.8799 21.507 47.9284 21.5714C48.0055 21.6757 48.1005 21.7962 48.0433 21.936C48.0227 21.984 47.9473 21.9776 47.9513 21.9189L47.952 21.9216Z" fill="#083028"/>
<path d="M47.2152 24.1117C47.191 24.0535 47.1869 23.9967 47.2078 23.9371C47.2524 23.8174 47.4237 23.8719 47.3946 23.9968C47.3871 24.0274 47.4309 24.0582 47.4349 24.0891C47.4389 24.12 47.4396 24.1487 47.4409 24.1802C47.4444 24.2343 47.3748 24.2671 47.3316 24.2391C47.2752 24.2025 47.242 24.181 47.2158 24.1145L47.2152 24.1117Z" fill="#083028"/>
<path d="M47.1935 25.2744C47.2451 25.315 47.2893 25.3601 47.3211 25.4137C47.3564 25.4319 47.3822 25.484 47.353 25.5194C47.3488 25.5261 47.344 25.53 47.3398 25.5367C47.3017 25.5828 47.242 25.596 47.1979 25.5509C47.1544 25.5085 47.1232 25.4576 47.0802 25.418C47.0017 25.3458 47.1134 25.2083 47.1962 25.2738L47.1935 25.2744Z" fill="#083028"/>
<path d="M12.528 30.8146C12.0514 30.9751 11.6468 31.2341 11.3143 31.5888C9.5825 33.4441 10.6299 37.2307 10.677 37.3912C10.7463 37.6333 10.9957 37.7741 11.2339 37.7037C11.4722 37.6305 11.6108 37.3799 11.5415 37.1378C11.5304 37.104 10.5911 33.6919 11.9682 32.2167C12.6194 31.5185 13.7388 31.3524 15.2989 31.7212C15.5399 31.7775 15.7838 31.6254 15.8392 31.3805C15.8946 31.1356 15.745 30.8878 15.5039 30.8315C14.3207 30.5528 13.326 30.55 12.5307 30.8175L12.528 30.8146Z" fill="#432918"/>
<path d="M11.0956 37.0391C11.0152 37.0672 10.9432 37.1151 10.885 37.1883C10.7298 37.3854 10.7631 37.6725 10.957 37.8302L11.6248 38.3707C11.8188 38.5284 12.1014 38.4946 12.2566 38.2975C12.4117 38.1005 12.3785 37.8133 12.1845 37.6556L11.5167 37.1151C11.3921 37.0166 11.2341 36.9912 11.0956 37.0391Z" fill="#432918"/>
<path d="M11.0963 37.0389C10.9079 37.1036 10.7777 37.2866 10.7887 37.4978L10.8358 38.3649C10.8497 38.6154 11.0631 38.8097 11.3097 38.7956C11.5591 38.7815 11.7475 38.5648 11.7336 38.3142L11.6865 37.4471C11.6727 37.1965 11.4593 37.0023 11.2127 37.0163C11.1711 37.0163 11.1323 37.0276 11.0963 37.0389V37.0389Z" fill="#432918"/>
<path d="M11.0961 37.0394C11.0324 37.062 10.9714 37.0986 10.9216 37.1492L10.3175 37.763C10.1429 37.9403 10.1402 38.2303 10.3175 38.4105C10.4921 38.5879 10.7775 38.5907 10.9548 38.4105L11.5589 37.7968C11.7334 37.6194 11.7362 37.3294 11.5589 37.1492C11.4342 37.0226 11.2541 36.986 11.0989 37.0394H11.0961Z" fill="#432918"/>
<path d="M44.3988 32.9566C43.5592 32.9566 42.6171 32.6356 41.5808 31.9909C41.3702 31.8586 41.3009 31.5771 41.4312 31.3631C41.5614 31.1463 41.8385 31.0787 42.0491 31.2111C43.4151 32.0585 44.529 32.2584 45.3631 31.8051C47.1281 30.8451 47.2916 27.3062 47.2944 27.2725C47.3055 27.0191 47.5133 26.8248 47.7627 26.8333C48.0121 26.8445 48.2032 27.0557 48.1949 27.3091C48.1894 27.4752 48.0093 31.4053 45.7898 32.6103C45.3658 32.8411 44.9003 32.9566 44.3988 32.9566V32.9566Z" fill="#432918"/>
<path d="M47.688 27.5059C47.5411 27.5059 47.397 27.4327 47.3111 27.2976L46.8428 26.5712C46.7071 26.3601 46.7653 26.0757 46.9731 25.9378C47.1809 25.7998 47.4607 25.8589 47.5965 26.0701L48.0648 26.7964C48.2006 27.0076 48.1424 27.2919 47.9346 27.4299C47.8598 27.4805 47.7739 27.5031 47.688 27.5031V27.5059Z" fill="#432918"/>
<path d="M47.6879 27.5062C47.6492 27.5062 47.6104 27.5005 47.5716 27.4893C47.3305 27.4245 47.1892 27.174 47.2557 26.929L47.4774 26.0901C47.5411 25.8452 47.7905 25.7016 48.0288 25.7691C48.2698 25.8339 48.4112 26.0845 48.3447 26.3294L48.123 27.1683C48.0703 27.371 47.8875 27.5062 47.6879 27.5062V27.5062Z" fill="#432918"/>
<path d="M47.6878 27.5067C47.5243 27.5067 47.3636 27.4138 47.286 27.2534C47.1752 27.0281 47.2638 26.7522 47.4855 26.6396L48.2503 26.2511C48.4719 26.1385 48.7435 26.2286 48.8543 26.4538C48.9652 26.679 48.8765 26.9549 48.6548 27.0676L47.8901 27.4561C47.8263 27.4898 47.757 27.5039 47.6878 27.5039V27.5067Z" fill="#432918"/>
<path d="M34.8698 58.2242C34.734 58.2242 34.5983 58.182 34.4819 58.0919L33.2461 57.1488C33.0189 56.977 32.9302 56.6758 33.0244 56.4027C34.9585 50.8003 32.2541 47.2023 32.1377 47.0503C31.916 46.7659 31.9659 46.3521 32.2458 46.1269C32.5256 45.9016 32.933 45.9495 33.1546 46.2338C33.2849 46.4028 36.2747 50.3245 34.3988 56.3802L35.2605 57.039C35.5459 57.2586 35.6041 57.6696 35.388 57.9624C35.2605 58.1341 35.0665 58.2242 34.8698 58.2242V58.2242Z" fill="#432918"/>
<path d="M20.4446 58.545C20.2479 58.545 20.0539 58.4549 19.9265 58.2832C19.7103 57.9932 19.7685 57.5794 20.0567 57.3598L20.9184 56.701C19.0398 50.6453 22.0296 46.7236 22.1626 46.5546C22.3842 46.2703 22.7943 46.2224 23.0742 46.4477C23.3541 46.6729 23.4012 47.0867 23.1795 47.3711C23.0631 47.5203 20.3587 51.1182 22.2928 56.7235C22.387 56.9938 22.2956 57.295 22.0711 57.4696L20.8353 58.4127C20.7189 58.5028 20.5832 58.545 20.4474 58.545H20.4446Z" fill="#432918"/>
<path d="M15.9416 46.7657C14.9662 46.7657 14.0989 46.6756 13.2954 46.4926L12.3865 46.3603H12.3754C11.3391 46.121 10.6408 45.6226 10.3 44.871C9.72368 43.6041 10.3083 41.9628 10.9041 40.8057C11.0925 40.3721 11.2948 39.9273 11.5248 39.4487C12.0595 38.3338 12.6387 37.2302 13.2011 36.1632C14.2098 34.2432 15.2544 32.2612 16.0219 30.2089C16.2103 29.7669 16.3932 29.3361 16.5816 28.9054C17.859 25.9719 19.5659 22.1881 21.4362 18.9223C21.5471 18.669 21.9599 17.7005 21.9599 17.7005C23.1791 14.8683 24.4205 12.1037 26.18 9.43478C26.3851 9.01811 26.4959 8.79289 26.4959 8.79289C27.1277 7.49504 27.9811 7.30078 28.4328 7.30078C28.8844 7.30078 29.7406 7.49504 30.3696 8.79289L30.6467 9.36158C30.813 9.70223 31.0485 10.1893 31.345 10.7946C33.6975 14.8514 35.626 18.8182 37.2387 22.9201L39.0508 26.6475C39.2171 26.9882 39.3833 27.3316 39.5496 27.6695C42.5477 31.822 44.4846 35.8057 46.0196 40.9802L46.3882 41.7403L46.7096 42.4019C47.164 43.3338 47.1696 44.246 46.7262 44.9723C46.2829 45.6958 45.4738 46.0956 44.4513 46.0956H43.8389C41.323 46.1632 38.7876 46.197 36.3049 46.197C33.8222 46.197 31.2868 46.1632 28.7653 46.0956H23.6862C22.4449 46.1407 21.2063 46.2899 20.0092 46.4335C18.5961 46.6024 17.2633 46.7628 15.936 46.7628L15.9416 46.7657Z" fill="#FFD651"/>
<path d="M28.4363 7.59966C28.8215 7.59966 29.5502 7.77139 30.1099 8.92567C30.1099 8.92567 30.2014 9.11148 30.3676 9.45494C30.5339 9.79841 30.7805 10.3023 31.0908 10.9358C33.3491 14.8294 35.3247 18.8412 36.9734 23.0416C37.1258 23.3541 37.2755 23.6638 37.4251 23.9706C37.8795 24.9053 38.3367 25.8456 38.7911 26.7803C38.9629 27.1294 39.132 27.4785 39.3037 27.8276C42.2381 31.8873 44.2138 35.8991 45.7516 41.0933C45.8985 41.4002 46.0259 41.662 46.1312 41.8759C46.3391 42.3039 46.4527 42.5375 46.4527 42.5375C46.86 43.3737 46.8711 44.1845 46.4831 44.8179C46.0952 45.4514 45.3776 45.8005 44.4576 45.8005H43.8452C41.3126 45.868 38.8133 45.9018 36.3112 45.9018C33.8091 45.9018 31.3097 45.868 28.7771 45.8005H23.6925C20.9854 45.899 18.4001 46.4677 15.9396 46.4677C15.0584 46.4677 14.1939 46.3945 13.3488 46.2002C12.7641 46.113 12.4399 46.0679 12.4399 46.0679C9.64963 45.4317 10.1429 42.9232 11.1681 40.9384C11.3676 40.4824 11.5754 40.0291 11.7888 39.5843C13.2878 36.4537 15.0972 33.5258 16.2942 30.3191C16.4771 29.8884 16.66 29.4605 16.8484 29.0297C18.3475 25.5951 19.9574 22.0985 21.6975 19.0607C21.8776 18.6469 22.0522 18.233 22.2295 17.8248C23.4653 14.956 24.7094 12.2055 26.4357 9.59008C26.6463 9.16215 26.7599 8.92848 26.7599 8.92848C27.3224 7.77421 28.0511 7.60247 28.4363 7.60247M28.4363 7.00563C27.9154 7.00563 26.9372 7.22241 26.2362 8.66384C26.2362 8.66384 26.1281 8.88344 25.9286 9.28884C24.1608 11.9746 22.9167 14.7449 21.6919 17.5855L21.4924 18.0472C21.3871 18.295 21.2818 18.5427 21.1738 18.7905C19.3007 22.0675 17.591 25.8541 16.3136 28.7904C16.1335 29.2043 15.9451 29.6406 15.7567 30.0855L15.7511 30.0967L15.7456 30.108C14.9864 32.1406 13.9944 34.0297 12.9415 36.0286C12.379 37.0984 11.7971 38.2048 11.2595 39.3225C11.0295 39.8011 10.8273 40.2459 10.6388 40.6794C10.0126 41.8956 9.40579 43.6242 10.032 44.9981C10.4144 45.8371 11.1819 46.3945 12.3097 46.6507L12.3319 46.6563H12.354L13.2407 46.7886C14.0609 46.9744 14.9448 47.0645 15.9396 47.0645C17.2834 47.0645 18.6273 46.9041 20.0488 46.7323C21.2375 46.5887 22.4678 46.4424 23.7036 46.3973H28.7716C31.2931 46.4649 33.8312 46.4987 36.3112 46.4987C38.7911 46.4987 41.3293 46.4649 43.8508 46.3973H44.4548C45.5826 46.3973 46.4804 45.9497 46.9791 45.1332C47.4779 44.3168 47.4751 43.3033 46.9764 42.2729L46.6549 41.6113C46.5552 41.4086 46.436 41.1609 46.2975 40.8737C44.7763 35.7527 42.7701 31.6282 39.8053 27.5151C39.6418 27.1829 39.4783 26.8507 39.3176 26.5157L39.0655 25.9948C38.6942 25.2319 38.3229 24.4661 37.9543 23.706L37.6966 23.1767L37.5138 22.7966C35.8983 18.6863 33.967 14.7139 31.6117 10.6486C31.318 10.049 31.0825 9.56755 30.919 9.2269L30.8996 9.18749L30.6419 8.65821C29.9409 7.21396 28.9628 7 28.4418 7L28.4363 7.00563Z" fill="#432918"/>
<g style="mix-blend-mode:multiply">
<path d="M46.4528 42.5375C46.4528 42.5375 46.3392 42.3039 46.1314 41.8759C46.0289 41.662 45.9014 41.4001 45.7518 41.0933C44.2139 35.899 42.2383 31.8872 39.3039 27.8276C39.1321 27.4785 38.9631 27.1294 38.7913 26.7803C38.3369 25.8456 37.8797 24.9025 37.4252 23.9706C37.2756 23.6638 37.126 23.3541 36.9736 23.0416C35.3249 18.8411 33.3493 14.8293 31.091 10.9358C30.7806 10.3023 30.5368 9.7984 30.3678 9.45494C30.2015 9.11147 30.1101 8.92566 30.1101 8.92566C29.7166 8.11767 29.2428 7.79391 28.8632 7.67285C28.4475 20.0348 37.1371 35.6063 29.9854 45.8258C34.6294 45.93 39.1848 45.9243 43.8454 45.8005H44.4578C45.3749 45.8005 46.0954 45.4514 46.4833 44.8179C46.8712 44.1845 46.8601 43.3765 46.4528 42.5375Z" fill="#FFD651"/>
</g>
<path d="M43.4799 43.9168C42.7733 43.9168 41.8783 43.745 41.0914 43.593C40.5234 43.4832 39.9858 43.379 39.6949 43.379C39.6284 43.379 39.5951 43.3847 39.5813 43.3875L39.548 43.3959H22.1884C21.3571 43.3087 20.4372 43.2636 19.5283 43.2636C18.6195 43.2636 17.8076 43.3058 17.101 43.3875H17.0844L16.2725 43.3931L16.2393 43.3847C16.0148 43.3312 15.4717 43.3058 14.8981 43.2777C12.9225 43.182 12.094 43.0863 12.0607 42.557C11.792 41.1184 12.8892 39.7839 13.8591 38.6071C14.3634 37.9934 14.84 37.4134 15.0921 36.8757C15.275 36.4872 15.4856 36.0874 15.7211 35.682C15.8624 35.0204 15.9428 34.4574 16.0231 33.9112C16.2365 32.4416 16.4221 31.1747 17.5942 28.7198C17.669 28.5621 18.0154 28.0047 18.6721 26.9518C19.822 25.1077 21.5621 22.3234 22.2909 20.8707C22.5236 20.409 22.7619 19.967 23.003 19.5588C23.2247 19.1815 23.4464 18.7733 23.632 18.4214C24.0837 17.4727 24.0615 16.1748 24.0393 14.9192C24.0116 13.3539 23.9811 11.7379 24.8429 10.5724L24.854 10.5555L24.8678 10.5414C25.4663 9.93328 26.2976 9.60107 27.2148 9.60107C28.675 9.60107 30.0217 10.4203 30.6451 11.6872C31.0192 12.4445 31.5512 13.1652 32.0694 13.8634C32.9533 15.0571 33.8677 16.2902 34.07 17.7992C34.3637 19.9839 34.8347 22.2924 36.3005 24.3786C37.5668 26.1804 38.3787 28.2468 39.1656 30.2429C39.307 30.6032 39.4483 30.9608 39.5924 31.3211C40.0745 32.5204 40.6758 33.9225 41.4655 35.2119L41.4738 35.2259L41.4821 35.2428C41.6982 35.7102 41.8811 36.1522 42.0391 36.597C42.2496 37.191 42.6902 37.9174 43.1585 38.6859C44.0674 40.1809 45.0981 41.8757 44.8183 43.3002L44.81 43.3396L44.7933 43.3762C44.5246 43.9224 43.7376 43.9224 43.4772 43.9224L43.4799 43.9168Z" fill="#FFF599"/>
<path d="M27.2198 9.89958C28.4778 9.89958 29.7829 10.5893 30.3897 11.8196C31.4094 13.8889 33.4765 15.5358 33.7841 17.8387C34.1249 20.3753 34.6625 22.5544 36.0673 24.5504C37.5359 26.6422 38.3782 29.0718 39.3259 31.431C39.8717 32.7852 40.4592 34.1224 41.2212 35.3668C41.4234 35.8032 41.6063 36.2452 41.767 36.6928C42.3988 38.489 44.9286 41.2311 44.5351 43.2384C44.3966 43.5199 44.0004 43.6184 43.4822 43.6184C42.2769 43.6184 40.4231 43.0807 39.6944 43.0807C39.6224 43.0807 39.5642 43.0863 39.5171 43.0976H22.2156C21.3538 43.0103 20.4256 42.9653 19.525 42.9653C18.6245 42.9653 17.7932 43.0075 17.0645 43.0892C16.5768 43.0892 16.3025 43.0892 16.3025 43.0892C15.571 42.9174 12.3512 43.0216 12.3512 42.5177C11.955 40.5103 14.5845 38.6438 15.3549 36.9997C15.5488 36.5886 15.7622 36.186 15.9977 35.7891C16.5269 33.3341 16.2526 32.208 17.857 28.8466C18.0703 28.3961 21.4508 23.1991 22.5536 21.0031C22.7753 20.5639 23.0081 20.1304 23.2574 19.7081C23.4708 19.3477 23.6786 18.9648 23.8948 18.5623C24.9588 16.3325 23.601 12.7571 25.0807 10.7526C25.6515 10.1727 26.4274 9.89958 27.2198 9.89958M27.2198 9.30273C26.2251 9.30273 25.319 9.66872 24.6651 10.3303L24.6346 10.3613L24.6096 10.3951C23.6897 11.6422 23.7202 13.3117 23.7479 14.9249C23.7701 16.1946 23.7922 17.3939 23.3711 18.292C23.1882 18.6383 22.9693 19.038 22.7531 19.404C22.5093 19.8207 22.2655 20.2683 22.0327 20.7357C21.3095 22.1771 19.5749 24.9558 18.425 26.7942C17.724 27.9147 17.4109 28.4186 17.3305 28.5904C16.139 31.0875 15.9423 32.4389 15.7345 33.869C15.6569 34.3983 15.5793 34.9417 15.4463 35.5751C15.2163 35.9721 15.0085 36.369 14.8284 36.7491C14.5929 37.253 14.1273 37.8189 13.6341 38.4186C12.6283 39.6432 11.4867 41.0284 11.7693 42.5993C11.8303 43.2778 12.7308 43.396 13.1215 43.4467C13.6397 43.5143 14.3019 43.5481 14.8866 43.5762C15.3964 43.6015 15.9783 43.6297 16.175 43.6747L16.2415 43.6888H16.308H17.07H17.1033L17.1365 43.686C17.832 43.6072 18.6605 43.5649 19.5306 43.5649C20.4007 43.5649 21.34 43.61 22.1602 43.6944H22.1907L22.2211 43.6973H39.5836L39.6473 43.6832C39.6473 43.6832 39.6667 43.6832 39.6944 43.6832C39.9576 43.6832 40.4813 43.7845 41.0355 43.8915C41.8363 44.0464 42.7452 44.2209 43.4794 44.2209C43.7842 44.2209 44.7069 44.2209 45.0561 43.5114L45.0921 43.4411L45.1087 43.3622C45.4108 41.8223 44.3495 40.074 43.4102 38.5312C42.9502 37.7767 42.5179 37.0644 42.3184 36.4985C42.1577 36.0453 41.9721 35.5948 41.7504 35.119L41.7365 35.0881L41.7199 35.0599C40.9413 33.7874 40.3483 32.4023 39.869 31.2142C39.7249 30.8567 39.5836 30.4991 39.4422 30.1388C38.6498 28.1258 37.8324 26.0425 36.5439 24.2126C35.1141 22.1799 34.6541 19.9136 34.366 17.7655C34.1526 16.1777 33.216 14.9136 32.31 13.689C31.7779 12.9711 31.2764 12.2926 30.9134 11.5578C30.2401 10.1924 28.7909 9.30836 27.2198 9.30836V9.30273Z" fill="#432918"/>
<g style="mix-blend-mode:multiply">
<path d="M41.7641 36.6927C41.6061 36.2451 41.4232 35.8031 41.2182 35.3667C40.4562 34.1224 39.8688 32.7851 39.3229 31.431C38.3752 29.0717 37.5329 26.6421 36.0643 24.5504C34.6622 22.5543 34.1219 20.3753 33.7811 17.8387C33.5123 15.8257 31.8969 14.3139 30.8135 12.5825C31.11 20.5695 35.9867 28.275 34.8285 36.9039C34.3768 39.204 33.5511 41.2198 32.5314 43.1004H39.5113C40.2595 42.9258 44.0362 44.2434 44.5294 43.2411C44.9256 41.2338 42.3958 38.4917 41.7613 36.6956L41.7641 36.6927Z" fill="#FFF599"/>
</g>
<path d="M32.5834 19.1195C31.6635 19.1195 30.7103 18.5902 30.0342 17.7034C29.5354 17.0502 29.2556 16.2873 29.2417 15.5497C29.2279 14.7811 29.5049 14.1336 30.0231 13.7254C30.3667 13.4551 30.7962 13.3115 31.2645 13.3115C32.1844 13.3115 33.1376 13.8408 33.8137 14.7248C34.8611 16.0959 34.8639 17.8808 33.822 18.7028C33.4784 18.9731 33.0489 19.1167 32.5806 19.1167L32.5834 19.1195Z" fill="#E84242"/>
<path d="M31.2673 13.6104C32.0598 13.6104 32.9492 14.0749 33.5838 14.9083C34.5314 16.1526 34.5619 17.7461 33.6447 18.4668C33.3427 18.7061 32.9742 18.8187 32.5835 18.8187C31.791 18.8187 30.9043 18.3542 30.267 17.5209C29.3166 16.2765 29.2889 14.683 30.206 13.9623C30.5081 13.723 30.8766 13.6104 31.2673 13.6104ZM31.2673 13.0136C30.7325 13.0136 30.2421 13.1797 29.8458 13.4893C29.2528 13.9567 28.9342 14.6887 28.9508 15.5558C28.9647 16.3553 29.2667 17.183 29.8043 17.8868C30.5358 18.844 31.5749 19.4155 32.5835 19.4155C33.1182 19.4155 33.6087 19.2494 34.0049 18.9398C35.1742 18.0163 35.1936 16.0456 34.0493 14.5423C33.3177 13.5851 32.2787 13.0107 31.2673 13.0107V13.0136Z" fill="#432918"/>
<g style="mix-blend-mode:multiply">
<path d="M33.5834 14.9108C32.7964 13.8804 31.6271 13.4215 30.7266 13.7031C31.1477 13.9227 31.5523 14.2521 31.8876 14.6912C32.8352 15.9356 32.8657 17.5291 31.9485 18.2498C31.7906 18.3736 31.6132 18.4497 31.4276 18.5088C32.2062 18.917 33.0513 18.9367 33.6443 18.4694C34.5587 17.7458 34.531 16.1552 33.5834 14.9108V14.9108Z" fill="#E84242"/>
</g>
<path d="M16.4188 40.7692C16.1722 40.7692 15.9339 40.7241 15.7094 40.6312C14.4847 40.1357 14.0026 38.4184 14.6371 36.8052C15.1442 35.513 16.2137 34.6431 17.2972 34.6431C17.5438 34.6431 17.7821 34.6881 18.0065 34.781C18.6161 35.0259 19.0595 35.5721 19.2562 36.3154C19.4446 37.0276 19.3809 37.8412 19.0816 38.607C18.5745 39.902 17.505 40.7692 16.4216 40.7692H16.4188Z" fill="#E84242"/>
<path d="M17.2973 34.9443C17.5024 34.9443 17.7047 34.9809 17.8986 35.0597C18.9765 35.4961 19.381 37.036 18.8075 38.4972C18.3364 39.6965 17.3528 40.4707 16.419 40.4707C16.2139 40.4707 16.0116 40.4341 15.8177 40.3553C14.7426 39.9189 14.3352 38.3789 14.9088 36.9178C15.3799 35.7185 16.3635 34.9443 17.2946 34.9415M17.2946 34.3446C16.092 34.3446 14.9144 35.2906 14.363 36.6954C13.6702 38.4606 14.2244 40.3496 15.5988 40.9071C15.8592 41.0112 16.1336 41.0647 16.4162 41.0647C17.6188 41.0647 18.7964 40.1216 19.3506 38.714C19.6748 37.8863 19.7413 37.0051 19.5362 36.2337C19.3145 35.3975 18.8102 34.7838 18.112 34.4995C17.8543 34.3953 17.5772 34.3418 17.2946 34.3418V34.3446Z" fill="#432918"/>
<g style="mix-blend-mode:multiply">
<path d="M18.1675 35.2148C18.4197 35.8793 18.4197 36.7323 18.0927 37.5656C17.5191 39.0268 16.1808 39.8601 15.1057 39.4265C15.0087 39.3871 14.9228 39.328 14.8369 39.2717C15.0281 39.7728 15.3578 40.1726 15.8206 40.3584C16.8957 40.7948 18.234 39.9614 18.8076 38.5003C19.3285 37.1715 19.0348 35.7864 18.1703 35.2177L18.1675 35.2148Z" fill="#E84242"/>
</g>
<path d="M24.6502 20.4685C24.5366 20.4685 24.4285 20.4488 24.326 20.4065C23.7802 20.1869 23.5668 19.4747 23.8356 18.7849C24.0462 18.2472 24.5006 17.8896 24.9661 17.8896C25.0797 17.8896 25.1878 17.9094 25.2903 17.9516C25.8362 18.1712 26.0495 18.8835 25.7807 19.5732C25.5702 20.1109 25.1157 20.4685 24.6502 20.4685V20.4685Z" fill="#64B553"/>
<path d="M24.9665 18.1852C25.0386 18.1852 25.1134 18.1993 25.1827 18.2275C25.5678 18.3851 25.7147 18.9369 25.5096 19.4606C25.3406 19.8913 24.9887 20.17 24.6534 20.17C24.5786 20.17 24.5066 20.1559 24.4373 20.1278C24.0522 19.9701 23.9053 19.4183 24.1103 18.8947C24.2794 18.4639 24.6313 18.1852 24.9665 18.1852M24.9665 17.5884C24.3819 17.5884 23.8194 18.0248 23.5645 18.6723C23.2347 19.5169 23.5201 20.398 24.2184 20.6824C24.357 20.7387 24.501 20.7669 24.6507 20.7669C25.2353 20.7669 25.7978 20.3305 26.0527 19.683C26.3825 18.8384 26.0971 17.9572 25.3988 17.6728C25.2603 17.6165 25.1162 17.5884 24.9665 17.5884Z" fill="#432918"/>
<g style="mix-blend-mode:multiply">
<path d="M25.2238 18.2529C25.0105 18.9089 24.653 19.486 24.1875 19.9365C24.254 20.0209 24.3371 20.0885 24.4341 20.1279C24.8193 20.2856 25.3014 19.9843 25.5064 19.4607C25.7032 18.9568 25.5757 18.4331 25.2238 18.2529V18.2529Z" fill="#64B553"/>
</g>
<path d="M36.1717 31.8816C36.0581 31.8816 35.95 31.8618 35.8475 31.8196C35.3016 31.5972 35.0883 30.8849 35.3571 30.198C35.5676 29.6631 36.0221 29.3027 36.4848 29.3027C36.5984 29.3027 36.7065 29.3224 36.809 29.3647C37.3549 29.5843 37.5682 30.2994 37.2995 30.9863C37.0889 31.5212 36.6344 31.8816 36.1689 31.8816H36.1717Z" fill="#64B553"/>
<path d="M36.488 29.5982C36.5628 29.5982 36.6349 29.6123 36.7042 29.6404C37.0893 29.7981 37.2362 30.3499 37.0311 30.8735C36.8621 31.3043 36.5102 31.583 36.1749 31.583C36.1029 31.583 36.0281 31.5689 35.9588 31.5408C35.5736 31.3831 35.4268 30.8313 35.6318 30.3077C35.8009 29.8769 36.1528 29.5982 36.488 29.5982ZM36.488 29.0014C35.9034 29.0014 35.3409 29.4377 35.086 30.0852C34.7562 30.927 35.0416 31.811 35.7399 32.0926C35.8784 32.1489 36.0225 32.177 36.1721 32.177C36.7568 32.177 37.3193 31.7406 37.5742 31.0931C37.904 30.2485 37.6186 29.3673 36.9203 29.083C36.7817 29.0267 36.6377 28.9985 36.488 28.9985V29.0014Z" fill="#432918"/>
<g style="mix-blend-mode:multiply">
<path d="M36.7013 29.6401C36.6486 29.6204 36.596 29.6091 36.5433 29.6035C36.3466 30.2229 36.0363 30.7719 35.6123 31.1773C35.6816 31.3462 35.798 31.4785 35.9559 31.5404C36.341 31.6981 36.8232 31.3969 37.0282 30.8732C37.2333 30.3468 37.0892 29.795 36.7013 29.6401V29.6401Z" fill="#64B553"/>
</g>
<path d="M27.491 13.9084C27.3774 13.9084 27.2694 13.8859 27.1668 13.8465C26.621 13.6269 26.4076 12.9146 26.6764 12.2249C26.887 11.6871 27.3414 11.3296 27.8069 11.3296C27.9178 11.3296 28.0286 11.3493 28.1311 11.3915C28.677 11.6111 28.8903 12.3262 28.6216 13.0131C28.411 13.5509 27.9565 13.9084 27.491 13.9084V13.9084Z" fill="#64B553"/>
<path d="M27.8074 11.6281C27.8794 11.6281 27.9542 11.6422 28.0235 11.6703C28.4087 11.828 28.5555 12.3798 28.3505 12.9034C28.1814 13.3342 27.8295 13.6129 27.4943 13.6129C27.4194 13.6129 27.3474 13.5988 27.2781 13.5707C26.893 13.413 26.7461 12.8612 26.9512 12.3375C27.1202 11.9068 27.4749 11.6281 27.8074 11.6281ZM27.8074 11.0312C27.2227 11.0312 26.6602 11.4676 26.4053 12.1151C26.0756 12.9597 26.361 13.8409 27.0592 14.1253C27.1978 14.1816 27.3419 14.2097 27.4915 14.2097C28.0761 14.2097 28.6386 13.7734 28.8936 13.1258C29.2233 12.2812 28.9379 11.4001 28.2396 11.1157C28.1011 11.0594 27.957 11.0312 27.8074 11.0312Z" fill="#432918"/>
<g style="mix-blend-mode:multiply">
<path d="M28.0231 11.6673C27.8596 11.6025 27.6823 11.6194 27.5161 11.6983C27.48 12.281 27.2223 12.6864 26.876 12.9933C26.9203 13.2607 27.0589 13.4803 27.2778 13.5704C27.6629 13.7281 28.145 13.4268 28.3501 12.9032C28.5551 12.3767 28.4111 11.8249 28.0231 11.6701V11.6673Z" fill="#64B553"/>
</g>
<path d="M17.4937 33.1965C17.3801 33.1965 17.272 33.1768 17.1695 33.1346C16.8979 33.0248 16.6957 32.777 16.6098 32.4561C16.5322 32.1605 16.5571 31.8254 16.679 31.5129C16.8896 30.978 17.3441 30.6177 17.8096 30.6177C17.9204 30.6177 18.0312 30.6374 18.1338 30.6796C18.6796 30.902 18.893 31.6143 18.6242 32.3012C18.4136 32.8361 17.9592 33.1965 17.4937 33.1965V33.1965Z" fill="#64B553"/>
<path d="M17.8096 30.9133C17.8817 30.9133 17.9565 30.9273 18.0258 30.9555C18.4109 31.1131 18.5578 31.6649 18.3527 32.1886C18.1837 32.6193 17.8318 32.898 17.4965 32.898C17.4245 32.898 17.3497 32.884 17.2804 32.8558C16.8953 32.6982 16.7484 32.1464 16.9534 31.6227C17.1225 31.192 17.4744 30.9133 17.8096 30.9133ZM17.8096 30.3164C17.225 30.3164 16.6625 30.7528 16.4076 31.4003C16.2607 31.7719 16.233 32.1745 16.3272 32.532C16.4353 32.9459 16.7041 33.264 17.0615 33.4104C17.2001 33.4667 17.3441 33.4949 17.4938 33.4949C18.0784 33.4949 18.6409 33.0585 18.8958 32.411C19.2256 31.5664 18.9402 30.6852 18.2419 30.4009C18.1034 30.3446 17.9593 30.3164 17.8096 30.3164V30.3164Z" fill="#432918"/>
<g style="mix-blend-mode:multiply">
<path d="M18.0669 30.9775C17.9283 31.6222 17.5238 32.1628 17.0527 32.6864C17.1137 32.7596 17.1885 32.8187 17.2772 32.8553C17.6623 33.013 18.1445 32.7118 18.3495 32.1881C18.5462 31.6842 18.4188 31.1577 18.0669 30.9775V30.9775Z" fill="#64B553"/>
</g>
<path d="M34.5877 41.1804C34.4741 41.1804 34.366 41.1607 34.2635 41.1184C33.7177 40.8988 33.5043 40.1866 33.7731 39.4968C33.9837 38.9619 34.4381 38.6016 34.9036 38.6016C35.0144 38.6016 35.1253 38.6213 35.2278 38.6635C35.7737 38.8831 35.9898 39.5954 35.7182 40.2851C35.5077 40.8228 35.0532 41.1804 34.5877 41.1804Z" fill="#64B553"/>
<path d="M34.9031 38.8976C34.9751 38.8976 35.0499 38.9117 35.1192 38.9399C35.5044 39.0975 35.6512 39.6493 35.4462 40.173C35.2771 40.6037 34.9225 40.8824 34.59 40.8824C34.5179 40.8824 34.4431 40.8683 34.3738 40.8402C33.9887 40.6825 33.8418 40.1307 34.0469 39.6071C34.2159 39.1763 34.5678 38.8976 34.9031 38.8976ZM34.9031 38.3008C34.3184 38.3008 33.7559 38.7372 33.501 39.3847C33.1713 40.2293 33.4567 41.1105 34.1549 41.3948C34.2935 41.4511 34.4376 41.4793 34.5872 41.4793C35.1718 41.4793 35.7343 41.0429 35.9893 40.3954C36.319 39.5508 36.0336 38.6696 35.3353 38.3852C35.1968 38.3289 35.0527 38.3008 34.9031 38.3008Z" fill="#432918"/>
<g style="mix-blend-mode:multiply">
<path d="M35.1162 38.9394C35.0497 38.9113 34.9804 38.9028 34.9112 38.9028C34.8391 39.5504 34.4955 40.0233 33.9746 40.2908C34.0217 40.547 34.1603 40.7553 34.3736 40.8426C34.7588 41.0002 35.2409 40.699 35.446 40.1753C35.651 39.6489 35.5069 39.0971 35.119 38.9422L35.1162 38.9394Z" fill="#64B553"/>
</g>
<path d="M21.6151 40.5665C21.5015 40.5665 21.3934 40.5468 21.2909 40.5046C20.745 40.2821 20.5316 39.5727 20.8004 38.8829C21.011 38.3452 21.4654 37.9849 21.9309 37.9849C22.0445 37.9849 22.1526 38.0046 22.2551 38.0468C22.801 38.2664 23.0144 38.9787 22.7456 39.6684C22.535 40.2061 22.0806 40.5637 21.6151 40.5637V40.5665Z" fill="#64B553"/>
<path d="M21.9304 38.2839C22.0052 38.2839 22.0773 38.2979 22.1465 38.3261C22.5317 38.4837 22.6786 39.0355 22.4735 39.5592C22.3045 39.9899 21.9498 40.2686 21.6173 40.2686C21.5453 40.2686 21.4704 40.2546 21.4012 40.2264C21.016 40.0688 20.8692 39.517 21.0742 38.9933C21.2432 38.5626 21.5951 38.2839 21.9304 38.2839ZM21.9304 37.687C21.3458 37.687 20.7833 38.1234 20.5283 38.7709C20.1986 39.6155 20.484 40.4967 21.1823 40.781C21.3208 40.8373 21.4649 40.8655 21.6145 40.8655C22.1992 40.8655 22.7617 40.4291 23.0166 39.7816C23.3463 38.937 23.0609 38.0558 22.3627 37.7715C22.2241 37.7152 22.08 37.687 21.9304 37.687Z" fill="#432918"/>
<g style="mix-blend-mode:multiply">
<path d="M22.3409 38.4604C22.1275 39.0939 21.6981 39.6485 21.1494 40.0258C21.2159 40.113 21.299 40.1834 21.3988 40.2228C21.7839 40.3805 22.2661 40.0792 22.4711 39.5556C22.6374 39.1333 22.5709 38.6969 22.3409 38.4604Z" fill="#64B553"/>
</g>
<path d="M27.491 26.9065C27.3774 26.9065 27.2694 26.8839 27.1668 26.8445C26.621 26.6249 26.4076 25.9127 26.6764 25.2229C26.887 24.688 27.3414 24.3276 27.8069 24.3276C27.9205 24.3276 28.0286 24.3473 28.1311 24.3896C28.677 24.6092 28.8903 25.3214 28.6216 26.0112C28.411 26.5461 27.9565 26.9065 27.491 26.9065Z" fill="#64B553"/>
<path d="M27.8074 24.6237C27.8794 24.6237 27.9542 24.6378 28.0235 24.6659C28.4087 24.8236 28.5555 25.3754 28.3505 25.899C28.1814 26.3298 27.8295 26.6085 27.4943 26.6085C27.4222 26.6085 27.3474 26.5944 27.2781 26.5663C26.893 26.4086 26.7461 25.8568 26.9512 25.3332C27.1202 24.9024 27.4721 24.6237 27.8074 24.6237M27.8074 24.0269C27.2227 24.0269 26.6602 24.4632 26.4053 25.1107C26.0756 25.9553 26.361 26.8365 27.0592 27.1209C27.1978 27.1772 27.3419 27.2053 27.4915 27.2053C28.0761 27.2053 28.6386 26.769 28.8936 26.1214C29.2233 25.2768 28.9379 24.3957 28.2396 24.1113C28.1011 24.055 27.957 24.0269 27.8074 24.0269Z" fill="#432918"/>
<g style="mix-blend-mode:multiply">
<path d="M28.2169 24.8042C28.0035 25.4376 27.5713 25.9923 27.0254 26.3695C27.0919 26.4568 27.175 26.5243 27.2748 26.5666C27.6599 26.7242 28.1421 26.423 28.3471 25.8994C28.5134 25.4771 28.4469 25.0407 28.2169 24.8042V24.8042Z" fill="#64B553"/>
</g>
<path d="M33.515 28.5171C32.5951 28.5171 31.6419 27.9878 30.9658 27.1038C29.9184 25.7327 29.9128 23.9478 30.9547 23.1258C31.2983 22.8555 31.7278 22.7119 32.1961 22.7119C33.116 22.7119 34.0692 23.2412 34.7453 24.1252C35.7927 25.4962 35.7955 27.2811 34.7536 28.1032C34.41 28.3735 33.9805 28.5171 33.5122 28.5171H33.515Z" fill="#E84242"/>
<path d="M32.1968 23.0108C32.9893 23.0108 33.8788 23.4753 34.5133 24.3086C35.4609 25.553 35.4914 27.1465 34.5742 27.8672C34.2722 28.1065 33.9037 28.2191 33.513 28.2191C32.7205 28.2191 31.8338 27.7546 31.1965 26.9212C30.2461 25.6769 30.2184 24.0834 31.1356 23.3627C31.4376 23.1234 31.8061 23.0108 32.1968 23.0108ZM32.1968 22.4139C31.662 22.4139 31.1716 22.5801 30.7754 22.8897C29.606 23.8103 29.5866 25.7839 30.7338 27.2844C31.4653 28.2416 32.5044 28.8131 33.5158 28.8131C34.0478 28.8131 34.541 28.6498 34.9372 28.3373C36.1066 27.4139 36.1259 25.4432 34.9816 23.9398C34.2501 22.9826 33.211 22.4111 32.1996 22.4111L32.1968 22.4139Z" fill="#432918"/>
<g style="mix-blend-mode:multiply">
<path d="M34.5157 24.3085C34.053 23.7033 33.46 23.2979 32.867 23.1177C33.0582 23.281 33.2411 23.4611 33.4046 23.6751C34.355 24.9195 34.3827 26.5129 33.4655 27.2336C32.9945 27.6053 32.3655 27.6672 31.7393 27.4786C32.6564 28.2669 33.8202 28.4639 34.5767 27.8671C35.491 27.1464 35.4633 25.5529 34.5157 24.3085V24.3085Z" fill="#E84242"/>
</g>
<path d="M24.9503 45.3782C24.4959 45.3782 24.0747 45.2402 23.7339 44.9812C22.681 44.1732 22.6643 42.3883 23.6923 41.0032C24.3546 40.1108 25.3355 39.5562 26.2526 39.5562C26.7098 39.5562 27.1283 39.6941 27.4691 39.9531C27.9928 40.3529 28.2782 40.9976 28.2754 41.7662C28.2726 42.5038 28.0011 43.2695 27.5106 43.9311C26.8456 44.8236 25.8647 45.3782 24.9503 45.3782V45.3782Z" fill="#E84242"/>
<path d="M26.2524 39.8545C26.6348 39.8545 26.9922 39.9643 27.2915 40.1924C28.2169 40.9018 28.2086 42.4953 27.2748 43.7509C26.6431 44.6011 25.7481 45.0797 24.9473 45.0797C24.5677 45.0797 24.2075 44.9699 23.9082 44.7419C22.9827 44.0324 22.991 42.439 23.9248 41.1805C24.5566 40.3303 25.4516 39.8517 26.2496 39.8517M26.2496 39.2549C25.2272 39.2549 24.1825 39.8405 23.4566 40.8202C22.3288 42.3376 22.3731 44.3083 23.5535 45.2149C23.9442 45.5133 24.4264 45.6738 24.9473 45.6738C25.9698 45.6738 27.0144 45.0882 27.7431 44.1085C28.2696 43.399 28.5633 42.5657 28.5661 41.7661C28.5689 40.9018 28.2419 40.1727 27.6434 39.7138C27.2527 39.4154 26.7705 39.2549 26.2524 39.2549H26.2496Z" fill="#432918"/>
<path d="M21.1264 29.8995C20.8992 29.8995 20.6776 29.8601 20.4697 29.7813C19.7909 29.5279 19.3004 28.9029 19.0898 28.0189C18.8903 27.1799 18.9679 26.1974 19.3087 25.2514C19.9072 23.5961 21.1846 22.439 22.4177 22.439C22.6449 22.439 22.8666 22.4784 23.0744 22.5572C23.7532 22.8106 24.2437 23.4356 24.4543 24.3196C24.6538 25.1585 24.5762 26.1411 24.2354 27.087C23.6369 28.7424 22.3595 29.8967 21.1264 29.8967V29.8995Z" fill="#E84242"/>
<path d="M22.4177 22.7403C22.6061 22.7403 22.7945 22.7713 22.9746 22.8388C24.1827 23.2893 24.6261 25.1446 23.961 26.9858C23.3958 28.5511 22.2126 29.6012 21.1264 29.6012C20.938 29.6012 20.7496 29.5702 20.5695 29.5026C19.3614 29.0522 18.918 27.1969 19.583 25.3557C20.1483 23.7904 21.3315 22.7403 22.4177 22.7403M22.4177 22.1434C21.0627 22.1434 19.6717 23.3794 19.0316 25.1502C18.6714 26.1496 18.5911 27.1941 18.8044 28.0894C19.0372 29.0719 19.5941 29.7729 20.3672 30.0601C20.6083 30.1502 20.8632 30.1952 21.1237 30.1952C22.4786 30.1952 23.8696 28.9593 24.5097 27.1885C24.8699 26.189 24.9503 25.1445 24.7369 24.2465C24.5041 23.2639 23.9472 22.5629 23.1713 22.2758C22.9303 22.1857 22.6754 22.1406 22.4121 22.1406L22.4177 22.1434Z" fill="#432918"/>
<g style="mix-blend-mode:multiply">
<path d="M23.7056 23.3906C23.8968 24.1479 23.8469 25.0883 23.5088 26.0286C22.8438 27.867 21.3281 28.9931 20.1173 28.5454C19.8263 28.4385 19.5825 28.247 19.3857 27.9965C19.5686 28.7256 19.9759 29.2859 20.5689 29.5083C21.777 29.9587 23.2955 28.8326 23.9605 26.9914C24.4648 25.5922 24.329 24.1874 23.7056 23.3934V23.3906Z" fill="#E84242"/>
</g>
<path d="M40.503 40.4008C39.1314 40.4008 37.7044 39.117 37.031 37.2786C36.2164 35.0601 36.7817 32.7882 38.289 32.2167C38.5246 32.1266 38.7712 32.0815 39.0289 32.0815C40.3977 32.0815 41.8275 33.3653 42.5036 35.2065C43.3182 37.425 42.7529 39.6969 41.2428 40.2684C41.0073 40.3585 40.7607 40.4036 40.503 40.4036V40.4008Z" fill="#E84242"/>
<path d="M39.0289 32.3824C40.2481 32.3824 41.5837 33.5564 42.2265 35.3131C42.9858 37.3823 42.4981 39.4741 41.1403 39.9893C40.9353 40.0681 40.7219 40.1047 40.503 40.1047C39.2838 40.1047 37.9483 38.9308 37.3054 37.1768C36.5462 35.1076 37.0311 33.013 38.3916 32.4978C38.5967 32.419 38.81 32.3824 39.0289 32.3824M39.0289 31.7855C38.738 31.7855 38.4553 31.8362 38.1866 31.9376C36.4991 32.5766 35.8701 34.9696 36.7568 37.3823C37.4717 39.3362 39.0151 40.6988 40.503 40.6988C40.794 40.6988 41.0766 40.6481 41.3454 40.5467C43.0329 39.9077 43.6619 37.5147 42.7779 35.102C42.0603 33.1481 40.5197 31.7827 39.0289 31.7827V31.7855Z" fill="#432918"/>
<g style="mix-blend-mode:multiply">
<path d="M42.2262 35.3104C41.5805 33.5536 40.2477 32.3853 39.0285 32.3853C39.4303 32.8526 39.7767 33.4354 40.0233 34.1054C40.7825 36.1746 40.2949 38.2664 38.9371 38.7816C38.7321 38.8604 38.5159 38.8914 38.2998 38.8914C39.1394 39.8683 40.2228 40.3357 41.14 39.9866C42.5005 39.4714 42.9854 37.3768 42.2262 35.3104V35.3104Z" fill="#E84242"/>
</g>
<path d="M28.1173 50.5529C27.25 50.5529 26.452 50.5445 25.6734 50.5276C24.8753 50.5107 24.0746 50.4938 23.2765 50.4741C21.2953 50.4291 19.2449 50.3812 17.236 50.3643H16.8481C15.9032 50.3559 14.9278 50.3502 13.9663 50.277C12.0073 50.125 9.57169 49.9364 8.48273 48.3936C7.90361 47.5772 7.78724 46.4623 8.13083 45.08C8.76536 42.5406 11.1844 42.4674 13.3179 42.4026L13.7114 42.3914C13.825 42.3886 13.9414 42.3857 14.055 42.3857C14.7422 42.3857 15.4211 42.4533 16.0805 42.5181C16.4075 42.549 16.7345 42.5828 17.0614 42.6082C18.6048 42.7236 20.2757 42.7771 22.3206 42.7771C22.5035 42.7771 22.6863 42.7771 22.8692 42.7771C23.4345 42.7771 23.997 42.7743 24.5622 42.7743C25.4545 42.7743 26.3495 42.7743 27.2417 42.7827C31.664 42.808 36.4217 42.8981 42.2101 43.0642C42.3708 43.0699 42.5315 43.0727 42.6922 43.0783C43.6399 43.1008 44.6207 43.1262 45.5795 43.281C45.9619 43.3429 46.3221 43.357 46.6684 43.3683C47.943 43.4161 49.0431 43.4584 49.3839 46.0513C49.4005 46.178 49.4227 46.3159 49.4476 46.4623C49.5862 47.2928 49.7552 48.326 49.1512 48.9398C47.8932 50.2151 44.0666 50.3896 40.118 50.3896H39.5805C39.0956 50.3896 38.6384 50.3896 38.3752 50.4065C37.5439 50.4572 36.7209 50.4628 35.8813 50.4628H35.3964C34.9919 50.4628 34.5208 50.4628 34.0553 50.4741H33.9002C32.0076 50.5163 30.0486 50.5557 28.1228 50.5557L28.1173 50.5529Z" fill="#FFD651"/>
<path d="M14.0547 42.6838C15.0605 42.6838 16.0414 42.8302 17.0417 42.9033C18.7957 43.0357 20.5607 43.0751 22.3203 43.0751C22.5031 43.0751 22.686 43.0751 22.8689 43.0751C23.4314 43.0751 23.9967 43.0723 24.5591 43.0723C25.4514 43.0723 26.3436 43.0723 27.2358 43.0807C32.2262 43.1089 37.2111 43.2187 42.1987 43.3622C43.3126 43.3932 44.432 43.3988 45.5293 43.5734C47.3858 43.869 48.6964 43.1004 49.0871 46.0903C49.1896 46.8729 49.5332 48.1257 48.9403 48.7282C47.6352 50.0486 42.8914 50.0908 40.115 50.0908C39.9265 50.0908 39.7464 50.0908 39.5774 50.0908C39.0426 50.0908 38.6187 50.0908 38.3527 50.1077C37.5297 50.1584 36.704 50.1612 35.8783 50.1612C35.7175 50.1612 35.5541 50.1612 35.3933 50.1612C34.9445 50.1612 34.4956 50.1612 34.0467 50.1725C32.06 50.2147 30.0954 50.2541 28.1197 50.2541C27.3106 50.2541 26.4988 50.2457 25.6814 50.2288C22.8717 50.1696 20.0481 50.088 17.2384 50.0655C16.155 50.057 15.0688 50.0627 13.9882 49.9782C11.0954 49.753 7.34911 49.4208 8.41591 45.1528C9.03382 42.6838 11.5359 42.7654 13.7222 42.6894C13.833 42.6866 13.9438 42.6838 14.0547 42.6838M14.0547 42.0869C13.9355 42.0869 13.8164 42.0869 13.7028 42.0925C13.5725 42.0982 13.4423 42.101 13.3093 42.1038C11.1813 42.1686 8.53506 42.2474 7.8451 45.0036C7.47658 46.4731 7.61235 47.6725 8.24134 48.5649C9.41066 50.2203 11.9239 50.4146 13.9411 50.5722C14.9137 50.6482 15.8946 50.6539 16.845 50.6595H17.2329C19.2418 50.6764 21.2895 50.7243 23.2707 50.7721C24.0715 50.7918 24.8695 50.8087 25.6703 50.8256C26.4517 50.8425 27.2525 50.8509 28.1197 50.8509C30.0483 50.8509 32.0073 50.8115 33.9026 50.7721H34.0578C34.5205 50.758 34.9916 50.758 35.3933 50.758H35.8783C36.7234 50.758 37.5491 50.7552 38.3887 50.7017C38.6464 50.6848 39.098 50.6848 39.5774 50.6848H39.8323H40.1177C41.2344 50.6848 43.3153 50.6848 45.1414 50.4962C47.3331 50.2682 48.6715 49.8402 49.3559 49.1477C50.068 48.427 49.874 47.2614 49.7327 46.4112C49.7078 46.2676 49.6856 46.1297 49.6718 46.0114C49.3005 43.168 47.9677 43.1173 46.6764 43.0695C46.3384 43.0554 45.9893 43.0441 45.6235 42.985C44.6454 42.8302 43.6562 42.8048 42.6974 42.7795C42.5367 42.7767 42.3788 42.771 42.2181 42.7682C36.4241 42.6021 31.6665 42.512 27.2414 42.4867C26.2965 42.4811 25.4209 42.4782 24.5619 42.4782C23.9967 42.4782 23.4342 42.4782 22.8689 42.4811C22.686 42.4811 22.5031 42.4811 22.323 42.4811C20.2864 42.4811 18.6239 42.4276 17.086 42.3121C16.7618 42.2868 16.4321 42.2558 16.1107 42.2249C15.4457 42.1601 14.7557 42.0897 14.0575 42.0897L14.0547 42.0869Z" fill="#432918"/>
<g style="mix-blend-mode:multiply">
<path d="M49.0868 46.0875C48.6961 43.0977 47.3855 43.8691 45.529 43.5706C44.4317 43.3961 43.3123 43.3933 42.1984 43.3595C38.8982 43.2638 35.5953 43.1878 32.2924 43.1343C30.5468 45.6709 28.8205 48.458 26.4209 50.2373C28.9701 50.2711 31.4889 50.2232 34.0409 50.1697C35.4762 50.1387 36.9171 50.1922 38.3496 50.105C39.9262 50.0092 47.2636 50.4203 48.9372 48.7227C49.5329 48.1202 49.1866 46.8674 49.0841 46.0847L49.0868 46.0875Z" fill="#FFD651"/>
</g>
<g style="mix-blend-mode:multiply">
<path d="M27.5093 60.9994C37.7349 60.9994 46.0244 59.5839 46.0244 57.8379C46.0244 56.0918 37.7349 54.6763 27.5093 54.6763C17.2836 54.6763 8.99414 56.0918 8.99414 57.8379C8.99414 59.5839 17.2836 60.9994 27.5093 60.9994Z" fill="black" fill-opacity="0.15"/>
</g>
<path d="M34.8886 32.5119L34.3649 31.4618C33.9991 31.0452 33.5336 30.7552 32.9268 30.7411C32.0124 30.7214 31.1534 30.7693 30.2889 31.1015C29.4078 31.4393 28.5959 31.8391 27.6427 31.9095C27.6399 31.9095 27.6344 31.9095 27.6316 31.9095C26.9333 31.9489 26.2351 31.2535 25.5784 31.0958C24.8635 30.9241 24.1458 30.8312 23.4143 30.9466C23.2785 30.9804 23.1372 31.0029 22.9904 31.0142C22.9405 31.017 22.8934 31.0142 22.8435 31.0142C22.838 31.0142 22.8296 31.017 22.8241 31.0198C22.741 31.0423 22.6551 31.0564 22.5692 31.0733C22.4722 31.1324 22.3669 31.1859 22.2588 31.2338C22.3309 31.2028 22.4029 31.1718 22.475 31.1409C22.3032 31.2169 22.1425 31.3042 21.9901 31.4196L22.0261 31.3914C21.9568 31.4421 21.8903 31.4928 21.8155 31.535C21.8155 31.535 21.8155 31.535 21.8127 31.535C21.7601 31.6054 21.7074 31.673 21.6548 31.7434C21.6021 31.8025 21.5412 31.856 21.4802 31.9038C21.4553 31.9376 21.4276 31.9686 21.4054 32.0052C21.023 32.6048 21.1616 33.4832 21.3555 34.1307C21.58 34.8768 22.0316 35.3582 22.6246 35.8171C23.1317 36.2141 24.1403 36.4956 24.7693 36.2816C25.6975 35.9691 26.2378 35.5891 26.792 34.7614C26.9915 34.4629 27.1772 34.1335 27.3157 33.8042C27.4349 33.5198 27.7702 33.3087 28.0694 33.2861C27.8422 33.3734 28.9173 35.3272 29.042 35.4793C29.5574 36.1127 30.4912 36.2422 31.2449 36.2366C32.6331 36.2253 34.412 35.6088 34.7306 34.0406C34.8165 33.6127 34.9468 33.0271 34.8914 32.5147L34.8886 32.5119Z" fill="#432918"/>
<path d="M32.899 31.4955C32.004 31.3632 31.2697 31.4899 30.3941 31.7207C29.9647 31.8334 29.319 31.9938 29.1168 32.4443C28.5931 33.134 29.2165 34.8429 29.9037 35.1216C30.48 35.3553 31.0287 35.3722 31.6494 35.3553C32.4197 35.3328 32.9794 34.8035 33.5253 34.3277C34.4064 33.562 34.218 31.6926 32.9018 31.4983L32.899 31.4955Z" fill="#432918"/>
<path d="M24.4235 31.7008C23.3456 31.6614 21.8382 31.9936 21.8576 33.3562C21.8631 33.7897 22.276 34.4035 22.5919 34.6709C23.0685 35.0735 23.631 35.3579 24.2433 35.4958C25.5263 35.7858 26.4074 34.4513 26.7649 33.4238C26.7843 33.4069 26.7953 33.3815 26.7898 33.3506C26.7898 33.3449 26.7953 33.3365 26.7981 33.3309C26.8147 33.283 26.7981 33.2379 26.7676 33.2098C26.5543 32.1034 25.4376 31.7402 24.4262 31.7036L24.4235 31.7008Z" fill="#432918"/>
<path d="M30.1891 32.5483C29.8622 32.6075 29.5906 32.9791 29.4216 33.2493C29.3717 33.331 29.4521 33.4295 29.538 33.376C29.6571 33.3028 29.7541 33.1846 29.8483 33.0804C29.973 32.9481 30.1171 32.8439 30.2501 32.7201C30.3111 32.6638 30.2889 32.5286 30.1864 32.5483H30.1891Z" fill="#FFF599"/>
<path d="M30.8739 32.3713C30.7104 32.4474 30.5885 32.5797 30.4666 32.712C30.2283 32.9682 29.9983 33.2356 29.7683 33.5003C29.652 33.6354 29.8625 33.81 29.9817 33.6776C30.2394 33.3905 30.4943 33.1005 30.7603 32.8218C30.8462 32.7317 31.0596 32.5712 30.982 32.422C30.9626 32.3826 30.921 32.3516 30.8739 32.3713V32.3713Z" fill="#FFF599"/>
<path d="M23.1231 32.4471C22.979 32.4921 22.8571 32.571 22.7407 32.6667C22.652 32.7371 22.5883 32.83 22.4969 32.8947C22.4414 32.8807 22.3777 32.9454 22.3916 33.0102C22.3916 33.0186 22.3971 33.0299 22.3999 33.0411C22.4082 33.0777 22.4553 33.1059 22.4913 33.1002C22.6216 33.0777 22.713 32.982 22.8072 32.8947C22.9236 32.7849 23.0677 32.7146 23.184 32.6019C23.1924 32.5963 23.2034 32.5935 23.2062 32.5851C23.2062 32.5822 23.209 32.5794 23.2118 32.5766C23.2533 32.509 23.2034 32.4246 23.1231 32.4499V32.4471Z" fill="#FFF599"/>
<path d="M23.6141 32.5201C23.2871 32.7059 23.0072 32.9565 22.7218 33.1986C22.5777 33.3197 22.7468 33.5646 22.8936 33.4407C23.1873 33.193 23.4921 32.9537 23.7471 32.6637C23.8246 32.5736 23.7055 32.4695 23.6141 32.5201V32.5201Z" fill="#FFF599"/>
<path d="M29.4993 36.5318C29.5492 36.5515 29.5963 36.5825 29.6323 36.6275C29.7432 36.757 29.7266 36.9344 29.5963 37.0273C29.5271 37.0779 27.859 38.235 25.8501 37.0723C25.7004 36.985 25.645 36.8077 25.7282 36.6754C25.8085 36.543 25.9997 36.5064 26.1466 36.5909C27.7842 37.5425 29.1835 36.5712 29.1973 36.5627C29.2832 36.5008 29.3968 36.4924 29.4966 36.5318H29.4993Z" fill="#432918"/>
</g>
</svg>
