<svg width="56" height="71" viewBox="0 0 56 71" fill="none" xmlns="http://www.w3.org/2000/svg">
<mask id="mask0_313_2214" style="mask-type:alpha" maskUnits="userSpaceOnUse" x="0" y="0" width="56" height="71">
<path fill-rule="evenodd" clip-rule="evenodd" d="M56 0H0V42H0.0175243C0.00587391 42.3319 0 42.6653 0 43C0 58.464 12.536 71 28 71C43.464 71 56 58.464 56 43C56 42.6653 55.9941 42.3319 55.9825 42H56V0Z" fill="#D9D9D9"/>
</mask>
<g mask="url(#mask0_313_2214)">
<path d="M8.213 28.3288C8.04051 27.0623 8.09195 25.6003 8.33103 24.1924C7.64407 26.7525 7.46855 29.8571 9.58691 31.3853C8.87272 30.5279 8.37339 29.49 8.213 28.3318V28.3288Z" fill="#A38D75"/>
<path d="M52.2357 43.6537C52.841 43.6055 53.419 43.425 53.876 43.1001C52.4809 42.8204 51.113 42.0141 50.0175 41.262C49.2307 40.7386 48.4348 40.173 47.7085 39.5473C47.6056 39.4691 47.4967 39.3848 47.3877 39.3036C46.1409 38.362 45.1453 37.1075 44.077 35.9764C43.6322 35.5101 43.2024 35.0258 42.7909 34.5234C43.4234 34.2677 44.08 34.0481 44.7609 33.8495C45.1604 33.7262 45.5205 33.5427 45.8474 33.317C46.0471 33.1636 46.2317 33.0042 46.4072 32.8387C46.4466 32.7906 46.498 32.7485 46.5283 32.7033C46.5283 32.7033 46.5323 32.7013 46.5404 32.6973C47.5421 31.6595 48.1655 30.2516 48.3561 28.7805C48.5347 27.3545 48.574 25.8143 48.2926 24.3974C48.0868 23.3474 47.7327 22.3336 47.3605 21.3409C47.0215 21.4251 46.6947 21.5184 46.3527 21.6207C44.9334 22.0418 43.5353 22.5833 42.1886 23.2121C41.768 23.4046 41.3383 23.6092 40.9176 23.8318C40.5393 24.0664 40.1671 24.3191 39.81 24.5748C38.6782 25.3931 37.8248 26.3768 37.2377 27.6554C37.0652 28.0344 37.0017 28.4195 36.9956 28.8046C36.7142 28.0916 36.5689 27.3275 36.578 26.5333C36.578 26.5192 36.575 26.5072 36.5689 26.4972C36.1937 26.795 35.8396 27.1379 35.5975 27.532C35.3887 27.9893 35.2707 28.5067 35.2495 29.0392C34.5565 28.4706 33.8151 27.9863 32.9465 27.4839C31.3638 26.5874 29.3332 26.2625 27.5447 26.2023C25.5353 26.1332 23.7226 26.2354 21.8372 26.9996C21.1775 27.2673 20.5178 27.6915 19.8974 28.1126C19.9156 28.0404 19.9246 27.9622 19.9337 27.89C19.9156 27.8599 19.9004 27.8268 19.9035 27.7877C19.9398 27.2282 19.8006 26.7769 19.5585 26.3528C19.4011 26.6837 19.2922 27.0447 19.0501 27.3455C18.8806 27.5621 18.699 27.7697 18.4963 27.9442C18.5144 26.7739 17.888 25.7992 17.2979 24.7975C16.7531 23.8709 15.9663 23.0526 15.119 22.3517C14.6771 22.0178 14.2172 21.6929 13.7602 21.38C12.5043 20.5106 11.2182 19.6983 9.86543 19.0034C9.74439 19.6352 9.35703 20.2759 9.0998 20.8385C8.63981 21.8613 8.1193 22.8481 7.75615 23.925C7.24774 25.4262 7.12367 27.0176 7.47168 28.5699C7.80154 30.0289 8.69428 31.4248 9.99254 32.1618C10.9609 32.7154 12.1048 32.8869 13.1065 33.2689C12.4589 34.1353 11.5692 34.9446 10.9942 35.5432C9.70807 36.903 8.19798 37.8777 6.6425 38.8764C4.64215 40.179 1.6825 41.265 1.00462 43.8071C0.968306 43.9485 1.15593 43.9395 1.22251 43.8733C1.6946 43.4401 2.26959 43.1814 2.88694 43.0189C2.37853 43.8462 2.03959 44.7096 2.0517 45.7114C2.0517 45.8317 2.20604 45.8046 2.25748 45.7445C2.64181 45.3293 2.9747 44.9412 3.43771 44.6133C3.54968 44.5381 3.66165 44.4719 3.7827 44.4088C3.59508 45.3113 3.7706 46.1746 4.46966 47.0862C5.81028 48.8069 8.17074 49.9772 9.95017 51.1625C11.89 52.4711 13.7995 53.8278 15.7847 55.0643C17.2737 56.0029 18.6476 57.0949 20.0578 58.1327C20.4179 58.4937 20.7841 58.8728 21.1563 59.2458C22.1973 60.3198 23.4563 61.0418 24.8998 61.3998C26.7609 61.8601 28.619 61.5171 30.3046 60.741C31.3941 60.0521 32.3685 59.1526 33.3218 58.2621C34.8742 56.8121 36.5114 55.6208 38.3484 54.5679C40.382 53.4006 42.3793 52.2003 44.3554 50.9368C45.1755 50.4194 46.0047 49.917 46.8067 49.3845C47.0094 49.2492 47.2485 49.1048 47.4725 48.9363C47.996 48.3015 48.4408 47.5765 48.689 46.8034C49.0491 47.3208 49.1308 47.8743 49.1429 48.5181C50.1628 48.2293 50.8074 46.7763 50.8981 45.7294C50.9133 45.3594 50.8739 44.9954 50.7953 44.6344C50.7953 44.6344 50.8003 44.6364 50.8104 44.6404C50.8558 44.6524 50.9012 44.6645 50.9587 44.6885C50.9799 44.6735 51.0041 44.6645 51.0313 44.6705C51.8696 44.7637 52.6049 45.1247 53.304 45.576C53.3827 44.8028 52.8924 44.153 52.2418 43.6446L52.2357 43.6537Z" fill="#A38D75"/>
<path d="M16.4352 51.0142C17.3128 49.5281 18.4991 48.3548 19.9335 47.4102C21.4345 46.4205 23.2109 45.3705 23.9614 43.6287C24.7301 41.8628 24.0068 40.0067 22.415 38.9899C21.2106 38.2167 19.7701 37.9791 18.3599 38.0332C15.5213 38.1325 12.2469 39.0681 10.0408 40.8972C8.70922 41.9952 7.67122 43.364 6.84506 44.8682C6.3306 45.8128 5.64969 47.0703 5.61035 48.2585C6.93282 49.3837 8.60632 50.2651 9.94695 51.1646C11.6719 52.3258 13.3787 53.5291 15.1339 54.6542C15.37 53.3727 15.7755 52.1393 16.4382 51.0112L16.4352 51.0142Z" fill="#5C4735"/>
<path d="M43.1906 42.17C40.3822 39.8475 36.0154 37.495 32.3324 37.1912C30.8708 37.0739 28.2258 37.0709 27.2514 38.2772C26.2648 39.5136 26.1075 42.1399 26.7611 43.5779C28.0019 46.2703 32.8408 47.221 34.6354 49.4561C35.8762 51.0205 36.9898 53.1052 37.2834 55.2081C37.6283 54.9854 37.9794 54.7839 38.3395 54.5733C40.3731 53.4061 42.3705 52.2058 44.3466 50.9423C45.1667 50.4248 45.9959 49.9224 46.7978 49.39C47.0006 49.2546 47.2336 49.1162 47.4515 48.9477C47.9206 46.2402 45.0305 43.6892 43.1875 42.167L43.1906 42.17Z" fill="#5C4735"/>
<path d="M7.82878 40.0914C10.4767 38.3496 13.3093 36.8364 15.6546 34.6583C15.7515 34.5771 15.5396 35.6421 15.3611 36.0542C16.4808 35.5037 17.3554 34.4899 18.2663 33.6596C18.7686 33.1963 19.3436 32.6518 19.9821 32.3871C20.6146 32.1344 20.8537 32.4232 21.3803 32.7902C23.3201 34.174 24.7061 36.0512 25.4445 38.2202C25.7047 37.062 26.077 35.9279 26.6701 34.902C27.4297 33.5904 28.8036 31.8877 30.4922 32.2487C31.382 32.4382 32.2717 32.9586 33.0918 33.3497C33.9603 33.7679 34.8016 34.2402 35.5703 34.8388C36.2088 35.3442 36.7898 35.9068 37.2983 36.5175C37.1106 35.251 35.8547 32.8925 35.9788 32.9496C39.3621 34.5711 41.995 37.2606 44.994 39.4747C47.3575 41.2165 50.5804 43.4848 53.6853 43.0486C52.3628 42.7417 51.0646 41.9806 50.0175 41.2586C49.2307 40.7352 48.4348 40.1696 47.7085 39.5439C47.6056 39.4657 47.4967 39.3814 47.3877 39.3002C46.1409 38.3586 45.1453 37.1041 44.077 35.973C43.6322 35.5067 43.2024 35.0224 42.7909 34.52C43.4234 34.2643 44.08 34.0447 44.7609 33.8461C45.1604 33.7228 45.5205 33.5393 45.8474 33.3136C46.0471 33.1602 46.2317 33.0008 46.4072 32.8353C46.4466 32.7872 46.498 32.7451 46.5283 32.6999C46.5283 32.6999 46.5323 32.6979 46.5404 32.6939C47.5421 31.656 48.1655 30.2481 48.3561 28.7771C48.5347 27.3511 48.574 25.8109 48.2926 24.3939C48.0868 23.344 47.7327 22.3302 47.3605 21.3375C47.0215 21.4217 46.6947 21.515 46.3527 21.6172C44.9334 22.0384 43.5353 22.5799 42.1886 23.2087C41.768 23.4012 41.3383 23.6058 40.9176 23.8284C40.5393 24.063 40.1671 24.3157 39.81 24.5714C38.6782 25.3897 37.8248 26.3734 37.2377 27.652C37.0652 28.031 37.0017 28.4161 36.9956 28.8011C36.7142 28.0882 36.5689 27.324 36.578 26.5298C36.578 26.5158 36.575 26.5038 36.5689 26.4937C36.1937 26.7916 35.8396 27.1345 35.5975 27.5286C35.3887 27.9859 35.2707 28.5033 35.2495 29.0358C34.5565 28.4672 33.8151 27.9829 32.9465 27.4805C31.3638 26.584 29.3332 26.2591 27.5447 26.1989C25.5353 26.1297 23.7226 26.232 21.8372 26.9961C21.1775 27.2639 20.5178 27.6881 19.8974 28.1092C19.9156 28.037 19.9246 27.9588 19.9337 27.8866C19.9156 27.8565 19.9004 27.8234 19.9035 27.7843C19.9398 27.2248 19.8006 26.7735 19.5585 26.3493C19.4011 26.6803 19.2922 27.0413 19.0501 27.3421C18.8806 27.5587 18.699 27.7663 18.4963 27.9408C18.5144 26.7705 17.888 25.7958 17.2979 24.794C16.7531 23.8675 15.9663 23.0492 15.119 22.3483C14.6771 22.0143 14.2172 21.6894 13.7602 21.3766C12.5043 20.5072 11.2182 19.6949 9.86543 19C9.74439 19.6317 9.35703 20.2725 9.0998 20.8351C8.63981 21.8579 8.1193 22.8446 7.75615 23.9216C7.24774 25.4228 7.12367 27.0142 7.47168 28.5665C7.80154 30.0255 8.69428 31.4214 9.99254 32.1584C10.9609 32.712 12.1048 32.8834 13.1065 33.2655C12.4589 34.1319 11.5692 34.9411 10.9942 35.5398C9.70807 36.8996 8.19798 37.8743 6.6425 38.873C4.64215 40.1786 1.6825 41.2646 1.00462 43.8067C0.968306 43.9481 1.15593 43.939 1.22251 43.8729C1.6946 43.4397 2.26959 43.1809 2.88694 43.0185C2.37853 43.8458 2.03959 44.7092 2.0517 45.7109C2.0517 45.7651 2.08801 45.7831 2.13341 45.7892C2.24235 45.4974 2.35432 45.1935 2.52076 44.9468C2.95049 44.27 3.46495 43.6322 4.01572 43.0606C5.15964 41.9084 6.48513 40.9758 7.83181 40.0884L7.82878 40.0914Z" fill="#785C42"/>
<path d="M32.3687 51.5264C31.3005 50.2268 30.1808 48.8911 28.8916 47.7871C28.6465 47.6066 28.3892 47.4291 28.135 47.2576C27.6327 46.9116 27.1424 46.5296 26.5523 46.3641C23.5049 45.4646 22.4457 48.9453 21.559 51.1504C20.745 53.1659 19.1713 55.3741 19.365 57.6243C19.595 57.7928 19.825 57.9702 20.0519 58.1357C20.4121 58.4967 20.7782 58.8758 21.1505 59.2488C22.1915 60.3228 23.4504 61.0448 24.8939 61.4028C26.7551 61.863 28.6132 61.5201 30.2988 60.7439C31.3882 60.055 32.3627 59.1555 33.3159 58.2651C34.0483 57.5792 34.8018 56.9564 35.5886 56.3698C34.8139 54.6039 33.5944 53.0276 32.3687 51.5234V51.5264Z" fill="#F3EEE1"/>
<path d="M40.6599 32.8502C42.1367 32.5374 43.4834 31.8966 44.7938 31.1686C45.0722 30.8768 45.3113 30.5248 45.517 30.0645C45.9165 29.1379 45.9407 27.8775 46.0285 26.8847C46.1253 25.8107 46.089 24.7368 46.1344 23.6598C46.1404 23.6237 46.0951 23.6237 46.0678 23.6267C45.9589 23.6568 45.856 23.6929 45.7561 23.744C44.1522 24.0809 42.512 24.833 41.0897 25.6272C39.5977 26.4605 38.705 27.4864 38.3993 29.2162C38.3812 29.3245 38.4992 29.3094 38.5537 29.2703C39.0379 28.9033 39.5554 28.6446 40.094 28.443C39.519 29.1289 39.1529 29.89 39.4464 30.8888C39.6552 31.5807 40.1757 32.3238 40.6599 32.8532V32.8502Z" fill="#A38D75"/>
<path d="M16.154 28.2958C16.1782 28.1514 16.1843 27.998 16.1873 27.8506C15.9603 26.7405 15.458 25.8621 14.7014 24.9866C13.6059 23.7111 12.0474 23.1967 10.7704 22.2009C10.7461 22.1829 10.725 22.1829 10.7068 22.1949C10.6705 22.216 10.6402 22.237 10.613 22.2581C10.3104 22.8176 10.0441 23.4012 9.81406 23.9909C9.81406 24.0119 9.80498 24.027 9.79893 24.045C9.42671 25.2845 9.26329 26.4397 9.36618 27.7363C9.50539 29.3066 10.4375 30.3776 11.7085 30.8378C11.9536 30.9552 12.2169 31.0454 12.5044 31.1116C13.0461 31.2379 14.2082 31.5989 14.7559 31.4064C15.0888 31.2831 15.1644 30.8529 15.2855 30.5701C15.7848 29.3878 15.7334 28.4823 15.1826 27.6851C15.4883 27.8536 15.7939 28.0431 16.0723 28.2808C16.0935 28.3018 16.1238 28.2958 16.154 28.2898V28.2958Z" fill="#A38D75"/>
<path d="M17.4951 41.4725C17.4951 41.4725 19.3774 40.6151 22.1797 41.4454C22.1797 41.4454 19.9464 39.6193 18.8811 39.6133C17.825 39.6043 17.4951 41.4755 17.4951 41.4755V41.4725Z" fill="#121415"/>
<path d="M28.8555 40.7441C28.8555 40.7441 31.2129 39.27 34.8625 40.6177C34.8625 40.6177 33.0892 38.6353 31.0737 38.3856C29.0673 38.1238 28.8555 40.7441 28.8555 40.7441V40.7441Z" fill="#121415"/>
<path d="M27.9414 61.5982C27.9414 61.5982 33.1586 59.703 33.6005 56.5442C34.0423 53.3945 32.8984 52.0317 32.8984 52.0317C32.8984 52.0317 33.6035 52.3566 34.4902 51.8964C34.4902 51.8964 32.7773 51.8964 31.6334 51.397L32.5625 52.2032C32.5625 52.2032 33.4824 53.8758 32.9407 56.6194C32.396 59.3721 27.9414 61.5952 27.9414 61.5952V61.5982Z" fill="#785C42"/>
<path d="M23.2959 54.4258C23.2959 54.4258 20.5571 54.9252 20.8719 56.0173C21.1775 57.1063 22.8238 58.8451 24.9573 58.4871C27.0908 58.1321 28.4102 55.578 27.578 55.2501C26.7518 54.9132 24.6849 54.3416 23.2959 54.4258V54.4258Z" fill="#222224"/>
<path d="M30.3682 54.9917C30.3682 54.9917 37.5282 54.9195 40.0158 60.6655C40.0158 60.6655 36.7444 55.3858 30.3682 54.9917V54.9917Z" fill="#F3F0F8"/>
<path d="M29.8018 56.165C29.8018 56.165 36.6441 56.869 38.4144 62.6149C38.4144 62.6149 35.8451 57.236 29.8018 56.165Z" fill="#F3F0F8"/>
<path d="M29.9717 56.5859C29.9717 56.5859 36.003 59.9432 35.4038 65.9208C35.4038 65.9208 35.1254 59.9583 29.9717 56.5859Z" fill="#F3F0F8"/>
<path d="M20.2422 56.1462C20.2422 56.1462 13.6329 55.7581 11.1211 60.9445C11.1211 60.9445 14.338 56.2244 20.2422 56.1462V56.1462Z" fill="#F3F0F8"/>
<path d="M20.7235 57.2544C20.7235 57.2544 14.3865 57.5943 12.5254 62.8258C12.5254 62.8258 15.1068 57.9674 20.7235 57.2544V57.2544Z" fill="#F3F0F8"/>
<path d="M20.5515 57.6357C20.5515 57.6357 14.8501 60.4636 15.183 66.0139C15.183 66.0139 15.6611 60.5147 20.5515 57.6357Z" fill="#F3F0F8"/>
<g style="mix-blend-mode:screen" opacity="0.5">
<path d="M24.9608 46.6499C24.9608 46.6499 23.7594 46.8184 23.0452 48.5782C22.3431 50.3351 21.5563 51.9536 20.9995 52.9343C20.4457 53.903 19.7859 55.5786 19.8707 56.1592C19.8707 56.1592 20.7967 54.3753 23.142 54.1707C23.142 54.1707 24.2285 54.3542 24.404 53.7465C24.5825 53.1359 25.9928 46.9176 24.9608 46.6529V46.6499Z" fill="#F3EEE1"/>
</g>
<g style="mix-blend-mode:multiply">
<path d="M16.3783 25.4919C17.2559 27.0442 17.7794 28.6988 17.731 30.3233C18.194 29.9051 19.3742 28.6687 19.3833 28.9996C19.3833 29.4569 19.3742 29.9082 19.3349 30.3444C20.155 29.5772 21.0901 28.9395 22.1221 28.5183C24.0921 27.7121 26.0683 27.7722 28.1594 28.0249C30.8951 28.3559 33.9213 29.117 35.6947 31.2108C35.8248 30.5279 35.9096 29.839 35.9792 29.138C35.9973 28.9094 37.3501 30.212 37.8857 30.7294C37.8706 29.848 37.7132 28.9545 38.0249 28.0641C38.4183 26.9028 39.2203 25.9853 40.1463 25.2001C41.4536 24.087 42.9032 23.2176 44.3861 22.3633C44.5101 22.2911 44.6463 22.2219 44.7886 22.1467C43.9049 22.4656 43.0364 22.8235 42.1951 23.2176C41.7744 23.4102 41.3447 23.6147 40.924 23.8374C40.5458 24.072 40.1735 24.3247 39.8164 24.5804C38.6846 25.3987 37.8312 26.3824 37.2441 27.6609C37.0717 28.04 37.0081 28.4251 37.0021 28.8101C36.7206 28.0971 36.5753 27.333 36.5844 26.5388C36.5844 26.5248 36.5814 26.5128 36.5753 26.5027C36.2001 26.8006 35.846 27.1435 35.6039 27.5376C35.3951 27.9949 35.2771 28.5123 35.2559 29.0448C34.5629 28.4762 33.8215 27.9919 32.9529 27.4895C31.3702 26.593 29.3396 26.2681 27.5511 26.2079C25.5417 26.1387 23.729 26.241 21.8436 27.0051C21.1839 27.2729 20.5242 27.697 19.9038 28.1182C19.922 28.046 19.9311 27.9678 19.9401 27.8956C19.922 27.8655 19.9069 27.8324 19.9099 27.7933C19.9462 27.2338 19.807 26.7825 19.5649 26.3583C19.4075 26.6892 19.2986 27.0502 19.0565 27.3511C18.887 27.5677 18.7054 27.7753 18.5027 27.9497C18.5208 26.7795 17.8944 25.8048 17.3043 24.803C16.7596 23.8765 15.9727 23.0582 15.1254 22.3573C14.6836 22.0233 14.2236 21.6984 13.7666 21.3856C12.5773 20.5673 11.3638 19.8032 10.0928 19.1323C11.0158 20.3236 12.3897 21.0426 13.5336 22.0865C14.6321 23.0762 15.6308 24.1893 16.3843 25.4919H16.3783Z" fill="#A38D75"/>
</g>
<g style="mix-blend-mode:multiply">
<path d="M52.2357 43.653C52.841 43.6049 53.419 43.4244 53.876 43.0995C52.4809 42.8197 51.113 42.0135 50.0175 41.2614C49.2307 40.7379 48.4348 40.1724 47.7085 39.5466C47.6056 39.4684 47.4967 39.3842 47.3877 39.303C46.1409 38.3614 45.1453 37.1069 44.077 35.9758C43.6322 35.5095 43.2024 35.0251 42.7909 34.5227C43.4234 34.267 44.08 34.0474 44.7609 33.8489C45.1604 33.7255 45.5205 33.542 45.8474 33.3164C46.0471 33.163 46.2317 33.0035 46.4072 32.8381C46.4466 32.7899 46.498 32.7478 46.5283 32.7027C46.5283 32.7027 46.5323 32.7007 46.5404 32.6967C47.2939 31.9055 47.8447 30.8977 48.1412 29.8237C48.0444 29.9892 47.9445 30.1546 47.8235 30.3141C46.1046 32.7027 43.3901 33.4909 40.618 33.8398C42.228 36.0841 43.8833 38.2892 45.4872 40.5244C46.6342 42.1128 47.4119 43.6951 46.849 45.6686C46.7825 45.9063 46.3951 45.9363 46.3074 45.6927C46.0743 45.0399 45.5629 44.36 44.9213 43.8095C45.3692 45.0098 45.3178 46.3034 44.5521 47.3864C42.5034 50.3345 39.1019 52.7622 35.9032 54.2845C35.7972 54.3326 35.6247 54.3175 35.5521 54.2153C35.1496 53.6046 34.7986 52.9969 34.2902 52.4764C34.1873 52.3651 34.2115 52.1485 34.3235 52.0553C34.5444 51.8868 34.729 51.7093 34.9015 51.5108C33.8786 51.7514 32.8921 51.6461 31.9388 51.2551C32.4896 52.0402 32.9798 52.9096 32.9132 53.8362C32.8346 55.0004 32.3836 56.0744 31.5877 56.9258C29.8265 58.7939 26.9364 60.4605 24.3157 60.1026C22.2579 59.8258 19.622 57.9636 19.8006 55.6322C19.9791 53.3368 21.3167 51.4175 22.1641 49.3418C20.197 50.6985 18.469 52.4885 17.8517 54.826C17.8063 54.9704 17.6096 55.0726 17.4764 55.0095C13.6997 53.0721 9.99254 50.6444 6.8392 47.7804C5.70134 46.7366 4.79044 45.5663 4.58163 43.999C4.44242 42.913 5.09306 41.9262 5.8012 41.0749C5.21109 41.4148 4.67544 41.839 4.23059 42.4196C4.06414 42.6422 3.66771 42.5339 3.70705 42.2271C3.79481 41.496 4.0127 40.8523 4.31532 40.2446C2.84154 41.129 1.44948 42.1639 1.00462 43.8064C0.968306 43.9478 1.15593 43.9388 1.22251 43.8726C1.6946 43.4394 2.26959 43.1807 2.88694 43.0183C2.37853 43.8456 2.03959 44.7089 2.0517 45.7107C2.0517 45.831 2.20604 45.804 2.25748 45.7438C2.64181 45.3287 2.9747 44.9406 3.43771 44.6127C3.54968 44.5375 3.66165 44.4713 3.7827 44.4081C3.59508 45.3106 3.7706 46.174 4.46966 47.0855C5.81028 48.8063 8.17074 49.9765 9.95017 51.1618C11.89 52.4704 13.7995 53.8272 15.7847 55.0636C17.2737 56.0022 18.6476 57.0942 20.0578 58.1321C20.4179 58.4931 20.7841 58.8722 21.1563 59.2452C22.1973 60.3192 23.4563 61.0412 24.8998 61.3991C26.7609 61.8594 28.619 61.5165 30.3046 60.7403C31.3941 60.0514 32.3685 59.1519 33.3218 58.2615C34.8742 56.8114 36.5114 55.6201 38.3484 54.5672C40.382 53.4 42.3793 52.1997 44.3554 50.9362C45.1755 50.4188 46.0047 49.9164 46.8067 49.3839C47.0094 49.2485 47.2485 49.1041 47.4725 48.9356C47.996 48.3009 48.4408 47.5759 48.689 46.8027C49.0491 47.3202 49.1308 47.8737 49.1429 48.5175C50.1628 48.2287 50.8074 46.7757 50.8981 45.7288C50.9133 45.3587 50.8739 44.9947 50.7953 44.6337C50.7953 44.6337 50.8003 44.6357 50.8104 44.6398C50.8558 44.6518 50.9012 44.6638 50.9587 44.6879C50.9799 44.6728 51.0041 44.6638 51.0313 44.6698C51.8696 44.7631 52.6049 45.1241 53.304 45.5753C53.3827 44.8022 52.8924 44.1524 52.2418 43.644L52.2357 43.653Z" fill="#A38D75"/>
</g>
<path d="M47.757 27.3992C47.7933 26.9961 47.8115 26.5749 47.8024 26.1598C47.7388 25.3716 47.5058 24.5864 47.1578 23.8403C47.4786 25.6544 47.4302 27.7752 46.8643 29.505C47.3545 28.8642 47.6329 28.1513 47.757 27.3992V27.3992Z" fill="#A38D75"/>
<g style="mix-blend-mode:multiply" opacity="0.6">
<path d="M17.6494 46.141C17.6494 46.141 19.4077 45.8221 21.4594 46.3306L20.2974 45.9124C20.2974 45.9124 21.2052 45.4642 20.8784 44.2578C20.4336 42.6273 17.7765 43.5178 18.9719 45.6236L17.6524 46.138L17.6494 46.141Z" fill="#5C4735"/>
</g>
<path d="M20.77 44.6704C20.8063 45.2691 20.4371 45.7895 19.9408 45.8196C19.4414 45.8557 19.0057 45.3894 18.9603 44.7877C18.9179 44.18 19.2962 43.6596 19.7895 43.6325C20.2918 43.5994 20.7306 44.0627 20.77 44.6674V44.6704Z" fill="#222224"/>
<path d="M20.0102 44.4324C20.0254 44.6069 19.9194 44.7573 19.7742 44.7723C19.6259 44.7753 19.4988 44.646 19.4897 44.4595C19.4746 44.291 19.5805 44.1376 19.7258 44.1255C19.868 44.1225 19.9951 44.2579 20.0072 44.4354L20.0102 44.4324Z" fill="white"/>
<g style="mix-blend-mode:multiply" opacity="0.6">
<path d="M30.2927 45.3466C30.2927 45.3466 32.5381 44.9916 34.4477 45.2864C34.4477 45.2864 33.4521 44.9856 32.4413 44.9284C32.4413 44.9284 33.1222 43.5867 32.2991 42.8346C31.2036 41.8479 29.4968 43.4453 30.5438 45.0819L30.2927 45.3466V45.3466Z" fill="#5C4735"/>
</g>
<path d="M32.2504 43.9662C32.2928 44.5739 31.9206 45.0853 31.4273 45.1154C30.928 45.1515 30.4922 44.6912 30.4559 44.0896C30.4044 43.4819 30.7827 42.9675 31.2729 42.9314C31.7753 42.8983 32.2081 43.3615 32.2504 43.9662V43.9662Z" fill="#222224"/>
<path d="M31.8079 43.7284C31.82 43.8999 31.7081 44.0563 31.5658 44.0684C31.4145 44.0684 31.2874 43.942 31.2753 43.7645C31.2632 43.581 31.3752 43.4366 31.5174 43.4246C31.6687 43.4125 31.7928 43.5479 31.8079 43.7284Z" fill="white"/>
<g style="mix-blend-mode:multiply">
<path d="M43.9538 42.1676C42.359 39.8632 39.6959 38.7471 37.0873 38.1033C31.7339 36.7736 25.9992 37.3663 20.6276 38.3079C17.9494 38.7802 15.2258 39.4571 12.835 40.7988C10.7318 41.9841 8.69212 44.0628 8.94633 46.6109C9.1733 47.757 9.8663 48.8039 11.0405 49.541C12.3236 50.3593 13.8972 50.8646 15.4104 50.5367C16.9356 50.2028 18.2369 49.3635 19.4716 48.4309C21.4447 46.9448 23.4662 45.6362 26.0415 45.8798C30.8411 46.3281 35.6801 51.1775 40.6068 48.8942C43.052 47.7631 45.9269 45.0014 43.9568 42.1676H43.9538ZM21.7382 45.8949C20.8364 47.5796 18.0402 49.1048 16.0731 48.1271C14.2301 47.2035 14.4208 44.7728 15.6918 43.404C17.0566 41.951 19.7167 41.0274 21.5173 42.2518C21.5324 42.2638 21.5324 42.2729 21.5415 42.2759C22.6521 42.9527 22.2769 44.8901 21.7352 45.8949H21.7382ZM34.2275 46.2469C33.5375 46.5988 32.7204 46.7011 31.9608 46.6921C30.3267 46.668 28.3536 46.0603 27.7937 44.3937C26.6014 40.886 31.6219 39.6917 33.5587 40.6093C34.6421 41.1177 36.1401 42.7662 35.9797 44.0147C35.8859 44.7638 35.1172 45.6903 34.515 46.0754C34.4212 46.1446 34.3274 46.1957 34.2275 46.2469Z" fill="#A38D75"/>
</g>
<path d="M44.0597 41.8212C42.4619 39.5168 39.7988 38.4037 37.1841 37.7629C31.8368 36.4332 26.099 37.0229 20.7244 37.9675C18.0462 38.4398 15.3196 39.1197 12.9289 40.4644C10.8256 41.6467 8.79199 43.7284 9.04014 46.2735C9.27921 47.4197 9.97222 48.4605 11.1373 49.2036C12.4235 50.0219 13.9941 50.5273 15.5072 50.1994C17.0264 49.8654 18.3398 49.0171 19.5745 48.0935C21.5415 46.6044 23.563 45.3048 26.1474 45.5395C30.938 45.9847 35.7769 50.8281 40.7036 48.5508C43.1519 47.4167 46.0238 44.661 44.0628 41.8242L44.0597 41.8212ZM21.8381 45.5515C20.9393 47.2271 18.14 48.7644 16.1669 47.7746C14.3239 46.8601 14.5207 44.4264 15.7886 43.0606C17.1535 41.6016 19.8135 40.69 21.6081 41.9084C21.6232 41.9144 21.6293 41.9234 21.6384 41.9325C22.755 42.6093 22.3798 44.5407 21.8381 45.5515ZM34.3274 45.9005C33.6374 46.2584 32.8263 46.3577 32.0607 46.3457C30.4265 46.3246 28.4534 45.7079 27.8906 44.0503C26.7043 40.5426 31.7218 39.3453 33.6646 40.2538C34.742 40.7713 36.243 42.4108 36.0795 43.6713C35.9857 44.4204 35.211 45.3409 34.6149 45.738C34.5241 45.7922 34.4272 45.8523 34.3304 45.9005H34.3274Z" fill="#289B38"/>
</g>
</svg>
