<svg width="56" height="71" viewBox="0 0 56 71" fill="none" xmlns="http://www.w3.org/2000/svg">
<mask id="mask0_313_2017" style="mask-type:alpha" maskUnits="userSpaceOnUse" x="0" y="0" width="56" height="71">
<path fill-rule="evenodd" clip-rule="evenodd" d="M56 0H0V42H0.0175243C0.00587391 42.3319 0 42.6653 0 43C0 58.464 12.536 71 28 71C43.464 71 56 58.464 56 43C56 42.6653 55.9941 42.3319 55.9825 42H56V0Z" fill="#D9D9D9"/>
</mask>
<g mask="url(#mask0_313_2017)">
<path d="M51.0965 37.8143C50.6001 38.2676 45.766 42.1592 42.258 43.7992C40.5466 44.5989 38.7833 45.2843 37.0645 45.8924L36.6719 43.6039C40.3466 42.0892 45.8993 39.2884 49.4592 36.2481C49.8037 35.9532 50.8668 34.9029 51.1854 35.0061C51.6299 35.1535 50.978 35.8279 50.978 35.8279C50.978 35.8279 51.5706 35.3415 51.8262 35.5258C52.0485 35.6879 51.7114 36.2149 51.5743 36.366C51.6966 36.2923 52.2374 35.8206 52.3856 36.0712C52.6486 36.5171 51.6077 37.3573 51.1002 37.818L51.0965 37.8143Z" fill="#FFF18A"/>
<path d="M51.3631 37.7297C51.2927 37.7886 51.2297 37.8476 51.1742 37.8992C50.7667 38.2677 45.9103 42.2183 42.306 43.9025C40.765 44.6211 39.0648 45.3102 37.1015 45.9994L37.0237 45.7783C38.9759 45.0891 40.6724 44.4074 42.206 43.6887C45.7844 42.0156 50.6111 38.0945 51.0149 37.726C51.0742 37.6744 51.1371 37.6154 51.2075 37.5564C51.6187 37.1916 52.3633 36.5283 52.2892 36.1745C52.2855 36.1524 52.2744 36.1266 52.2633 36.1081C52.1447 36.086 51.8447 36.3035 51.7335 36.3882C51.6928 36.4214 51.6557 36.4472 51.6335 36.4582C51.5854 36.4914 51.5187 36.4804 51.4816 36.4361C51.4409 36.3882 51.4446 36.3256 51.4816 36.2814C51.5891 36.1634 51.7928 35.8391 51.7743 35.6696C51.7669 35.6291 51.7558 35.618 51.7484 35.6143C51.6298 35.5296 51.2631 35.7322 51.0408 35.9128C50.9927 35.9534 50.9223 35.9497 50.8815 35.9018C50.8408 35.8575 50.8408 35.7875 50.8815 35.7433C51.0334 35.5885 51.2372 35.3011 51.2112 35.1721C51.2149 35.1721 51.2112 35.1352 51.1371 35.1094C50.9408 35.0431 50.0629 35.8428 49.7702 36.1081C49.6702 36.2003 49.585 36.274 49.5258 36.3293C46.0511 39.3033 40.6243 42.0893 36.7051 43.7072L36.6162 43.4934C40.5169 41.883 45.9178 39.1079 49.3702 36.1524C49.4332 36.1008 49.5146 36.0234 49.611 35.9386C50.4333 35.1905 50.9334 34.7999 51.2075 34.8883C51.3594 34.9399 51.415 35.0394 51.4335 35.1131C51.4335 35.1131 51.4335 35.1205 51.4335 35.1242C51.452 35.2163 51.4298 35.3232 51.3816 35.4264C51.5557 35.3563 51.7409 35.3269 51.878 35.4264C51.9484 35.478 51.9928 35.5664 51.9965 35.6438C52.0077 35.7433 51.9817 35.8575 51.9373 35.9644C52.0669 35.8944 52.1892 35.8575 52.2929 35.8797C52.367 35.8944 52.4262 35.9349 52.467 36.0013C52.4892 36.0418 52.504 36.0823 52.5151 36.1266C52.6152 36.5983 51.8928 37.2432 51.3483 37.726L51.3631 37.7297Z" fill="#083028"/>
<path d="M36.5944 43.4196C40.4913 41.8128 45.8774 39.0452 49.3298 36.0933C49.3706 36.0564 49.4262 36.0085 49.4854 35.9532L49.5669 35.8795C50.43 35.0909 50.9301 34.7113 51.2413 34.8145C51.4265 34.8771 51.4969 35.0024 51.5228 35.1093C51.5376 35.1683 51.5339 35.2346 51.5228 35.3046C51.6895 35.2641 51.8303 35.2862 51.9377 35.3636C52.0229 35.4262 52.0821 35.5331 52.0896 35.64C52.097 35.6989 52.0896 35.7579 52.0784 35.8279C52.1673 35.7985 52.2488 35.7911 52.3229 35.8058C52.4192 35.8279 52.497 35.8795 52.5489 35.9643C52.5748 36.0085 52.5933 36.0564 52.6082 36.1117C52.7193 36.6276 51.9969 37.2726 51.4154 37.7885C51.345 37.8475 51.2857 37.9027 51.2264 37.958C50.819 38.3302 45.933 42.2956 42.3398 43.9761C40.784 44.7021 39.08 45.3875 37.1278 46.0767L37.05 46.1024L36.9204 45.7339L36.9945 45.7081C38.954 45.019 40.6469 44.3335 42.1694 43.6223C45.77 41.9418 50.556 38.0391 50.956 37.6706L51.1524 37.4974C51.5154 37.1731 52.2711 36.5023 52.2044 36.1965C52.1525 36.2112 52.034 36.2628 51.7747 36.4544C51.7302 36.4876 51.6932 36.5171 51.671 36.5281C51.5895 36.5834 51.4783 36.565 51.4154 36.4913C51.3524 36.4176 51.3524 36.3033 51.4191 36.2333C51.5376 36.1043 51.7043 35.8058 51.7006 35.6842C51.6487 35.6474 51.3672 35.7616 51.1079 35.968C51.1042 35.9717 51.0968 35.9753 51.0894 35.9827C51.0079 36.0454 50.8894 36.038 50.8227 35.9606C50.7523 35.8832 50.7523 35.769 50.8227 35.6916C50.9894 35.5184 51.1375 35.2825 51.1338 35.1977C51.1301 35.1977 51.1227 35.1904 51.1153 35.1904C51.0635 35.183 50.8301 35.2641 49.8262 36.1707C49.7262 36.2628 49.641 36.3402 49.578 36.3955C46.0923 39.3805 40.658 42.1666 36.7389 43.7844L36.6648 43.8139L36.5166 43.4527L36.5907 43.4233L36.5944 43.4196ZM48.8779 36.7677C49.0854 36.6018 49.2854 36.436 49.478 36.2702C49.5373 36.2149 49.6225 36.1412 49.7225 36.049C50.6263 35.2272 50.9486 35.0393 51.1042 35.0282C51.1301 35.0282 51.1487 35.0282 51.1672 35.0356C51.2746 35.0724 51.2931 35.1388 51.2968 35.1572L51.3042 35.2088H51.2968C51.2857 35.4078 51.0449 35.6953 50.9449 35.7984C50.9301 35.8132 50.9301 35.8353 50.9449 35.85C50.956 35.8648 50.9783 35.8648 50.9931 35.85C51.145 35.7284 51.6043 35.4115 51.7969 35.5478C51.8303 35.57 51.8488 35.6068 51.8562 35.6621C51.8784 35.8758 51.645 36.2259 51.5413 36.3365C51.5302 36.3476 51.5265 36.366 51.5413 36.3844C51.5524 36.3991 51.571 36.4028 51.5895 36.3881C51.608 36.377 51.6413 36.3512 51.6784 36.3218C51.9895 36.0933 52.1636 36.0085 52.2711 36.0306L52.3044 36.038L52.3229 36.0638C52.3415 36.0896 52.3563 36.1228 52.3637 36.1596C52.4415 36.5244 51.8636 37.0772 51.2561 37.6153L51.0635 37.7848C50.6634 38.1533 45.8515 42.0745 42.2361 43.7623C40.7284 44.4699 39.0541 45.1443 37.1204 45.8261L37.1426 45.8961C39.0578 45.218 40.7358 44.5436 42.262 43.8286C45.8404 42.1555 50.7004 38.2086 51.1079 37.8401C51.1635 37.7885 51.2264 37.7295 51.2968 37.6669C51.8154 37.2025 52.5304 36.5687 52.4378 36.1449C52.4304 36.108 52.4155 36.0748 52.4007 36.0454C52.3711 35.9975 52.3303 35.9717 52.2785 35.9606C52.2007 35.9459 52.1007 35.9717 51.9747 36.038L51.7784 36.1412L51.8636 35.9348C51.908 35.8279 51.9266 35.7284 51.9192 35.651C51.9155 35.5994 51.8858 35.5294 51.8303 35.4926C51.7376 35.4262 51.5969 35.4262 51.4117 35.4999L51.2264 35.5736L51.3079 35.3931C51.3524 35.2936 51.3672 35.2051 51.3524 35.1314C51.3302 35.0503 51.2746 34.9951 51.1783 34.9619C50.919 34.8771 50.2856 35.4226 49.6595 35.9938L49.578 36.0675C49.5151 36.1264 49.4595 36.1743 49.415 36.2112C45.9848 39.152 40.6136 41.916 36.7129 43.5338L36.7389 43.6002C40.4247 42.0745 45.4144 39.5242 48.8594 36.7677H48.8779Z" fill="#083028"/>
<path d="M47.4737 16.3144C45.9661 13.3036 43.8694 11.074 41.1208 9.48565C36.4534 6.78435 33.3491 7.17499 30.4079 8.23634C29.0151 8.74122 28.1186 9.40826 27.463 10.4844C27.3963 10.5949 27.3407 10.7202 27.2815 10.8381C27.2815 10.8271 27.2815 10.8123 27.2815 10.7976C27.2815 10.7976 18.8727 21.1643 15.4536 37.8143C13.2903 48.3505 12.9346 53.2408 13.8163 62.594C14.3201 67.9045 15.0757 72.3563 17.1983 78.4701C17.1983 78.4701 17.8095 79.8042 19.1986 79.8853C19.395 80.2722 19.7358 80.5965 20.1432 80.8471C20.1358 80.8914 20.1247 80.9356 20.1284 80.9908C20.1247 81.0572 20.1173 81.1235 20.1099 81.1935C20.1395 81.2083 20.1877 81.2304 20.2025 81.2378C20.2396 81.2599 20.2618 81.2857 20.2877 81.3115C20.3692 81.3446 20.4507 81.3778 20.5248 81.4036C20.5767 81.422 20.6211 81.4515 20.6619 81.4847C20.6804 81.4847 20.6952 81.4847 20.7174 81.492C20.91 81.5547 21.1101 81.6137 21.3138 81.6431C21.4953 81.6726 21.7472 81.7205 21.9287 81.6947C21.9584 81.691 21.9843 81.6947 22.0102 81.6984C22.0473 81.6984 22.0806 81.691 22.1139 81.6947C22.1176 81.6947 22.1251 81.6947 22.1288 81.6947C22.1362 81.5952 22.1473 81.4957 22.1547 81.3962C22.2918 81.3925 22.4288 81.3815 22.5585 81.3557C24.1291 83.2536 26.5554 81.8901 26.5554 81.8901C26.5554 81.8901 28.4335 83.6258 30.8635 81.7279C30.8747 81.7205 33.4677 82.5166 34.7568 80.8361C35.568 80.7808 36.1607 80.6555 36.6534 80.5007C36.7979 80.7329 36.946 80.9798 37.0905 81.2267C37.5017 80.615 38.1536 80.1801 38.8352 80.0585C38.6834 79.8116 38.5315 79.5647 38.3722 79.3251C38.6685 78.9124 38.8538 78.5033 39.2131 78.2158C40.9689 77.5009 41.0615 76.1042 41.0615 76.1042C41.0615 76.1042 39.0093 62.5092 39.1501 57.8658C39.3464 51.2544 39.5687 42.3361 42.3877 36.5023C45.3697 30.3295 48.6183 24.879 48.6183 24.879C50.2223 22.5389 49.1629 19.6643 47.4848 16.3144H47.4737Z" fill="#FFF18A"/>
<path d="M47.6847 16.2113C47.0772 14.9989 46.3623 13.8933 45.5584 12.9204C44.3508 11.4573 42.9358 10.267 41.2392 9.283C36.3754 6.46378 33.1193 7.0092 30.33 8.01896C28.8557 8.54964 27.9407 9.25352 27.2665 10.3628C27.1813 10.4991 27.0665 10.7018 27.085 10.6687C26.8702 10.934 18.5873 21.3817 15.2238 37.7664C13.0271 48.4611 12.7049 53.3367 13.5828 62.6162C14.0754 67.8382 14.8163 72.3232 16.987 78.566C16.9907 78.577 17.113 78.8387 17.3649 79.1409C17.6909 79.5352 18.2465 80.0143 19.0578 80.1027C19.117 80.2059 19.1874 80.3054 19.2689 80.4012C19.4319 80.6002 19.6393 80.7735 19.8653 80.9319C19.8653 80.9651 19.8579 81.0019 19.8542 81.0351C19.8653 81.0462 19.8801 81.0499 19.8912 81.0646C19.8949 81.0683 19.9023 81.072 19.906 81.0757C19.9431 81.0941 19.9875 81.1162 20.032 81.142C20.0135 81.1309 20.0801 81.1678 20.1024 81.1825C20.1024 81.1825 20.1061 81.1825 20.1098 81.1825C20.1098 81.1457 20.1172 81.1125 20.1209 81.0757C20.7395 81.4368 21.473 81.6248 22.162 81.599C22.162 81.6284 22.1546 81.6579 22.1509 81.6837C22.2175 81.6837 22.2805 81.6911 22.3361 81.7169C22.3398 81.6763 22.3472 81.6358 22.3509 81.599C22.3879 81.5953 22.4287 81.6026 22.4657 81.599C23.9104 83.2131 25.9663 82.4171 26.522 82.1554C27.0035 82.5129 28.7631 83.5816 30.9153 81.9712C31.6376 82.1407 33.7009 82.465 34.8752 81.0499C37.6905 80.8398 38.3165 79.8558 38.8203 79.0635C38.987 78.8055 39.1278 78.577 39.3352 78.4075C41.1762 77.6447 41.2874 76.1706 41.2911 76.06C41.2726 75.9237 39.2463 62.4356 39.3833 57.8622L39.3945 57.5305C39.5871 51.096 39.8464 42.2846 42.6024 36.5908C45.3288 30.9524 48.7775 25.0559 48.8145 25.0007C50.5704 22.4431 49.2257 19.2516 47.6958 16.2002L47.6847 16.2113ZM17.5427 78.9972C17.3093 78.7134 17.1982 78.4739 17.1982 78.4739C15.0756 72.36 14.3162 67.9082 13.8161 62.5977C12.9308 53.2445 13.2901 48.3542 15.4535 37.818C18.3762 23.5745 24.9032 14.0001 26.7442 11.5126C26.4442 12.3897 26.3775 13.2926 26.5775 14.2507C26.6294 14.505 26.7072 14.7446 26.7701 14.9915C25.7478 17.0995 23.8178 20.899 23.1214 21.964C21.7878 24.002 20.5469 26.8138 19.3393 30.5544C18.3762 33.5247 16.3981 46.5558 16.1202 48.848C15.8313 51.225 15.5683 56.2701 16.0795 59.6937C16.3203 61.3189 16.4314 62.9257 16.5499 64.6283C16.6907 66.6773 16.8389 68.8 17.2278 71.3097C17.9057 75.6989 18.8762 79.4984 18.9689 79.8485C18.3058 79.7305 17.8316 79.3436 17.5501 79.0045L17.5427 78.9972ZM19.4467 80.2612C19.3504 80.1433 19.2689 80.0217 19.2022 79.889C19.1948 79.889 19.1911 79.889 19.1837 79.889C19.1837 79.8743 19.2096 79.8669 19.2059 79.8521C19.1948 79.8116 18.1613 75.8463 17.4538 71.2728C17.0685 68.7742 16.9204 66.6552 16.7796 64.6099C16.6611 62.9036 16.5499 61.2931 16.3054 59.6569C15.798 56.2517 16.061 51.2361 16.3462 48.8701C16.624 46.5816 18.5984 33.58 19.5541 30.6207C20.758 26.8986 21.9879 24.1088 23.3103 22.0856C23.9993 21.0353 25.8292 17.4901 26.8628 15.3637C27.3999 17.3537 28.2334 19.1706 29.3669 20.7626C28.626 21.8719 27.2888 23.943 26.4293 25.8151C26.1775 26.3642 25.8552 27.0239 25.5144 27.7241C24.5364 29.7289 23.3177 32.2275 22.7287 34.1549C21.9138 36.8267 20.6136 45.2549 20.558 48.2436C20.5395 49.1318 20.4395 50.4142 20.3246 51.8957C20.0468 55.4557 19.6616 60.3313 20.1431 63.8949C20.3024 65.0669 20.4284 66.5336 20.5617 68.0851C20.7766 70.5911 20.9988 73.1855 21.3952 74.995C22.0212 77.8547 22.3139 81.2747 22.3213 81.3668C21.3396 81.4663 20.095 81.0462 19.4504 80.2612H19.4467ZM22.5546 81.3557C22.5546 81.3226 22.2546 77.84 21.6211 74.9397C21.2285 73.1486 21.0062 70.5616 20.7914 68.063C20.658 66.5115 20.5321 65.0411 20.3728 63.8618C19.8949 60.3276 20.2765 55.4631 20.558 51.9142C20.6765 50.429 20.7766 49.1428 20.7914 48.2473C20.8469 45.2733 22.1397 36.882 22.951 34.2212C23.5326 32.3122 24.7476 29.8247 25.7255 27.8273C26.0663 27.1271 26.3886 26.4637 26.6442 25.9109C27.4703 24.1162 28.7927 22.1298 29.541 21.0058C29.7262 21.2564 29.9188 21.507 30.1151 21.7466C30.7004 22.4541 31.3376 23.0917 31.9969 23.6924C30.8856 25.1739 28.726 28.2842 27.7777 30.875C27.4851 31.6747 27.2036 32.4265 26.9368 33.134C25.9848 35.6732 25.2329 37.6817 24.9958 39.2626C24.7068 41.2343 23.903 50.3663 23.74 53.0308C23.5918 55.4631 23.2844 60.5266 23.7178 63.6775C23.8734 64.8015 23.966 66.412 24.0623 68.1219C24.2364 71.1881 24.4327 74.6596 25.055 76.926C26.0108 80.4234 26.359 81.9343 26.3627 81.9528C26.3627 81.9638 26.3701 81.9712 26.3775 81.9822C25.8107 82.2439 23.8845 82.9699 22.5583 81.3631L22.5546 81.3557ZM26.5775 81.9122C26.5775 81.9122 26.5923 81.9012 26.5886 81.8938C26.5886 81.879 26.2367 80.3644 25.2773 76.8634C24.6661 74.6228 24.4698 71.1623 24.2957 68.1072C24.1993 66.3936 24.1067 64.7794 23.9512 63.648C23.5178 60.5192 23.8252 55.4704 23.9734 53.0455C24.1364 50.3848 24.9402 41.2674 25.2292 39.2995C25.4588 37.7406 26.2071 35.7469 27.1554 33.2188C27.4221 32.5075 27.7036 31.7558 27.9963 30.9561C28.9261 28.4095 31.119 25.3876 32.2266 23.9098C33.2194 24.7869 34.2603 25.5387 35.2864 26.1689C34.5233 27.2008 33.312 28.8739 32.9452 29.6883C32.7637 30.0937 32.36 30.9008 31.8895 31.8368C30.9079 33.7974 29.5632 36.4803 29.1817 37.6338C28.8149 38.7541 28.6631 42.7563 28.5297 46.2904C28.4593 48.1626 28.3926 49.9278 28.3 51.0149C28.2445 51.682 28.1704 52.5001 28.0815 53.4067C27.7703 56.7308 27.3406 61.2858 27.5073 63.5264C27.8259 67.8566 28.4186 71.8699 29.2632 75.4593C30.3522 80.0733 30.7338 81.7464 30.7375 81.7648C30.7375 81.7795 30.7486 81.7906 30.756 81.8017C28.4667 83.5079 26.7035 82.0412 26.5701 81.9233L26.5775 81.9122ZM30.9449 81.7501C30.9523 81.7316 30.9783 81.7243 30.9745 81.7058C30.9708 81.6874 30.5893 80.0143 29.4965 75.4003C28.6519 71.822 28.063 67.8198 27.7444 63.5043C27.5814 61.2821 28.0074 56.7382 28.3186 53.4214C28.4038 52.5148 28.4815 51.6967 28.5371 51.0297C28.6297 49.9352 28.6964 48.1662 28.7668 46.2941C28.9001 42.7747 29.052 38.7872 29.4076 37.6964C29.7818 36.5613 31.1227 33.8858 32.1007 31.9326C32.5711 30.9966 32.9749 30.1858 33.1601 29.7768C33.5157 28.9844 34.7641 27.3261 35.5235 26.3016C36.9274 27.1381 38.2721 27.7499 39.3833 28.1184C38.4795 29.7104 36.5977 33.0603 35.3086 35.4373C33.8824 38.0612 32.9897 44.3852 32.5081 47.7867C32.4044 48.5163 32.3229 49.0912 32.2637 49.445C31.9191 51.4277 31.7636 58.9899 32.0192 61.3447C32.1044 62.126 32.0821 63.0252 32.0525 64.0645C31.9969 66.143 31.9266 68.7337 32.6859 71.9509C33.8084 76.7123 34.6307 80.8214 34.6381 80.8619C34.6418 80.8803 34.6492 80.8988 34.6603 80.9135C34.6603 80.9135 34.6678 80.9135 34.6715 80.9172C33.4787 82.336 31.3376 81.8532 30.9412 81.7537L30.9449 81.7501ZM34.8604 80.8251C34.8604 80.8251 34.8678 80.8177 34.8678 80.814C34.8604 80.7735 34.038 76.6607 32.9156 71.8957C32.1636 68.7079 32.234 66.1356 32.2896 64.0682C32.3192 63.0179 32.3414 62.1113 32.2562 61.3153C32.0006 58.9751 32.1562 51.4535 32.497 49.4819C32.56 49.1281 32.6415 48.5495 32.7415 47.8161C33.2194 44.4331 34.1121 38.1349 35.516 35.5479C36.8274 33.1304 38.7277 29.7436 39.6093 28.1958C39.6167 28.1958 39.6241 28.1995 39.6315 28.2032C40.8799 28.5901 42.6802 28.4574 44.4027 27.9157C43.384 29.6072 42.1023 31.7594 41.2392 33.2446C39.776 35.7616 39.1833 37.2689 38.0831 42.3877C37.0607 47.1454 36.8163 55.5257 36.7311 58.2823L36.7162 58.7282C36.6829 59.8596 36.8681 62.185 37.0682 64.6467C37.2571 66.9943 37.4534 69.4228 37.4904 71.1844C37.5682 74.8144 39.0907 78.2343 39.1055 78.2675C39.1055 78.2785 39.1166 78.2859 39.1203 78.2933C39.124 78.297 39.1315 78.2933 39.1389 78.297C38.298 79.0709 38.4054 80.556 34.8641 80.8251H34.8604ZM42.3838 36.5061C39.5612 42.3435 39.3426 51.2582 39.1463 57.8695C39.0092 62.513 41.0577 76.1079 41.0577 76.1079C41.0577 76.1079 40.9614 77.442 39.3167 78.168C39.2907 78.1127 37.8016 74.7444 37.7238 71.177C37.6831 69.4081 37.4904 66.9795 37.2978 64.6283C37.1015 62.1739 36.9126 59.8522 36.9496 58.7356L36.9607 58.2897C37.0422 55.5405 37.2904 47.1749 38.3091 42.4393C39.4019 37.35 39.9872 35.8575 41.4355 33.3662C42.3542 31.7852 43.747 29.4819 44.7694 27.7867C45.9807 27.3592 47.1328 26.7438 47.9959 25.9441C46.9216 27.8088 44.5879 31.9474 42.3838 36.5097V36.5061ZM48.6145 24.8827C46.8735 27.4219 42.206 28.7596 39.6982 27.982C37.5238 27.3076 33.349 25.2955 30.2967 21.5992C30.067 21.3228 29.8447 21.0353 29.6299 20.7405C28.0074 18.5035 27.211 16.1781 26.8035 14.2028C26.4775 12.6219 26.9109 11.402 27.4666 10.4844C28.1185 9.4083 29.0187 8.74127 30.4115 8.24007C33.3527 7.17872 36.4606 6.7844 41.1244 9.48569C42.7728 10.4402 44.1879 11.6231 45.3806 13.0678C46.1771 14.0296 46.8735 15.1094 47.4773 16.3145C49.1553 19.6644 50.2148 22.5389 48.6108 24.879L48.6145 24.8827Z" fill="#083028"/>
<path d="M19.0915 79.9519L19.147 79.9593C19.2137 80.0809 19.2915 80.1988 19.3841 80.3094C20.0138 81.0759 21.2548 81.5513 22.3253 81.4408L22.4031 81.4334L22.3957 81.356C22.3957 81.3228 22.1031 77.8845 21.4659 74.9731C21.0733 73.1674 20.851 70.5803 20.6362 68.0743C20.5102 66.5965 20.3769 65.0708 20.2176 63.8805C19.7397 60.3389 20.1213 55.4818 20.3954 51.9365V51.8997C20.525 50.3003 20.6176 49.1026 20.6325 48.2439C20.688 45.2625 21.9845 36.8454 22.7995 34.1772C23.3885 32.2535 24.6035 29.7623 25.5814 27.7575C25.9037 27.0978 26.2371 26.4124 26.4964 25.8485C27.1298 24.4666 28.1189 22.7713 29.4265 20.8071L29.4561 20.7629L29.4228 20.7187C28.3115 19.1598 27.4743 17.354 26.9298 15.3455L26.8742 15.1392L26.7816 15.3345C25.7666 17.424 23.9256 20.9877 23.2366 22.0453C22.5958 23.0256 21.9771 24.1828 21.3733 25.5353C20.7251 26.9873 20.0953 28.6678 19.4693 30.5988C18.5136 33.5544 16.5355 46.5708 16.2577 48.863C15.9724 51.2326 15.7094 56.263 16.2169 59.6682C16.4614 61.2934 16.5725 62.9002 16.6911 64.5954C16.8318 66.6481 16.98 68.7524 17.3653 71.2805C18.0246 75.5443 18.9766 79.3107 19.1137 79.834C19.1063 79.8451 19.1026 79.8561 19.0989 79.8708L19.0878 79.9519H19.0915ZM17.5319 71.2547C17.1467 68.734 16.9985 66.6297 16.8578 64.5991C16.7392 62.8818 16.6281 61.2713 16.3836 59.6424C15.8798 56.252 16.1391 51.24 16.4244 48.8778C16.7022 46.5892 18.6766 33.5913 19.6286 30.6431C20.8288 26.932 22.0549 24.1459 23.3774 22.1264C24.0515 21.0945 25.8074 17.7004 26.8409 15.5888C27.3854 17.5125 28.2004 19.2519 29.2709 20.7629C27.9707 22.7161 26.9928 24.4039 26.3593 25.7785C26.1 26.3424 25.7666 27.0241 25.4444 27.6875C24.4627 29.696 23.244 32.1946 22.655 34.1293C21.8364 36.8085 20.5362 45.2478 20.4806 48.2402C20.4621 49.0952 20.3732 50.2892 20.2472 51.8886V51.9255C19.9657 55.4781 19.5841 60.3463 20.0657 63.9063C20.225 65.0892 20.3583 66.6149 20.4843 68.0927C20.6991 70.6024 20.9214 73.1931 21.3178 75.01C21.8993 77.6671 22.1883 80.7627 22.2364 81.2934C21.2474 81.3634 20.0879 80.9064 19.5138 80.2099C19.4249 80.103 19.3508 79.9925 19.2878 79.8708C19.2915 79.8524 19.2878 79.8377 19.2878 79.8266C19.1767 79.3954 18.2061 75.5849 17.5357 71.2547H17.5319Z" fill="#083028"/>
<path d="M39.2323 57.5345C39.4249 51.0852 39.6805 42.248 42.4551 36.5321C44.6221 32.0508 46.9002 27.9934 48.0671 25.9738L48.3338 25.5132L47.9448 25.8743C47.1484 26.6151 46.0408 27.2453 44.7443 27.7022L44.7184 27.7133L44.4591 28.1445C43.4589 29.7991 42.218 31.8592 41.3697 33.3186C40.9029 34.122 40.5251 34.8222 40.1917 35.5703C39.4842 37.1549 38.9767 38.9533 38.2321 42.4138C37.2209 47.1236 36.969 55.4781 36.8838 58.2199L36.8689 58.7248C36.8319 59.8414 37.0208 62.1595 37.2171 64.6065C37.3987 66.8434 37.6024 69.3568 37.6431 71.1699C37.7209 74.752 39.2286 78.1572 39.2434 78.1904L39.2767 78.2641L39.3508 78.2309C41.0215 77.4939 41.1363 76.1598 41.14 76.1045V76.0861C41.1178 75.9497 39.0915 62.4469 39.2286 57.8624L39.2397 57.5308L39.2323 57.5345ZM40.9733 76.1008C40.9622 76.2077 40.7992 77.3759 39.3545 78.0503C39.136 77.5344 37.8728 74.4277 37.8024 71.1663C37.7617 69.3494 37.5579 66.8324 37.3764 64.6102C37.1801 62.1447 36.9949 59.8341 37.0282 58.7248L37.043 58.2236C37.1282 55.4818 37.3801 47.142 38.3877 42.4433C39.4768 37.3687 40.0621 35.8798 41.5067 33.3923C42.355 31.9366 43.596 29.8765 44.5961 28.2219L44.8258 27.8386C45.9482 27.4406 46.9262 26.9136 47.693 26.2981C46.4742 28.4282 44.3443 32.2572 42.3106 36.4584C39.5212 42.2037 39.2656 51.0631 39.073 57.5234L39.0619 57.8551C38.9248 62.399 40.9066 75.666 40.9733 76.0971V76.1008Z" fill="#083028"/>
<path d="M47.7555 16.1746C47.148 14.9584 46.4294 13.8455 45.6219 12.8689C44.4068 11.3948 42.9881 10.2008 41.2841 9.2131C36.3907 6.37913 33.1161 6.92824 30.3045 7.94169C28.8117 8.47974 27.8856 9.19099 27.1966 10.3187C27.1521 10.3924 27.0966 10.4882 27.0595 10.5545C27.0447 10.584 27.0299 10.6061 27.0225 10.6172C26.7965 10.8973 23.2996 15.3233 19.9472 22.8375C18.1173 26.9429 16.3318 31.9696 15.1427 37.7481C12.9461 48.4538 12.6238 53.3368 13.5017 62.6237C13.9944 67.853 14.739 72.3454 16.9097 78.5919C16.9097 78.5993 17.0356 78.872 17.2986 79.1926C17.6246 79.5869 18.184 80.0771 19.0026 80.1803C19.0619 80.2724 19.1286 80.3682 19.199 80.4567C19.3471 80.6372 19.5361 80.8068 19.7731 80.9763C19.7731 80.9763 19.7731 80.98 19.7731 80.9837C19.8139 81.0021 19.8509 81.0279 19.888 81.0684C19.8917 81.0721 19.8991 81.0758 19.9028 81.0831C19.9102 81.0868 19.9176 81.0905 19.925 81.0942C19.9287 81.0426 19.9361 80.9947 19.9398 80.9431V80.8989L19.9065 80.8731C19.662 80.7036 19.4731 80.534 19.3286 80.3572C19.2508 80.265 19.1841 80.1655 19.1249 80.0697L19.1026 80.0365H19.0619C18.2729 79.9444 17.7358 79.4764 17.4209 79.0968C17.1727 78.7946 17.0579 78.544 17.0542 78.5403C14.8908 72.3159 14.15 67.8309 13.6573 62.6126C12.7831 53.3442 13.1017 48.4722 15.2946 37.785C18.647 21.4556 26.7928 11.1516 27.141 10.7204C27.141 10.7204 27.1484 10.713 27.1484 10.7093C27.1595 10.6872 27.1744 10.6651 27.1892 10.6393C27.2262 10.573 27.2818 10.4808 27.3262 10.4071C27.993 9.31261 28.8969 8.62346 30.349 8.09647C33.1235 7.09408 36.3537 6.55603 41.1915 9.35683C42.877 10.3334 44.2846 11.5164 45.4885 12.9758C46.2886 13.945 46.9999 15.0469 47.6037 16.252C49.1224 19.2776 50.4634 22.4395 48.7298 24.9713C48.7076 25.0008 45.2329 30.9451 42.5102 36.5725C39.7542 42.292 39.4875 51.1035 39.2949 57.5417L39.2838 57.877C39.1504 62.3804 41.11 75.5295 41.1915 76.0859C41.1915 76.0896 41.1433 77.5821 39.2838 78.3524L39.2615 78.3634C39.0467 78.544 38.9022 78.7725 38.7318 79.0378C38.2392 79.8154 37.6242 80.7773 34.8497 80.9837H34.8164L34.7941 81.0131C33.668 82.373 31.7047 82.0929 30.9157 81.905L30.8787 81.8976L30.849 81.9197C28.7524 83.4933 27.0299 82.4578 26.552 82.104L26.515 82.0745L26.4705 82.0966C25.8927 82.3656 23.9034 83.1211 22.5069 81.5586L22.4773 81.5254L22.4365 81.5328C22.4365 81.5328 22.4069 81.5328 22.3921 81.5328C22.3699 81.5328 22.3439 81.5328 22.3217 81.5328L22.255 81.5401V81.6065C22.2476 81.6396 22.2402 81.6728 22.2365 81.706C22.2921 81.717 22.3476 81.7428 22.3921 81.7833C22.3921 81.7539 22.3995 81.7244 22.4032 81.6949C22.4032 81.6949 22.4032 81.6949 22.4069 81.6949C23.8442 83.2685 25.8408 82.5573 26.4891 82.2624C27.0336 82.6531 28.7857 83.6407 30.9083 82.0708C31.7455 82.2624 33.7199 82.5204 34.8905 81.1421C37.7168 80.9247 38.354 79.926 38.8615 79.1226C39.0208 78.872 39.1578 78.6546 39.3505 78.4924C41.2952 77.678 41.3434 76.0933 41.3434 76.0786C41.2582 75.5073 39.2986 62.3731 39.4357 57.8844L39.4468 57.5527C39.632 51.3025 39.8839 42.8154 42.4213 37.129C42.4954 36.9668 42.5695 36.8047 42.6473 36.6462C45.3774 30.993 48.8298 25.104 48.8557 25.0634C50.6301 22.4727 49.2817 19.2555 47.7407 16.1856L47.7555 16.1746Z" fill="#083028"/>
<path d="M34.8646 80.899C37.5946 80.6926 38.2059 79.7492 38.6948 78.99C38.8467 78.7542 38.9912 78.5294 39.1875 78.3488L39.2542 78.2898L39.169 78.2161C39.0467 77.9323 37.6428 74.6267 37.565 71.1736C37.528 69.401 37.3316 66.976 37.1427 64.6322L37.1316 64.5143C36.939 62.1041 36.7575 59.8303 36.7908 58.7211L36.8056 58.2567C36.8871 55.5075 37.139 47.1383 38.154 42.399C39.2505 37.2912 39.8395 35.7913 41.299 33.2817C42.088 31.9255 43.3289 29.8323 44.4624 27.9565L44.5699 27.7759L44.3661 27.8385C42.6103 28.3913 40.8433 28.4982 39.6431 28.126L39.5802 28.1076L39.5283 28.1555C38.6652 29.6738 36.7649 33.0569 35.435 35.5076C35.3498 35.666 35.2646 35.8356 35.1831 36.0198C33.92 38.8575 33.105 44.6065 32.6531 47.7869L32.6457 47.8421C32.5457 48.5571 32.4642 49.1209 32.4049 49.4674C32.0641 51.4427 31.9085 58.979 32.1641 61.3229C32.2493 62.1115 32.2271 63.0144 32.1975 64.061C32.1419 66.1432 32.0752 68.7192 32.8272 71.9106C33.8385 76.204 34.6201 80.0256 34.772 80.781L34.7794 80.9064L34.8572 80.899H34.8646ZM32.9902 71.8738C32.2419 68.6971 32.3086 66.1358 32.3641 64.0757C32.3938 63.0107 32.416 62.1041 32.3308 61.3044C32.0752 58.968 32.2308 51.4611 32.5716 49.4931C32.6346 49.143 32.7124 48.5792 32.8124 47.8606V47.8237C33.2976 44.4333 34.1867 38.1536 35.5832 35.5813C36.8982 33.1637 38.7652 29.8323 39.6431 28.2881C40.8248 28.6419 42.5177 28.5535 44.218 28.0486C43.1141 29.8802 41.925 31.885 41.1619 33.1969C39.6913 35.7213 39.0986 37.2323 37.9984 42.3622C36.9797 47.1162 36.7278 55.4964 36.6463 58.2493L36.6315 58.7137C36.5982 59.8303 36.7797 62.1115 36.9723 64.5253L36.9834 64.6433C37.1723 66.9871 37.3687 69.4083 37.4057 71.1736C37.4835 74.7004 38.9356 78.0797 39.0245 78.2824C38.843 78.463 38.7059 78.6768 38.5615 78.9016C38.0688 79.6607 37.5131 80.5194 34.9349 80.7295C34.7757 79.9408 33.9978 76.1413 32.9939 71.8701L32.9902 71.8738Z" fill="#083028"/>
<path d="M22.492 81.4039C23.8515 83.0512 25.8333 82.3105 26.4075 82.0451L26.4816 82.0083L26.4297 81.8977C26.3334 81.4886 25.9519 79.9187 25.1258 76.8931C24.5072 74.6341 24.3109 71.1662 24.1368 68.1075C24.0405 66.3938 23.9478 64.7833 23.7923 63.6593C23.3589 60.5121 23.6663 55.4559 23.8145 53.0273C23.9775 50.3703 24.7813 41.2419 25.0702 39.2666C25.3036 37.6893 26.0556 35.6882 27.0076 33.1527C27.2743 32.4415 27.5558 31.6897 27.8485 30.89C28.8412 28.1776 31.1231 24.9788 32.0566 23.7295L32.101 23.6705L32.0455 23.6226C31.3046 22.9482 30.6897 22.3143 30.1711 21.6842C29.9637 21.4299 29.7673 21.1682 29.6006 20.9471L29.534 20.855L29.4562 20.9692C28.682 22.1301 27.3892 24.0759 26.5668 25.8633C26.3482 26.3387 26.0778 26.8951 25.7926 27.4848L25.6518 27.7796C25.1443 28.8188 24.5739 29.9871 24.0627 31.1369C23.5848 32.2093 23.1588 33.2633 22.8736 34.1846C22.0623 36.849 20.7658 45.2514 20.7103 48.2328C20.6917 49.1541 20.5843 50.5472 20.4769 51.8923C20.1991 55.4449 19.8138 60.3094 20.2917 63.8583C20.4547 65.0524 20.5843 66.5781 20.7103 68.0559C20.9288 70.5692 21.1511 73.1489 21.54 74.9436C22.1401 77.6891 22.4402 80.9727 22.4698 81.3412H22.5513L22.4883 81.3928L22.492 81.4039ZM21.6993 74.9215C21.3104 73.1378 21.0881 70.5618 20.8733 68.0706C20.7436 66.5744 20.614 65.045 20.451 63.8473C19.9731 60.3131 20.3547 55.4596 20.6362 51.9144C20.7436 50.5656 20.8547 49.1726 20.8696 48.2439C20.9251 45.2735 22.2142 36.8969 23.0255 34.2399C23.607 32.3383 24.8184 29.8544 25.7926 27.8607L25.9371 27.5622C26.226 26.9725 26.4964 26.4124 26.715 25.937C27.5151 24.1975 28.7672 22.3033 29.5414 21.1387C29.6932 21.3414 29.8636 21.5662 30.0489 21.7874C30.5601 22.4065 31.1601 23.0293 31.8862 23.6926C30.9231 24.9862 28.6857 28.1407 27.7003 30.8384C27.4077 31.6381 27.1261 32.3899 26.8594 33.0974C25.9074 35.6403 25.1517 37.6487 24.9147 39.2408C24.622 41.2198 23.8182 50.3555 23.6552 53.0126C23.507 55.4486 23.1996 60.5121 23.633 63.6778C23.7886 64.7981 23.8775 66.4049 23.9775 68.1075C24.1516 71.181 24.3479 74.6562 24.9702 76.9337C25.7926 79.9372 26.1704 81.5034 26.2704 81.9235C25.6518 82.1962 23.8663 82.7932 22.6291 81.3154C22.5884 80.84 22.2883 77.6191 21.6956 74.9141L21.6993 74.9215Z" fill="#083028"/>
<path d="M47.5482 16.2778C46.9481 15.08 46.2368 13.9818 45.4404 13.0163C44.2439 11.5643 42.8437 10.3887 41.1656 9.41579C36.6241 6.78451 33.5718 7.013 30.3861 8.1628C28.9488 8.68242 28.056 9.3642 27.4004 10.444C27.267 10.6651 27.1485 10.8899 27.0485 11.1147C26.6077 12.106 26.5002 13.1269 26.7262 14.2177C27.2337 16.6794 28.1894 18.8906 29.5637 20.7848C29.7748 21.076 30.0008 21.3671 30.2305 21.6472C33.0828 25.1003 37.0983 27.2562 39.6691 28.0559C42.1621 28.8298 46.9036 27.5104 48.678 24.9234C50.382 22.4321 49.0558 19.2849 47.5482 16.2778V16.2778ZM39.7172 27.9011C37.165 27.1087 33.1828 24.9676 30.3527 21.544C30.1231 21.2639 29.9008 20.9765 29.6896 20.689C28.3265 18.8132 27.3819 16.6242 26.8781 14.1808C26.6114 12.8836 26.8225 11.6896 27.5337 10.5214C28.1709 9.47475 29.0377 8.81509 30.4379 8.31021C33.5829 7.17515 36.5945 6.95035 41.0841 9.55214C42.7474 10.514 44.1328 11.6822 45.3182 13.1158C46.1072 14.0703 46.811 15.1611 47.4037 16.3478C49.0262 19.5834 49.856 22.071 48.941 24.1237C48.8336 24.3669 48.7002 24.6028 48.5446 24.8313C46.8073 27.3667 42.1621 28.6566 39.7172 27.9011Z" fill="#083028"/>
<path d="M26.4924 81.9455L26.5183 81.9676C26.5961 82.0377 28.4371 83.6113 30.8042 81.8497L30.8598 81.8092L30.919 81.8239C31.5191 81.9713 33.5639 82.3509 34.7308 80.9616L34.7789 80.9026L34.716 80.8473L34.7011 80.792C34.4937 79.7638 33.738 76.0823 32.7601 71.929C32.0044 68.7228 32.0711 66.1394 32.1266 64.0683C32.1563 63.0217 32.1785 62.1188 32.0933 61.3338C31.8377 58.9826 31.9933 51.4352 32.3378 49.4562C32.3971 49.1172 32.4748 48.5644 32.5749 47.8679L32.586 47.7979C33.0675 44.3927 33.9566 38.0872 35.379 35.478C36.6867 33.0715 38.5722 29.7106 39.4538 28.1628L39.5019 28.078L39.4093 28.0485C38.2091 27.6505 36.8793 27.0277 35.5643 26.2391L35.5013 26.2022L35.3124 26.4565C34.5604 27.4662 33.4232 28.9956 33.0861 29.7474C32.9045 30.1528 32.5008 30.9562 32.034 31.8886C31.1043 33.7386 29.7077 36.5173 29.3299 37.6744C28.9706 38.7653 28.8187 42.7343 28.6853 46.2353V46.2906C28.6187 47.9784 28.5483 49.8911 28.4557 51.0225C28.4001 51.6895 28.3223 52.5076 28.2371 53.4142C27.9259 56.7346 27.4999 61.2786 27.6629 63.5081C27.9815 67.8236 28.5705 71.8295 29.4151 75.4152C30.356 79.3916 30.7746 81.2158 30.8857 81.6876C30.8783 81.6986 30.8709 81.7097 30.8672 81.7244L30.8487 81.7797L30.8264 81.7465C30.8264 81.7465 30.4671 80.1803 29.3447 75.43C28.4964 71.8405 27.9074 67.831 27.5889 63.5081C27.4259 61.2822 27.8482 56.7457 28.1593 53.4326V53.3995C28.2408 52.5629 28.3223 51.6969 28.3779 51.0077C28.4668 49.9316 28.5335 48.1922 28.6038 46.3532V46.2795C28.7409 42.7527 28.8928 38.7542 29.2558 37.645C29.6262 36.5136 30.9524 33.8676 31.9192 31.9365L31.9562 31.8591C32.3822 31.0078 32.8231 30.1307 33.012 29.7106C33.2824 29.1099 34.0455 27.9638 35.342 26.2059L35.3939 26.1359L35.3198 26.0916C34.2307 25.4246 33.2046 24.6654 32.2711 23.8436L32.2044 23.7847L32.1526 23.8547C30.293 26.3386 29.0076 28.3876 28.2556 30.0828C28.126 30.3739 28.0111 30.654 27.9148 30.923C27.6333 31.6969 27.3592 32.4266 27.0999 33.1158L27.0591 33.2226C26.1145 35.736 25.37 37.726 25.1403 39.2849C24.8514 41.2491 24.0438 50.3775 23.8808 53.0383V53.0715C23.7327 55.4927 23.4289 60.5341 23.8586 63.6556C24.0142 64.7722 24.1031 66.3679 24.1994 68.0558V68.1074C24.3772 71.1661 24.5735 74.6303 25.1885 76.882C26.0738 80.1176 26.4368 81.647 26.4924 81.8792C26.4887 81.8902 26.485 81.9013 26.485 81.9124V81.9492L26.4924 81.9455ZM29.5707 75.3747C28.7261 71.7963 28.1408 67.7978 27.8222 63.4897C27.6592 61.2749 28.0852 56.7346 28.3964 53.4216C28.4816 52.515 28.5594 51.6932 28.6149 51.0298C28.7076 49.8911 28.7816 47.9784 28.8446 46.2906V46.2353C28.978 42.7454 29.1298 38.7874 29.4818 37.7187C29.8596 36.5762 31.2487 33.8012 32.1711 31.966C32.6452 31.0225 33.049 30.2155 33.2305 29.8064C33.5602 29.0693 34.69 27.551 35.4383 26.5449L35.542 26.4049C36.8126 27.1604 38.098 27.7648 39.2649 28.1591C38.3647 29.7437 36.52 33.0273 35.2383 35.3933C33.8047 38.0208 32.912 44.3558 32.4304 47.7536L32.4193 47.8384C32.3193 48.5349 32.2415 49.084 32.1859 49.4231C31.8414 51.4094 31.6858 58.9826 31.9414 61.3449C32.0266 62.1225 32.0044 63.018 31.9748 64.0572C31.9192 66.1431 31.8525 68.7375 32.6119 71.9621C33.5898 76.1118 34.3455 79.7896 34.553 80.8178L34.5641 80.8694C34.5641 80.8694 34.5715 80.8915 34.5752 80.9026C33.5158 82.104 31.7155 81.835 31.0561 81.6876C31.0561 81.6876 31.0561 81.6839 31.0561 81.6802L31.0487 81.6544C30.9413 81.1901 30.5227 79.3695 29.5781 75.3747H29.5707ZM25.3514 76.8378C24.7402 74.6045 24.5439 71.1477 24.3698 68.0963V68.0447C24.2698 66.3532 24.1809 64.7538 24.0253 63.6298C23.5956 60.5231 23.8994 55.4927 24.0438 53.0752V53.042C24.2105 50.3812 25.0144 41.2639 25.3033 39.3033C25.5293 37.7592 26.2738 35.7802 27.211 33.2742L27.2518 33.1674C27.5111 32.4782 27.7852 31.7448 28.0667 30.9746C28.7298 29.1615 30.093 26.884 32.2341 24.0168C33.1379 24.8055 34.1233 25.5352 35.1642 26.1801C33.8899 27.9085 33.1379 29.0399 32.8675 29.6442C32.6786 30.0607 32.2378 30.9378 31.8155 31.7891L31.7784 31.8665C30.8079 33.8012 29.4818 36.4509 29.1076 37.597C28.7372 38.7284 28.5853 42.738 28.452 46.2758V46.3495C28.3779 48.1885 28.3149 49.9243 28.2223 50.9967C28.1667 51.6821 28.0852 52.5482 28.0037 53.3847V53.4179C27.6889 56.7346 27.2629 61.2786 27.4296 63.5192C27.7481 67.8494 28.3408 71.8663 29.1891 75.4631C30.2597 79.9997 30.6338 81.6286 30.6597 81.7576C28.5742 83.2722 26.9406 82.1003 26.6628 81.8792C26.6628 81.8792 26.6628 81.8755 26.6628 81.8718C26.6628 81.8571 26.3146 80.3609 25.3514 76.8341V76.8378Z" fill="#083028"/>
<path d="M20.1663 22.9041C18.3437 26.9911 16.562 32.0104 15.3729 37.7999C13.1799 48.4762 12.8613 53.3444 13.7356 62.6055C14.2282 67.8164 14.9654 72.294 17.125 78.5C17.1324 78.5185 17.2473 78.7617 17.4843 79.0491C17.7066 79.3181 18.1919 79.7899 18.9512 79.9225L19.0735 79.9446L19.0439 79.8267C18.9364 79.414 17.977 75.6587 17.3065 71.2953C16.9176 68.7746 16.7694 66.663 16.6286 64.6213C16.5101 62.9077 16.399 61.3046 16.1582 59.6831C15.647 56.2631 15.9137 51.2291 16.1989 48.8557C16.4768 46.5635 18.4512 33.5435 19.4143 30.5768C20.6219 26.8437 21.8554 24.0429 23.189 22.0049C23.8669 20.9693 25.745 17.2841 26.8414 15.0213L26.8526 14.9955L26.8451 14.966C26.8229 14.8702 26.797 14.7781 26.7711 14.6823C26.7303 14.5349 26.6896 14.3838 26.6562 14.229C26.4636 13.3003 26.5192 12.4195 26.8229 11.5351L26.9896 11.0449L26.6822 11.4614C25.5486 12.9944 22.8148 16.9708 20.17 22.9041H20.1663ZM26.6118 14.7265C26.634 14.8113 26.6562 14.8923 26.6784 14.9771C25.582 17.2362 23.7187 20.8883 23.0482 21.9165C21.7073 23.9618 20.47 26.7773 19.255 30.5252C18.2882 33.5029 16.3101 46.5377 16.0322 48.8336C15.7433 51.2143 15.4803 56.2668 15.9915 59.7015C16.2323 61.3193 16.3434 62.9187 16.4619 64.6139C16.6064 66.674 16.7509 68.7893 17.1398 71.3138C17.7696 75.397 18.6512 78.9496 18.8512 79.7346C18.2141 79.5835 17.7992 79.1781 17.6029 78.9422C17.3806 78.6695 17.2695 78.4374 17.2695 78.4337C15.121 72.2498 14.3838 67.7833 13.8911 62.5834C13.0169 53.3407 13.3392 48.4835 15.5247 37.8257C18.3067 24.2824 24.3373 14.9697 26.5266 11.9257C26.3339 12.6886 26.3228 13.4588 26.4895 14.2548C26.5229 14.4133 26.5636 14.568 26.6081 14.7191L26.6118 14.7265Z" fill="#083028"/>
<path d="M46.326 23.1506C44.9479 25.9883 41.6029 25.3286 39.6619 25.0228C37.7208 24.7206 34.3017 22.9148 31.8273 19.5059C29.7602 16.6572 28.912 12.8245 29.8788 11.2472C31.342 8.85918 36.4651 8.19583 40.8806 12.2496C45.3369 16.3403 47.6595 20.4051 46.326 23.147V23.1506Z" fill="#FED446"/>
<path d="M41.0361 12.0801C38.6209 9.86524 35.7315 8.80388 33.1052 9.16872C31.5568 9.38247 30.3084 10.0974 29.6787 11.1293C28.6303 12.8392 29.5268 16.7383 31.6345 19.6459C31.8309 19.9186 32.0346 20.1803 32.242 20.4309C34.6313 23.3275 37.743 24.9601 39.621 25.2549L39.8581 25.2918C41.8325 25.605 45.1331 26.132 46.5333 23.2501C47.5335 21.1864 46.6444 18.3782 43.9625 15.1278C43.1402 14.1328 42.1548 13.1083 41.0361 12.0801V12.0801ZM40.8768 12.2496C41.9844 13.2667 42.9623 14.2802 43.781 15.2752C46.2629 18.2787 47.326 21.0869 46.3222 23.1469C44.9442 25.9846 41.5992 25.3249 39.6581 25.019C37.8689 24.739 34.824 23.1875 32.4236 20.2761C32.2198 20.0292 32.0198 19.7712 31.8235 19.5022C29.7565 16.6535 28.9082 12.8208 29.875 11.2435C31.3382 8.85548 36.4576 8.19213 40.8768 12.2459V12.2496Z" fill="#083028"/>
<path d="M29.6081 11.0889C30.2526 10.0386 31.5232 9.3126 33.0938 9.09148C35.7424 8.72296 38.6577 9.79168 41.0915 12.0213C42.2139 13.0495 43.1992 14.0813 44.0253 15.08C46.7332 18.3562 47.6222 21.1865 46.6072 23.2871C45.181 26.2206 41.8435 25.6899 39.8505 25.3693L39.6135 25.3324C37.7205 25.0376 34.5904 23.3903 32.1826 20.479C31.9714 20.2247 31.7677 19.9593 31.5714 19.6903C29.5525 16.9079 28.6413 13.2116 29.4636 11.3616C29.5081 11.2658 29.5562 11.17 29.6081 11.0852V11.0889ZM43.8993 15.1832C43.0807 14.1919 42.0953 13.1674 40.9803 12.1429C38.5837 9.94278 35.7165 8.89248 33.1161 9.25363C31.5936 9.46369 30.3638 10.1639 29.7451 11.1737C28.7116 12.8505 29.6081 16.7163 31.701 19.6019C31.8937 19.8672 32.0974 20.1289 32.3048 20.3831C34.683 23.2613 37.7724 24.8865 39.6357 25.1777L39.8728 25.2145C41.8249 25.5241 45.0884 26.0474 46.459 23.2208C46.4776 23.1839 46.4961 23.1471 46.5109 23.1065C47.411 21.0833 46.5109 18.3489 43.8956 15.1832H43.8993ZM29.8081 11.2105C30.4156 10.2192 31.6232 9.53371 33.1235 9.32365C35.7054 8.96618 38.5503 10.0128 40.9285 12.1945C42.0472 13.219 43.0251 14.2398 43.8401 15.2274C46.4368 18.371 47.3333 21.0797 46.4442 23.0734C46.4294 23.1102 46.4109 23.1471 46.3924 23.1839C45.044 25.9626 41.8101 25.4467 39.8802 25.1408L39.6431 25.104C37.7909 24.8128 34.7238 23.1987 32.3567 20.3315C32.153 20.0846 31.9492 19.823 31.7566 19.554C29.8118 16.8748 28.8932 13.2079 29.6748 11.4537C29.7155 11.3653 29.7563 11.2842 29.8044 11.2068L29.8081 11.2105ZM43.7215 15.3306C42.9103 14.3504 41.9361 13.3332 40.8248 12.3124C38.4799 10.1602 35.6832 9.12834 33.1494 9.48212C31.6973 9.68481 30.5305 10.3445 29.9489 11.2953C28.9821 12.8762 29.8859 16.6979 31.8937 19.4655C32.0863 19.7308 32.2863 19.9888 32.49 20.2357C34.8275 23.066 37.8539 24.6654 39.6764 24.9492L39.9172 24.986C41.9249 25.3067 44.9625 25.7894 46.259 23.1176C46.2775 23.0844 46.2923 23.0476 46.3072 23.0107C47.1703 21.076 46.2812 18.4226 43.7252 15.3306H43.7215Z" fill="#083028"/>
<path d="M8.7451 30.0053C11.2529 33.9485 15.7388 38.2455 18.806 40.7626L17.754 42.8374C16.2871 41.7576 14.8054 40.5857 13.4051 39.3253C10.5343 36.7382 7.05593 31.6047 6.71513 31.0298C6.36692 30.4401 5.61865 29.3309 6.0002 28.9844C6.21505 28.7891 6.59289 29.3972 6.6892 29.5041C6.604 29.3235 6.4336 28.7191 6.69661 28.627C6.99295 28.5238 7.41895 29.165 7.41895 29.165C7.41895 29.165 6.99295 28.3285 7.4634 28.3174C7.79679 28.31 8.50431 29.6257 8.7488 30.0089L8.7451 30.0053Z" fill="#FFF18A"/>
<path d="M8.67087 29.6554C8.74126 29.7733 8.80052 29.8728 8.84498 29.9392C11.2824 33.7755 15.6276 37.9988 18.88 40.6706C18.9318 40.7112 18.9355 40.7849 18.8985 40.8328C18.8577 40.8844 18.78 40.8881 18.7318 40.8512C15.4646 38.1683 11.1009 33.9229 8.64865 30.0645C8.6042 29.9944 8.54493 29.8912 8.47454 29.7733C8.27451 29.438 7.6633 28.4135 7.46697 28.4282C7.40029 28.4282 7.38548 28.4503 7.38177 28.4614C7.31509 28.5719 7.42622 28.911 7.52624 29.1063C7.55587 29.1616 7.53365 29.2279 7.48179 29.2611C7.42993 29.2905 7.35955 29.2758 7.32621 29.2242C7.17063 28.9884 6.87798 28.6898 6.74092 28.7341C6.72981 28.7341 6.71499 28.7451 6.70018 28.7746C6.6335 28.9294 6.73352 29.3016 6.8039 29.449C6.82983 29.5006 6.81131 29.5633 6.76315 29.5964C6.71129 29.6259 6.64832 29.6222 6.61127 29.5743C6.59275 29.5559 6.56682 29.519 6.53719 29.4785C6.45569 29.3679 6.24455 29.0694 6.09267 29.0657C5.82225 29.3127 6.39272 30.2487 6.70018 30.7536C6.74463 30.831 6.78908 30.9047 6.82983 30.971C7.10765 31.4427 10.5638 36.5947 13.4976 39.2371C14.7682 40.3795 16.1869 41.5256 17.8391 42.7454C17.8909 42.7823 17.902 42.856 17.8613 42.9076C17.8317 42.9445 17.7872 42.9629 17.7428 42.9518C17.7279 42.9518 17.7131 42.9408 17.6983 42.9297C16.0388 41.7062 14.6126 40.5564 13.3383 39.4103C10.386 36.7495 6.90762 31.5607 6.62609 31.089L6.49644 30.8752C6.08526 30.2008 5.5222 29.2721 5.93338 28.8962C5.99265 28.8446 6.05933 28.8188 6.13712 28.8299C6.25566 28.8409 6.35197 28.911 6.45569 29.0142C6.44458 28.8962 6.45199 28.782 6.49274 28.6862C6.52978 28.6014 6.58905 28.5424 6.67054 28.5166C6.82983 28.4614 7.00023 28.5388 7.1447 28.6604C7.12988 28.5461 7.13729 28.4319 7.18915 28.3471C7.22989 28.2808 7.31139 28.2034 7.47068 28.1997C7.74479 28.2034 8.11893 28.7083 8.68199 29.6591L8.67087 29.6554Z" fill="#083028"/>
<path d="M5.87075 28.8371C5.94484 28.767 6.03745 28.7376 6.13746 28.7486C6.22266 28.756 6.30045 28.7928 6.36343 28.8371C6.37084 28.767 6.38565 28.7081 6.40788 28.6528C6.45233 28.5459 6.53382 28.4722 6.63384 28.4391C6.76349 28.3948 6.90426 28.4169 7.04873 28.5017C7.05613 28.4243 7.07466 28.358 7.1117 28.3027C7.18579 28.1848 7.30432 28.1184 7.46361 28.1147C7.75625 28.1184 8.08964 28.5128 8.7453 29.6146L8.67492 29.6552L8.75271 29.6257C8.81939 29.7363 8.87495 29.8321 8.91941 29.8984C11.3494 33.7274 15.6872 37.9397 18.9359 40.6115C18.9766 40.6446 19.0026 40.6889 19.0063 40.7442C19.01 40.7957 18.9952 40.8473 18.9618 40.8879C18.8914 40.969 18.7655 40.98 18.684 40.9137C15.4131 38.2271 11.042 33.978 8.58231 30.1085C8.54897 30.0532 8.50452 29.9832 8.45637 29.8984L8.40451 29.8137C7.68587 28.6012 7.50065 28.5128 7.46731 28.5091C7.4562 28.5091 7.44879 28.5091 7.44509 28.5091C7.41545 28.5754 7.47843 28.8371 7.59326 29.0692C7.64142 29.165 7.60808 29.2756 7.51547 29.3309C7.42657 29.3788 7.31173 29.353 7.25246 29.2682C7.07095 28.9918 6.81906 28.7928 6.7672 28.8076C6.71904 28.9218 6.79313 29.2572 6.86721 29.4193C6.90796 29.5078 6.87833 29.611 6.79313 29.6699C6.70422 29.7215 6.6005 29.7031 6.54123 29.6331C6.52642 29.6147 6.50419 29.5889 6.47826 29.552L6.44863 29.5115C6.30045 29.3088 6.18562 29.1908 6.11153 29.1577C5.96336 29.412 6.53382 30.3517 6.75608 30.7165L6.88574 30.934C7.16356 31.4057 10.6271 36.5577 13.5387 39.1816C14.8093 40.324 16.2243 41.4701 17.8764 42.6826C17.9172 42.7121 17.9468 42.7563 17.9542 42.8116C17.9616 42.8632 17.9468 42.9148 17.9172 42.9553C17.869 43.018 17.795 43.0474 17.7172 43.029C17.6875 43.0216 17.6616 43.0106 17.6431 42.9958C15.9724 41.765 14.5463 40.6115 13.2794 39.469C10.3196 36.8009 6.83387 31.601 6.55235 31.1293L6.4227 30.9155C6.1671 30.4991 5.85964 29.9905 5.74851 29.5557C5.67442 29.2609 5.68924 29.0066 5.87816 28.8371H5.87075ZM17.7801 42.8116C16.128 41.5918 14.7055 40.4456 13.4313 39.2995C10.5049 36.6609 7.0302 31.4868 6.74868 31.0114L6.61902 30.7976C6.15598 30.0385 5.72999 29.2793 6.02633 29.0103L6.05226 28.9882H6.0856C6.24859 28.9955 6.41899 29.1982 6.57828 29.4156L6.60791 29.4562C6.63014 29.4857 6.64866 29.5115 6.66348 29.5262C6.67829 29.5409 6.69682 29.5373 6.70793 29.5336C6.72645 29.5225 6.73015 29.5041 6.72274 29.4857C6.65607 29.3493 6.53753 28.9402 6.61902 28.7449C6.63755 28.7007 6.66718 28.6712 6.70793 28.6565C6.93389 28.5865 7.2821 29.0213 7.38211 29.1761C7.39323 29.1908 7.41545 29.1982 7.43027 29.1908C7.44879 29.1798 7.4562 29.1614 7.44509 29.1429C7.371 28.9992 7.20431 28.5865 7.30432 28.4243C7.33025 28.3727 7.38582 28.3506 7.4562 28.3506C7.53769 28.3432 7.70809 28.3285 8.54157 29.7326L8.59343 29.8173C8.64158 29.8984 8.68233 29.9684 8.71567 30.0237C11.1642 33.8748 15.5205 38.1129 18.784 40.7921C18.7951 40.8031 18.821 40.8031 18.8359 40.7847C18.8433 40.7773 18.8433 40.7663 18.8433 40.7589C18.8433 40.7552 18.8433 40.7405 18.8285 40.7331C15.5687 38.0576 11.2198 33.8269 8.77864 29.9832C8.73419 29.9168 8.67863 29.821 8.61195 29.7068L8.67492 29.6552L8.60454 29.6957C8.18966 28.9955 7.72662 28.2806 7.46361 28.2769C7.36359 28.2769 7.29321 28.3138 7.24876 28.3875C7.21172 28.4501 7.2006 28.5386 7.21171 28.6528L7.23394 28.8555L7.07836 28.7228C6.97834 28.6381 6.82647 28.5459 6.682 28.5938C6.62273 28.6123 6.58198 28.6565 6.55235 28.7191C6.52271 28.7891 6.5116 28.885 6.52271 29.0066L6.54123 29.2277L6.38565 29.0729C6.27823 28.966 6.20044 28.9181 6.11524 28.9108C6.06338 28.9034 6.01522 28.9218 5.97447 28.9587C5.61145 29.2903 6.17821 30.2227 6.55235 30.8382L6.682 31.0519C6.95982 31.5236 10.4308 36.7014 13.3794 39.3548C14.6426 40.4936 16.0687 41.6434 17.7468 42.8779C17.7616 42.8779 17.7764 42.8779 17.7838 42.8632C17.7912 42.8521 17.795 42.8411 17.7912 42.8337C17.7912 42.83 17.7875 42.819 17.7764 42.8153L17.7801 42.8116Z" fill="#083028"/>
<path d="M33.7418 39.8008L34.5345 39.7713L37.1053 35.2163L25.9109 32.0249L25.2256 37.7592L25.6219 37.8845L28.8373 39.1522L33.7418 39.8008Z" fill="#FFF18A"/>
<path d="M24.8892 41.1828L24.1113 41.3265L22.2295 46.2021L33.7721 47.7426L33.6129 41.9715L33.2017 41.9051L29.8382 41.1128L24.8892 41.1828Z" fill="#FFF18A"/>
<path d="M35.9462 37.7886C35.9462 37.7886 35.9462 37.8071 35.9425 37.8181C35.9314 37.8992 35.8573 37.9582 35.7758 37.9508C35.6943 37.9397 35.635 37.8623 35.6498 37.7776C35.6498 37.7702 35.6498 37.7665 35.6535 37.7555C35.7165 37.199 35.3276 36.6978 34.7793 36.6388C34.2348 36.5799 33.7347 36.9853 33.6717 37.5454C33.6717 37.5528 33.6717 37.5565 33.6717 37.5638C33.6643 37.6486 33.5902 37.7076 33.5087 37.7002C33.4273 37.6928 33.3643 37.6191 33.3717 37.5344C33.3717 37.527 33.3717 37.5159 33.3717 37.5086C33.4569 36.7863 34.1014 36.2593 34.8127 36.3366C35.5239 36.414 36.0351 37.0663 35.9499 37.7923L35.9462 37.7886Z" fill="#083028"/>
<path d="M27.5668 36.2813C27.5668 36.2813 27.5631 36.296 27.5594 36.3108C27.5409 36.3881 27.4705 36.4397 27.3964 36.4324C27.3927 36.4324 27.3853 36.4324 27.3816 36.4324C27.3001 36.4139 27.2482 36.3329 27.2667 36.2518C27.2667 36.2444 27.2667 36.2407 27.2741 36.2297C27.326 35.9643 27.2742 35.6916 27.126 35.4705C26.9778 35.2457 26.7518 35.0946 26.4925 35.0467C26.2295 34.9951 25.9665 35.0541 25.7443 35.2052C25.522 35.3563 25.3701 35.5884 25.3183 35.8575C25.3183 35.8648 25.3183 35.8685 25.3183 35.8759C25.3035 35.9606 25.2257 36.0122 25.1442 36.0012C25.0627 35.9864 25.0071 35.9054 25.0219 35.8243C25.0219 35.8169 25.0219 35.8059 25.0256 35.7985C25.1664 35.0836 25.8517 34.6118 26.5518 34.7445C27.2556 34.8772 27.7113 35.57 27.5705 36.285L27.5668 36.2813Z" fill="#083028"/>
<path d="M35.9492 41.006C35.4566 43.8362 31.4966 44.2158 28.7962 43.8989C26.0957 43.582 24.0398 41.9678 23.2545 40.7554C22.2432 39.2002 22.9323 36.5394 25.8068 38.0172C28.6814 39.495 32.3116 39.8083 34.0193 39.7014C35.727 39.5945 36.0789 40.28 35.9529 41.0097L35.9492 41.006Z" fill="#5B1A24"/>
<path d="M33.5195 40.442C32.9306 40.3572 32.9713 39.7123 32.9713 39.7123L34.1493 39.6938C34.1493 39.6938 34.1048 40.5267 33.5195 40.442Z" fill="white"/>
<path d="M30.1749 40.3462C29.46 40.232 29.6748 39.3291 29.6748 39.3291L30.9898 39.5502C30.9898 39.5502 30.7046 40.431 30.1749 40.3462Z" fill="white"/>
<path d="M26.7481 39.3917C26.1146 39.1448 26.448 38.3267 26.448 38.3267L27.7038 38.8057C27.7038 38.8057 27.3815 39.6349 26.7481 39.388V39.3917Z" fill="white"/>
<path d="M27.7075 38.8094C27.7075 38.8094 27.4408 39.4912 26.9185 39.4359C26.8629 39.4286 26.8073 39.4175 26.7481 39.3917C26.1146 39.1448 26.448 38.3267 26.448 38.3267L27.7038 38.8057L27.7075 38.8094Z" fill="white"/>
<path d="M32.6858 43.8989C32.6858 43.8989 30.7818 44.4333 28.1925 43.9726C25.6846 43.5267 24.1992 42.0489 24.1992 42.0489C24.1992 42.0489 25.6921 40.5711 29.1186 41.1866C32.545 41.7983 32.6858 43.9026 32.6858 43.9026V43.8989Z" fill="#F39992"/>
<path d="M29.1447 41.0355C28.915 40.995 28.6816 40.9618 28.4594 40.936C25.4737 40.6117 24.1476 41.8868 24.0957 41.9384C24.0957 41.9384 25.8108 43.7258 28.3594 44.0427C31.0672 44.3818 32.8379 43.8843 32.8379 43.8843C32.8305 43.7921 32.649 41.6584 29.1484 41.0319L29.1447 41.0355ZM32.5156 43.7848C32.1044 43.8769 30.7709 44.1275 29.0187 43.9395C28.752 43.9101 28.4816 43.8732 28.2186 43.8253C26.1886 43.4641 24.8329 42.4065 24.4291 42.0564C24.8143 41.7652 26.0923 40.9876 28.4223 41.2419C28.6409 41.264 28.8632 41.2972 29.0891 41.3377C31.9007 41.8426 32.423 43.3351 32.5156 43.7884V43.7848Z" fill="#D6807B"/>
<path d="M30.4264 43.9987C30.4264 43.9987 30.0189 44.0429 29.8744 44.0319C29.4262 43.9876 29.2373 43.9803 29.2373 43.9803C29.2373 43.9803 29.2484 43.1032 29.8448 43.129C30.3634 43.1511 30.4227 44.0024 30.4227 44.0024L30.4264 43.9987Z" fill="white"/>
<path d="M28.0113 43.7701C28.0113 43.7701 27.5445 43.6558 27.3852 43.6079C27.2259 43.56 26.7666 43.3979 26.7666 43.3979C26.7666 43.3979 27.0852 42.6055 27.6408 42.8045C28.2002 43.0035 28.0113 43.7701 28.0113 43.7701Z" fill="white"/>
<path d="M36.0422 39.9963C35.8015 39.6683 35.3866 39.4693 34.805 39.4066C34.5679 39.3808 34.2975 39.3772 34.0012 39.3956C33.3196 39.4398 32.4453 39.4103 31.5378 39.3108C30.3302 39.1782 27.9965 38.8023 25.9443 37.7446C25.4516 37.4903 24.9886 37.3392 24.5737 37.295C23.7995 37.2102 23.1771 37.494 22.8178 38.091C22.3548 38.8575 22.4326 40.0516 23.003 40.9287C23.8847 42.2848 26.0628 43.8879 28.7595 44.2049C28.7966 44.2085 28.8373 44.2122 28.8744 44.2196C29.8264 44.3228 31.6711 44.4223 33.3418 43.9137C35.005 43.4088 36.0089 42.4212 36.246 41.0613C36.3201 40.6449 36.246 40.28 36.0422 40V39.9963ZM35.9496 41.006C35.4644 43.7995 31.6045 44.2049 28.9077 43.91C28.8707 43.9063 28.8336 43.9027 28.7966 43.899C26.0961 43.582 24.0402 41.9679 23.2549 40.7554C22.414 39.4619 22.7474 37.4018 24.5403 37.5972C24.9034 37.6377 25.3256 37.7667 25.8072 38.0173C27.6297 38.9533 29.756 39.4251 31.5044 39.613C32.512 39.7236 33.3936 39.7383 34.0197 39.7015C34.3086 39.683 34.5568 39.6867 34.7717 39.7125C35.8311 39.8268 36.0571 40.4053 35.9496 41.0097V41.006Z" fill="#083028"/>
</g>
</svg>
