<svg width="170" height="150" viewBox="0 0 170 150" fill="none" xmlns="http://www.w3.org/2000/svg">
<g clip-path="url(#clip0_209_1527)">
<path d="M89.0099 25.2481C87.3999 21.3181 85.4699 17.5181 83.3999 13.8281C75.6099 -0.0419054 64.3499 -12.1319 51.2199 -20.9719C44.4899 -25.5019 37.3399 -29.3619 29.7399 -32.1819C26.1499 -33.5119 22.4999 -34.6319 18.8099 -35.5619C12.2499 -39.3019 5.15989 -42.0519 -2.17011 -43.8619C-6.27011 -44.8719 -10.4501 -45.4919 -14.6601 -45.7819C-18.9201 -46.0819 -23.3301 -46.1819 -27.5301 -45.3519C-30.7601 -44.7219 -33.6301 -43.7219 -36.4701 -42.0319C-39.1101 -40.4619 -41.1101 -38.1719 -42.6801 -35.5519C-45.1401 -31.4819 -45.7101 -26.3319 -44.0601 -21.9319C-44.0201 -8.77191 -43.3701 4.39809 -41.3401 17.3981C-39.1501 31.4481 -35.4301 45.3781 -29.4001 58.2481C-26.4401 64.5681 -22.9901 70.6881 -18.9601 76.3781C-17.0501 79.0581 -15.0201 81.6481 -12.8501 84.1181C-9.77011 87.6281 -6.57011 90.8781 -1.91011 92.0681C2.60989 93.2181 7.23988 91.2581 10.2599 87.8281C13.2299 84.4481 14.1899 80.0181 14.1099 75.6181C14.0399 71.8281 12.9999 68.0481 12.2499 64.3481C11.4499 60.4181 10.6599 56.4881 9.85989 52.5581C9.12989 48.9581 8.39988 45.3581 7.66988 41.7481C12.1099 47.5981 17.0999 53.0381 22.5099 57.9581C26.4499 61.5481 30.6499 64.8481 35.0699 67.8081C35.9599 68.4081 36.8399 69.0281 37.7799 69.5381C39.1399 70.2881 40.6299 70.5281 42.1599 70.5181C44.3999 70.5181 46.6199 69.2181 48.0099 67.4781C50.3799 64.5081 50.3999 60.7681 50.4299 57.1581C50.4899 49.5481 49.4499 41.8881 47.4699 34.5181C50.8499 37.0881 54.4399 39.3581 58.3099 41.1581C62.6799 43.1881 67.4599 44.6681 72.2699 45.1181C77.7299 45.6281 84.3899 45.5981 88.2299 40.9481C91.9299 36.4781 91.0699 30.2081 89.0199 25.2381L89.0099 25.2481Z" fill="#004D3A"/>
</g>
<defs>
<clipPath id="clip0_209_1527">
<rect width="170" height="150" fill="white"/>
</clipPath>
</defs>
</svg>
