<svg width="170" height="150" viewBox="0 0 170 150" fill="none" xmlns="http://www.w3.org/2000/svg">
<g clip-path="url(#clip0_209_1528)">
<path d="M187.51 -16.562C156.16 -12.092 125.02 -6.12201 94.2498 1.36799C91.3398 1.87799 88.4298 2.41799 85.5398 3.01799C78.4298 4.48799 71.3898 6.28799 64.4998 8.57799C62.1298 9.36799 62.2898 12.908 64.7498 13.448C65.8198 13.678 66.8998 13.878 67.9798 14.058C68.0698 14.088 68.1498 14.118 68.2498 14.138C84.4298 17.988 101.34 18.738 117.79 16.248C126.73 14.898 135.48 12.688 144.08 9.94799C128.84 18.248 114.17 27.578 99.7298 37.208C93.7398 41.208 87.7898 45.248 81.8298 49.298C79.4198 50.938 81.2198 54.578 83.9798 53.828C105.86 47.878 126.72 38.078 145.28 25.048C138.91 35.648 133.68 46.808 128.87 58.208C125.73 65.658 122.57 73.118 118.67 80.218C117.33 82.658 121.06 85.458 122.77 83.098C133.71 67.978 144.65 52.858 155.58 37.728C157.46 49.398 161.39 60.668 167.18 71.018C167.72 71.988 169.07 72.388 170.09 72.048C171.23 71.678 171.77 70.638 171.83 69.508C172.98 48.958 175.74 28.508 180.04 8.38799C180.44 6.49799 180.87 4.61799 181.3 2.72799C182.9 0.35799 184.5 -2.02201 186.06 -4.42201C186.58 -5.22201 186.48 -6.07201 186.04 -6.76201C186.3 -6.87201 186.55 -6.99201 186.81 -7.10201C188.06 -7.65201 188.88 -8.90201 188.43 -10.292C188.37 -10.492 188.27 -10.672 188.15 -10.852C188.64 -11.302 189.09 -11.792 189.5 -12.342C190.67 -13.912 189.9 -16.912 187.5 -16.572L187.51 -16.562Z" fill="#65ACE4"/>
</g>
<defs>
<clipPath id="clip0_209_1528">
<rect width="170" height="150" fill="white"/>
</clipPath>
</defs>
</svg>
