<svg width="170" height="150" viewBox="0 0 170 150" fill="none" xmlns="http://www.w3.org/2000/svg">
<g clip-path="url(#clip0_210_1527)">
<path d="M107.823 3.20497C106.252 -4.24939 100.603 -9.94978 93.5936 -12.5354C92.4002 -12.9739 91.1767 -12.9436 90.0588 -12.5807C89.5754 -13.1855 88.9863 -13.6845 88.3367 -14.0323C86.4787 -15 84.4847 -15.2419 82.6871 -14.7581C76.4332 -14.2893 70.1944 -13.8357 63.9405 -13.367C59.6202 -13.5484 55.3149 -13.3216 50.9644 -12.8529C47.0066 -12.4295 43.0639 -11.9759 39.1213 -11.5223C16.4773 -9.84394 -6.16658 -8.15046 -28.8105 -6.47209C-32.0281 -6.23017 -34.5206 -4.27963 -35.2155 -1.27067C-35.7442 -0.696093 -36.152 -0.0307951 -36.4391 0.725225C-37.1792 -0.21224 -37.9345 -1.1497 -38.6747 -2.07205C-40.7292 -4.65764 -44.9891 -4.41572 -47.3456 -2.58615C-49.7021 -0.756578 -51.0013 3.2957 -49.0526 5.94177C-44.9588 11.4758 -40.6838 16.8738 -36.1671 22.0601C-36.1369 22.1055 -36.0916 22.1357 -36.0614 22.1811C-29.309 30.4671 -22.4358 38.6472 -15.2151 46.5098C-10.1848 51.9985 -4.97321 57.3209 0.449856 62.4165C5.84271 67.4818 11.4319 72.5774 17.9275 76.2063C24.6195 79.9411 32.2782 82.1487 39.9068 80.3796C46.7498 78.807 52.5505 73.651 55.5113 67.3457C61.2365 55.1133 59.2274 40.507 51.5384 29.5598C50.1034 27.5035 48.5021 25.5832 46.78 23.799C66.0553 22.3625 85.1493 18.1893 103.201 11.3095C106.721 9.9638 108.609 6.9246 107.823 3.17474V3.20497Z" fill="#FE4F51"/>
</g>
<defs>
<clipPath id="clip0_210_1527">
<rect width="170" height="150" fill="white"/>
</clipPath>
</defs>
</svg>
