<svg width="170" height="150" viewBox="0 0 170 150" fill="none" xmlns="http://www.w3.org/2000/svg">
<g clip-path="url(#clip0_210_1529)">
<path d="M203.019 5.93997C201.907 4.86351 199.931 4.71105 198.632 5.52135L200.528 4.11574C202.044 2.99764 202.628 1.06659 201.796 -0.642957C201.316 -1.62255 200.268 -2.466 199.122 -2.72004C199.043 -3.19628 198.863 -3.67615 198.594 -4.12214C197.789 -5.46012 196.308 -5.90437 194.899 -5.66943C197.084 -10.5182 197.235 -16.3774 195.242 -21.2715C195.002 -21.8694 194.649 -22.383 194.22 -22.7798C194.205 -23.023 194.176 -23.2584 194.16 -23.5016C195.617 -24.5668 196.082 -26.5631 195.291 -28.1708C194.878 -29.0188 194.097 -29.7128 193.203 -30.0606C193.532 -33.0947 193.805 -36.1319 194.026 -39.183C196.315 -41.226 198.203 -43.636 199.196 -46.6103C200.159 -49.4673 199.632 -52.5202 198.289 -55.1375C197.46 -56.7322 196.047 -58.1721 194.377 -59.0189C194.381 -59.7694 194.183 -60.5273 193.802 -61.1507C193.487 -61.6772 193.077 -62.0578 192.601 -62.3188C192.847 -62.653 193.033 -63.0145 193.167 -63.4006C194.465 -64.0292 195.775 -64.6658 197.072 -65.2945C197.995 -65.7478 198.689 -66.238 199.197 -67.1413C199.7 -68.0234 199.686 -69.0973 199.413 -70.0456C198.903 -71.8188 196.824 -72.9206 195.059 -72.494C194.998 -72.7377 194.921 -72.9628 194.809 -73.1856C194.698 -73.4084 194.573 -73.6233 194.429 -73.809C194.631 -73.8471 194.826 -73.8987 195.028 -73.9368C195.124 -73.9572 195.196 -73.9726 195.244 -73.9828C195.34 -74.0032 195.433 -74.013 195.529 -74.0335C195.934 -74.1098 196.337 -74.1754 196.742 -74.2516C198.807 -74.6112 200.278 -75.9915 200.256 -78.2061C200.234 -80.0682 198.251 -82.0559 196.33 -81.727C194.467 -81.4056 192.618 -81.0466 190.776 -80.6288C177.353 -77.6373 164.603 -71.7597 153.091 -64.2489C141.361 -56.6012 130.851 -47.1201 121.444 -36.7469C111.701 -25.995 103.13 -14.2301 95.051 -2.17738C89.1783 6.59216 83.5561 15.5297 78.0711 24.5487C77.6662 25.0577 77.2612 25.5667 76.8535 26.0864C75.3117 27.6076 73.8463 29.1829 72.4412 30.831C64.9221 39.6596 59.3877 50.1232 56.3011 61.3182C53.4472 66.4704 50.8789 71.7429 49.0321 77.3748C48.6318 78.6024 49.2831 80.1393 50.1905 80.9574C51.2267 81.8888 52.5618 82.0672 53.869 81.7031C55.3228 81.2976 56.7873 80.8949 58.2412 80.4895C69.7974 77.2717 81.3641 74.0567 92.9203 70.839C104.023 67.7531 115.17 64.7585 126.168 61.2923C136.945 57.8935 147.602 53.9966 157.769 48.9919C166.79 44.5531 175.429 39.3655 183.254 33.008C191.236 26.5212 198.218 19.0552 203.868 10.4438C204.792 9.0342 204.13 7.01644 203.04 5.94552L203.019 5.93997Z" fill="#004D3A"/>
<path d="M199.819 13.8611C198.728 13.7836 197.589 14.599 197.254 15.6279L197.642 14.0053C197.954 12.7115 197.393 11.4009 196.166 10.8541C195.461 10.542 194.51 10.5617 193.775 10.9447C193.516 10.723 193.2 10.5452 192.852 10.4258C191.808 10.0676 190.805 10.5 190.149 11.2676C189.129 7.65025 186.548 4.41071 183.245 2.66771C182.844 2.45314 182.419 2.33545 182.007 2.31544C181.888 2.19092 181.766 2.07675 181.647 1.95224C181.951 0.71388 181.296 -0.578059 180.137 -1.08851C179.528 -1.36007 178.79 -1.38068 178.148 -1.1625C176.947 -2.95412 175.715 -4.72212 174.448 -6.47355C174.759 -8.61972 174.686 -10.7818 173.872 -12.8427C173.094 -14.8263 171.422 -16.2392 169.506 -17.0456C168.333 -17.532 166.914 -17.6693 165.625 -17.3687C165.286 -17.7766 164.835 -18.0967 164.345 -18.2612C163.935 -18.4029 163.541 -18.4225 163.165 -18.3477C163.146 -18.6404 163.082 -18.9202 162.98 -19.1904C163.396 -20.12 163.816 -21.06 164.232 -21.9896C164.526 -22.6542 164.679 -23.2351 164.543 -23.9549C164.414 -24.6606 163.919 -25.2357 163.34 -25.6248C162.258 -26.3526 160.633 -26.0042 159.871 -24.9713C159.728 -25.0755 159.584 -25.1623 159.422 -25.2322C159.26 -25.302 159.095 -25.3615 158.933 -25.3966C159.025 -25.5093 159.107 -25.6256 159.199 -25.7383C159.242 -25.793 159.274 -25.834 159.295 -25.8613C159.338 -25.916 159.384 -25.9636 159.426 -26.0183C159.611 -26.2436 159.799 -26.4619 159.983 -26.6872C160.937 -27.82 161.106 -29.2355 160.089 -30.4245C159.23 -31.422 157.254 -31.5966 156.364 -30.5457C155.502 -29.5256 154.664 -28.4909 153.857 -27.4278C147.952 -19.7096 143.722 -10.7351 140.904 -1.43896C138.031 8.0298 136.651 17.9368 136.274 27.8252C135.886 38.0718 136.593 48.3333 137.697 58.5275C138.504 65.9422 139.522 73.334 140.652 80.7075C140.664 81.1669 140.676 81.6264 140.692 82.0929C140.548 83.6168 140.471 85.1353 140.46 86.6657C140.402 94.8604 142.161 103.038 145.578 110.5C146.374 114.585 147.38 118.605 148.94 122.493C149.281 123.339 150.332 123.875 151.194 123.905C152.178 123.938 152.982 123.428 153.524 122.637C154.127 121.757 154.736 120.874 155.339 119.994C160.131 113.001 164.93 106.005 169.722 99.0128C174.329 92.2977 179.001 85.6121 183.378 78.7386C187.666 72.0023 191.664 65.0504 194.892 57.7224C197.757 51.2209 200.076 44.4875 201.421 37.4916C202.794 30.3536 203.18 23.1405 202.325 15.9126C202.184 14.73 200.91 13.9385 199.833 13.8544L199.819 13.8611Z" fill="#004D3A"/>
</g>
<defs>
<clipPath id="clip0_210_1529">
<rect width="170" height="150" fill="white"/>
</clipPath>
</defs>
</svg>
